<svg height="512pt" viewBox="-51 0 512 512" width="512pt" xmlns="http://www.w3.org/2000/svg" xmlns:xlink="http://www.w3.org/1999/xlink"><linearGradient id="linear0" gradientUnits="userSpaceOnUse" x1="-.0001" x2="409.9941" y1="256" y2="256"><stop offset="0" stop-color="#00f2fe"/><stop offset=".0208" stop-color="#03effe"/><stop offset=".2931" stop-color="#24d2fe"/><stop offset=".5538" stop-color="#3cbdfe"/><stop offset=".7956" stop-color="#4ab0fe"/><stop offset="1" stop-color="#4facfe"/></linearGradient><path d="m204.996094 347c11.046875 0 20-8.953125 20-20v-32h27c33.085937 0 60-26.914062 60-60 0-13.886719-10.195313-51.128906-24.824219-82.363281-9.269531-19.785157-19.542969-35.792969-30.542969-47.582031-15.515625-16.625-32.550781-25.054688-50.632812-25.054688-18.078125 0-35.113282 8.429688-50.628906 25.054688-11 11.789062-21.277344 27.796874-30.542969 47.582031-14.632813 31.234375-24.828125 68.476562-24.828125 82.363281 0 33.085938 26.917968 60 60 60h25v32c0 11.046875 8.953125 20 20 20zm-45-92c-10.996094 0-19.949219-8.921875-20-19.90625.269531-5.71875 7.183594-36.261719 21.550781-66.550781 14.417969-30.394531 31.035156-48.542969 44.449219-48.542969 13.414062 0 30.03125 18.148438 44.449218 48.542969 14.371094 30.289062 21.285157 60.832031 21.550782 66.550781-.050782 10.984375-9.003906 19.90625-20 19.90625h-27v-39c0-11.046875-8.953125-20-20-20s-20 8.953125-20 20v39zm249.996094-50.238281c-.042969 44.816406-13.511719 85.328125-42.394532 127.535156-6.238281 9.113281-18.6875 11.445313-27.800781 5.210937-9.113281-6.238281-11.445313-18.6875-5.210937-27.804687 24.121093-35.246094 35.371093-68.59375 35.40625-104.9375-.101563-90.832031-74.121094-164.765625-164.996094-164.765625s-164.890625 73.933594-164.996094 164.804688c.070312 72.355468 44.390625 120.894531 95.710938 177.09375 23.605468 25.851562 47.890624 52.449218 69.285156 83.039062 21.394531-30.59375 45.683594-57.191406 69.289062-83.039062l3.085938-3.378907c7.445312-8.160156 20.09375-8.738281 28.253906-1.292969 8.15625 7.449219 8.734375 20.097657 1.289062 28.257813l-3.09375 3.386719c-26.546874 29.070312-53.996093 59.132812-75.917968 93.816406-3.664063 5.796875-10.046875 9.3125-16.90625 9.3125h-12c-6.859375 0-13.238282-3.515625-16.90625-9.3125-21.921875-34.683594-49.371094-64.746094-75.917969-93.816406-27.074219-29.648438-52.644531-57.652344-72.332031-89.753906-22.730469-37.066407-33.8007815-74.460938-33.839844-114.3125.0625-54.75 21.414062-106.171876 60.121094-144.839844 38.707031-38.667969 90.160156-59.964844 144.875-59.964844s106.167968 21.296875 144.878906 59.964844c38.703125 38.664062 60.058594 90.085937 60.117188 144.796875zm0 0" fill="url(#linear0)"/></svg>