<?xml version="1.0" encoding="utf-8"?>
<!-- Generator: Adobe Illustrator 24.0.3, SVG Export Plug-In . SVG Version: 6.00 Build 0)  -->
<svg version="1.1" id="Capa_1" xmlns="http://www.w3.org/2000/svg" xmlns:xlink="http://www.w3.org/1999/xlink" x="0px" y="0px"
	 viewBox="0 0 500 500" style="enable-background:new 0 0 500 500;" xml:space="preserve">
<style type="text/css">
	.st0{fill:#302F42;}
	.st1{opacity:0.1;fill:#B4358A;enable-background:new    ;}
	.st2{fill:#B4358A;}
	.st3{fill:#454153;}
	.st4{fill:#D6D7DB;}
	.st5{opacity:0.1;fill:#020203;enable-background:new    ;}
	.st6{opacity:0.3;fill:#FFFFFF;enable-background:new    ;}
	.st7{fill:#3A3768;}
	.st8{opacity:0.45;fill:#FFFFFF;enable-background:new    ;}
	.st9{fill:url(#SVGID_1_);}
	.st10{fill:#BE6F73;}
	.st11{fill:#3E373A;}
	.st12{fill:#4C4C5C;}
	.st13{opacity:2.000000e-02;fill:#020203;enable-background:new    ;}
	.st14{fill:#E7C7CA;}
	.st15{fill:#C4C8D9;}
	.st16{opacity:0.1;}
	.st17{fill:#020203;}
	.st18{opacity:0.1;fill:none;stroke:#020203;stroke-miterlimit:10;enable-background:new    ;}
	.st19{fill:#FFD13B;}
	.st20{fill:#66627D;}
	.st21{fill:#9E9CB5;}
</style>
<path class="st0" d="M-437.7,794c9.6,2.7,19.7,2.5,29.1-0.8c0.2-0.1,0.4-0.1,0.5-0.2c-2.2-1.7-4.7-3-7.4-3.8c0.2-0.7,0.2-1.4,0-2
	c-0.5-1.7-2.2-2.9-4-2.9h-5.7c-1.8,0-3.4,1.2-4,2.9c-0.2,0.7-0.2,1.4,0,2.1c-2.4,0.7-4.6,1.8-6.6,3.2c-0.4,0.3-0.8,0.6-1.2,0.9
	C-437.1,793.5-437.4,793.7-437.7,794z"/>
<path class="st1" d="M290.8,127.4c-30.9-1.1-60.2-11-88.3-21.9s-55.9-23-86-28.7C97.2,73,75,72.5,59.4,82.8
	c-15,10-19.9,27.2-22.5,43.3c-2,12-3.1,24.7,2.3,36c3.7,7.8,10.4,14.4,14.9,21.9c16,26.1,4.7,58.3-12.6,83.7
	c-8.1,12-17.5,23.4-23.8,36.1s-9.2,27.3-3.7,40.3c5.4,12.9,18.4,22.5,32.4,29.3c28.5,13.8,62,17.8,94.7,20
	c72.4,5,145.2,2.8,217.7,0.7c26.9-0.8,53.8-1.6,80.3-5.8c14.7-2.3,29.8-6,40.5-14.8c13.5-11.2,16.9-30.2,7.8-44.3
	c-15.2-23.6-57.2-29.5-67.9-54.8c-5.8-13.9,0.2-29.5,8.7-42.4c18.2-27.7,48.8-52.1,50.4-83.8c1.1-21.8-13.6-43.6-36.3-53.9
	c-23.8-10.8-56.8-9.5-74.4,8.4C349.9,121.3,318.1,128.3,290.8,127.4z"/>
<polygon class="st2" points="212.5,391.1 49.3,390.3 33.1,352.2 90.4,348.1 80.4,306.4 193.8,291.7 85.2,253.9 94.8,251.7 
	269.4,280.1 259.8,345.2 246.1,381 "/>
<path class="st2" d="M51.8,374.3c0,0,10-1.6,16,5.5c0,0-4.4,3.5-13.9-1.3L51.8,374.3z"/>
<path class="st2" d="M50.7,374.2c0,0-6.4,7.9-3.2,16.6c0,0,5.2-2.1,5.8-12.7L50.7,374.2z"/>
<path class="st2" d="M45,361.3c0,0,4-7.3,20,2.9c0,0-2.1,4.9-9.2,4.5C48.7,368.3,46.9,365.1,45,361.3z"/>
<path class="st2" d="M43.9,360.7c0,0-8.3-1-9.1,18.1c0,0,5.3,1.1,9-4.9C47.6,367.9,46.1,364.5,43.9,360.7z"/>
<path class="st2" d="M39.1,345.6c0,0,4.7-12.9,21.6-3.7c0,0-3.9,11.9-19.9,8.1L39.1,345.6z"/>
<path class="st2" d="M33.9,326.2c0,0,8.8-13.1,24.4-1c0,0-5.5,12.3-23.1,5.6L33.9,326.2z"/>
<path class="st2" d="M32,307.8c0,0,10.3-12,25.7,0c0,0-9.7,10.5-25.7,3.1V307.8z"/>
<path class="st2" d="M30.4,289.9c0,0,10.4-12.5,25.2-0.7c0,0-11.7,11.1-25.2,3.6V289.9z"/>
<path class="st2" d="M31.4,274c0,0,11-16.2,24.8-5.2c0,0-11.7,13.9-24.8,8.3V274z"/>
<path class="st2" d="M33.9,255.4c0,0,11.6-16,25.1-3.7c0,0-13.8,13.9-25.1,6.7V255.4z"/>
<path class="st2" d="M37.8,238.9c0,0,13.8-15.1,25.7-9.1c0,0-14.3,16-26.3,13.1L37.8,238.9z"/>
<path class="st2" d="M42.6,223.1c0,0,15.9-18.4,25.1-12.3c0,0-11.7,14.3-26.2,15.7L42.6,223.1z"/>
<path class="st2" d="M49.5,204.9c0,0,13.9-15.1,24-11.3c0,0-11.9,15.6-25.9,16L49.5,204.9z"/>
<path class="st2" d="M55.8,187.8c0,0,15.4-14.4,22-11.9c0,0-11.1,16-22.7,15.1L55.8,187.8z"/>
<path class="st2" d="M61.9,172.1c0,0,13.2-17.2,20.4-15.9c0,0-8,15.4-20.4,17.6V172.1z"/>
<path class="st2" d="M68.6,150.8c0,0,11.7-13.2,18-13.2c0,0-9.2,17.6-18.5,17.5L68.6,150.8z"/>
<path class="st2" d="M72.5,136.7l11.3-27.5c0,0,0.6,24.9-12.7,32.6L72.5,136.7z"/>
<path class="st2" d="M77.1,106.4c0,0,1.9-23,0.7-24.8c0,0,8.1,19.1-0.7,35L77.1,106.4z"/>
<path class="st2" d="M38.7,345.3c0,0-11.7-7.3-19.3,10.5c0,0,10.4,6.9,20.7-6L38.7,345.3z"/>
<path class="st2" d="M33.5,325.5c0,0-14.4-6.5-21.3,12c0,0,11.1,7.6,22.6-7.3L33.5,325.5z"/>
<path class="st2" d="M31.4,308.9c0,0-10.3-12-25.7,0c0,0,9.7,10.5,25.7,3.1V308.9z"/>
<path class="st2" d="M30.1,289.9c0,0-10.4-12.5-25.2-0.7c0,0,11.7,11.1,25.2,3.6V289.9z"/>
<path class="st2" d="M31.4,274.5c0,0-7.3-18.1-23.2-10.3c0,0,8.6,16,22.5,13.3L31.4,274.5z"/>
<path class="st2" d="M34.8,255.4c0,0-7.3-18.4-23.4-9.9c0,0,9.9,16.9,22.6,12.7L34.8,255.4z"/>
<path class="st2" d="M39.3,238.9c0,0-2.9-20.2-16.2-22c0,0,2.8,21.3,14.4,25.6L39.3,238.9z"/>
<path class="st2" d="M42.9,223.2c0,0-1.1-24.3-12.2-25.2c0,0,0.4,18.5,10.9,28.6L42.9,223.2z"/>
<path class="st2" d="M50.7,204.2c0,0-3.3-20.2-13.8-22.7c0,0,1.3,19.6,12.8,27.7L50.7,204.2z"/>
<path class="st2" d="M57,188c0,0-0.1-21.1-6.5-24.2c0,0-4,19.1,4.7,26.8L57,188z"/>
<path class="st2" d="M62.4,171.8c0,0-0.9-21.7-7.6-24.7c0,0-2.3,17.2,6.6,26.2L62.4,171.8z"/>
<path class="st2" d="M69.5,152.6c0,0,0-17.6-4.8-21.8c0,0-4.7,19.3,2.3,25.3L69.5,152.6z"/>
<path class="st2" d="M72,135.8l-4.6-29.4c0,0-6.3,24.1,4.8,34.7L72,135.8z"/>
<path class="st2" d="M72.9,106.7c0,0-11.9-19.7-11.6-21.9c0,0,1.3,20.7,16.2,31L72.9,106.7z"/>
<path class="st2" d="M74.3,100.8c0,0-11.2-28-16.3-30.3c0,0,16,8.1,17.2,29.5L74.3,100.8z"/>
<path class="st3" d="M68.1,155.3l-0.8-0.2c9.5-30.9,11.8-50.5,6.7-55.5l0.5-0.6C80,104.2,77.8,123.7,68.1,155.3z"/>
<path class="st3" d="M42,227.6l-1.1-0.4c1-2.8,2.1-5.7,3.2-8.5c9.9-24.6,18.3-47.5,23.7-65.1l1-0.5c-5.4,17.6-13.7,41.4-23.6,66.1
	C44.1,221.9,43,224.7,42,227.6z"/>
<path class="st3" d="M65.9,397.4c-0.2-0.2-15.5-17.4-26.2-46.9c-6.3-17.3-9.8-35.4-10.3-53.8c-0.7-22.9,4.1-48.6,12.3-71.8l0.9,1
	c-18.5,52.2-11.2,97-1.4,124c10.6,29.2,25.7,46.3,25.9,46.5L65.9,397.4z"/>
<path class="st4" d="M305.6,360.8c0,0-10.8,13.2-2.2,33.1L217,431.3l-8.3,1.7l-3.8-16.7l2.6-21.1v-11.5L305.6,360.8z"/>
<polygon class="st2" points="33.1,352.2 152.5,330.5 310.8,355.7 212.5,391.1 "/>
<polygon class="st2" points="33.1,352.2 152.5,330.5 310.8,355.7 212.5,391.1 "/>
<path class="st2" d="M33.1,352.2c0,0-11.2,21.2,1.7,40.7l177.1,38.4c0,0-11-16.9,0.6-40.3L33.1,352.2z"/>
<path class="st5" d="M33.1,352.2c0,0-11.2,21.2,1.7,40.7l177.1,38.4c0,0-11-16.9,0.6-40.3L33.1,352.2z"/>
<path class="st5" d="M38.3,359.6c0,0-6.4,15.5,0,25.5"/>
<path class="st2" d="M211.9,431.3l98.9-42.2c0,0,5.5,1.2,2,5.2c-3.6,4.1-98.9,41-98.9,41l-179-42.4L211.9,431.3z"/>
<path class="st5" d="M211.9,431.3l98.9-42.2c0,0,5.5,1.2,2,5.2c-3.6,4.1-98.9,41-98.9,41l-179-42.4L211.9,431.3z"/>
<path class="st5" d="M203.8,395.3c0,0-9.5,11.4,0,28.6"/>
<rect x="206.1" y="402.3" transform="matrix(0.9486 -0.3165 0.3165 0.9486 -115.6299 93.0427)" class="st5" width="45.1" height="0.5"/>
<rect x="205.4" y="403.5" transform="matrix(0.9347 -0.3554 0.3554 0.9347 -128.2808 109.1452)" class="st5" width="54.9" height="0.5"/>
<rect x="205.2" y="405.7" transform="matrix(0.9255 -0.3788 0.3788 0.9255 -136.1082 120.0275)" class="st5" width="63.7" height="0.5"/>
<rect x="205" y="406.6" transform="matrix(0.9113 -0.4117 0.4117 0.9113 -146.0804 135.5477)" class="st5" width="73.3" height="0.5"/>
<rect x="205.4" y="407.6" transform="matrix(0.9163 -0.4005 0.4005 0.9163 -142.8054 132.4574)" class="st5" width="80.2" height="0.5"/>
<rect x="205.9" y="407.9" transform="matrix(0.918 -0.3965 0.3965 0.918 -141.0276 134.1261)" class="st5" width="95.9" height="0.5"/>
<polygon class="st6" points="77.4,354.6 161.3,336.9 212.5,346.7 143.7,368.9 "/>
<path class="st2" d="M310.8,355.7c0,0,4.3,1.7,1.8,4.5s-100.1,30.9-100.1,30.9L310.8,355.7z"/>
<path class="st4" d="M352.9,314.9c0,0-10.8,13.2-2.2,33.1l-86.3,37.4l-8.3,1.7l-3.8-16.7l2.6-21.1V338L352.9,314.9z"/>
<polygon class="st7" points="80.4,306.4 199.8,284.6 358.1,309.8 259.8,345.2 "/>
<path class="st7" d="M80.4,306.4c0,0-11.2,21.2,1.7,40.7l177.1,38.4c0,0-11-16.9,0.6-40.3L80.4,306.4z"/>
<path class="st5" d="M80.4,306.4c0,0-11.2,21.2,1.7,40.7l177.1,38.4c0,0-11-16.9,0.6-40.3l-56-12.1L80.4,306.4z"/>
<path class="st5" d="M85.7,313.7c0,0-6.4,15.5,0,25.5"/>
<path class="st7" d="M259.2,385.5l98.9-42.2c0,0,5.5,1.2,2,5.2c-3.6,4.1-98.9,41-98.9,41l-179-42.4L259.2,385.5z"/>
<path class="st5" d="M259.2,385.5l98.9-42.2c0,0,5.5,1.2,2,5.2c-3.6,4.1-98.9,41-98.9,41l-179-42.4L259.2,385.5z"/>
<path class="st5" d="M251.1,349.5c0,0-9.5,11.4,0,28.6"/>
<rect x="253.4" y="356.4" transform="matrix(0.9486 -0.3165 0.3165 0.9486 -98.6859 105.6686)" class="st5" width="45.1" height="0.5"/>
<rect x="252.8" y="357.6" transform="matrix(0.9347 -0.3554 0.3554 0.9347 -108.8914 122.9802)" class="st5" width="54.9" height="0.5"/>
<rect x="252.5" y="359.8" transform="matrix(0.9255 -0.3788 0.3788 0.9255 -115.2081 134.5431)" class="st5" width="63.7" height="0.5"/>
<rect x="252.3" y="360.8" transform="matrix(0.9113 -0.4117 0.4117 0.9113 -123.0035 150.9728)" class="st5" width="73.3" height="0.5"/>
<rect x="252.7" y="361.8" transform="matrix(0.9163 -0.4005 0.4005 0.9163 -120.4735 147.5782)" class="st5" width="80.2" height="0.5"/>
<rect x="253.3" y="362.1" transform="matrix(0.918 -0.3965 0.3965 0.918 -118.9614 149.1387)" class="st5" width="95.9" height="0.5"/>
<polygon class="st8" points="124.8,308.7 208.7,291.1 259.8,300.8 191,323 "/>
<path class="st7" d="M358.1,309.8c0,0,4.3,1.7,1.8,4.4s-100.1,30.9-100.1,30.9L358.1,309.8z"/>
<path class="st4" d="M357.4,262.4c0,0-10.8,23.7-2.2,43.6L268.9,333l-8.3,1.7l-3.8-16.7l2.6-21.1v-11.5L357.4,262.4z"/>
<polygon class="st2" points="84.9,253.9 204.3,232.2 362.6,257.4 264.3,292.8 "/>
<path class="st2" d="M84.9,253.9c0,0-11.2,21.2,1.7,40.7L263.7,333c0,0-11-16.9,0.6-40.3L84.9,253.9z"/>
<path class="st5" d="M84.9,253.9c0,0-11.2,21.2,1.7,40.7L263.7,333c0,0-11-16.9,0.6-40.3L84.9,253.9z"/>
<path class="st5" d="M90.2,261.3c0,0-6.4,15.5,0,25.5"/>
<path class="st2" d="M263.7,333l98.9-31.7c0,0,5.5,1.2,2,5.2c-3.6,4.1-98.9,30.5-98.9,30.5l-179-42.4L263.7,333z"/>
<path class="st5" d="M263.7,333l98.9-31.7c0,0,5.5,1.2,2,5.2c-3.6,4.1-98.9,30.5-98.9,30.5l-179-42.4L263.7,333z"/>
<path class="st5" d="M255.6,297c0,0-9.5,11.4,0,28.6"/>
<rect x="257.9" y="303.9" transform="matrix(0.9486 -0.3165 0.3165 0.9486 -81.8522 104.397)" class="st5" width="45.1" height="0.5"/>
<rect x="257.3" y="305.2" transform="matrix(0.9347 -0.3554 0.3554 0.9347 -89.9526 121.1538)" class="st5" width="54.9" height="0.5"/>
<rect x="257" y="307.4" transform="matrix(0.9255 -0.3788 0.3788 0.9255 -95.0026 132.3363)" class="st5" width="63.7" height="0.5"/>
<rect x="256.8" y="308.3" transform="matrix(0.9113 -0.4117 0.4117 0.9113 -101.0084 148.1742)" class="st5" width="73.3" height="0.5"/>
<rect x="257.2" y="309.3" transform="matrix(0.9163 -0.4005 0.4005 0.9163 -99.088 144.991)" class="st5" width="80.2" height="0.5"/>
<rect x="257.8" y="309.6" transform="matrix(0.918 -0.3965 0.3965 0.918 -97.7949 146.6243)" class="st5" width="95.9" height="0.5"/>
<polygon class="st6" points="129.3,256.3 213.2,238.6 264.3,248.4 195.5,270.6 "/>
<path class="st2" d="M362.6,257.4c0,0,4.3,1.7,1.8,4.5c-2.5,2.7-100.1,30.9-100.1,30.9L362.6,257.4z"/>
<path class="st2" d="M152.8,112.6c0,0-18.1-1.1-16,11.6c0,0-0.4,2.2,1.6,3.3c0,0,0-1,1.9-0.6c0.7,0.1,1.3,0.1,2,0.1
	c0.9-0.1,1.7-0.4,2.4-1l0,0c0,0,5.1-2.1,7.1-10.4c0,0,1.5-1.8,1.4-2.3l-3.1,1.3c0,0,1,2.2,0.2,4c0,0-0.1-4-0.7-3.9
	c-0.1,0-1.6,0.8-1.6,0.8s1.8,3.8,0.4,6.6c0,0,0.5-4.7-1-6.4l-2.2,1.3c0,0,2.1,4,0.7,7.2c0,0,0.4-5-1.1-6.9l-2,1.5c0,0,2,3.9,0.8,6.6
	c0,0-0.2-5.8-1.2-6.2c0,0-1.7,1.5-2,2.1c0,0,1.4,2.9,0.5,4.3c0,0-0.5-3.9-1-3.9c0,0-1.7,2.6-1.9,4.3c0.1-1.6,0.6-3.2,1.5-4.5
	c-1,0.2-1.9,0.7-2.6,1.3c0,0,0.3-1.8,3-2c0,0,1.4-1.9,1.8-2.1c0,0-2.8-0.2-4.4,0.5c0,0,1.5-1.7,4.9-1l1.9-1.6c0,0-3.6-0.5-5.1,0.1
	c0,0,1.8-1.5,5.7-0.4l2.1-1.3c0,0-3.1-0.7-4.9-0.4c0,0,1.9-1,5.5,0.1l1.5-0.7c0,0-2.3-0.4-2.9-0.5s-0.7-0.3-0.7-0.3
	c1.4-0.2,2.9-0.1,4.2,0.5C149.7,114,152.9,112.8,152.8,112.6z"/>
<path class="st1" d="M407.7,164.9c0,0-18.1-1.1-16,11.6c0,0-0.4,2.2,1.6,3.3c0,0,0-1,1.9-0.6c0.7,0.1,1.3,0.1,2,0.1
	c0.9-0.1,1.7-0.4,2.4-1l0,0c0,0,5.1-2.1,7.1-10.4c0,0,1.5-1.8,1.4-2.3l-3.1,1.3c0,0,1,2.2,0.2,4c0,0-0.1-4-0.7-3.9
	c-0.1,0-1.6,0.8-1.6,0.8s1.8,3.8,0.4,6.6c0,0,0.5-4.7-1-6.4l-2.2,1.3c0,0,2.1,4,0.7,7.2c0,0,0.4-5-1.1-6.9l-2,1.5c0,0,2,3.9,0.8,6.6
	c0,0-0.2-5.8-1.2-6.2c0,0-1.7,1.5-2,2.1c0,0,1.4,2.9,0.5,4.3c0,0-0.5-3.9-1-3.9c0,0-1.7,2.6-1.9,4.3c0.1-1.6,0.6-3.2,1.5-4.5
	c-1,0.2-1.9,0.7-2.6,1.3c0,0,0.3-1.8,3-2c0,0,1.4-1.9,1.8-2.1c0,0-2.7-0.2-4.4,0.5c0,0,1.5-1.7,4.9-1l1.9-1.6c0,0-3.6-0.5-5.1,0.1
	c0,0,1.8-1.5,5.7-0.4l2.1-1.3c0,0-3.1-0.7-4.9-0.4c0,0,1.9-1,5.5,0.1l1.5-0.7c0,0-2.3-0.4-2.9-0.5c-0.7-0.1-0.7-0.3-0.7-0.3
	c1.4-0.2,2.9-0.1,4.2,0.5C404.6,166.2,407.8,165.1,407.7,164.9z"/>
<path class="st1" d="M183.4,191.2c0,0-7.9-16.4-17.9-8.3c0,0-2.2,0.7-2.1,3c0,0,0.8-0.4,1.4,1.3c0.2,0.6,0.5,1.2,0.9,1.8
	c0.5,0.7,1.2,1.3,2,1.6l0,0c0,0,4.3,3.4,12.6,1.1c0,0,2.3,0.4,2.7,0.1l-2.6-2c0,0-1.4,2-3.4,2.2c0,0,3.4-2,3-2.5
	c-0.1-0.1-1.4-1-1.4-1s-2.5,3.4-5.6,3.6c0,0,4.4-1.9,5.1-4l-2.1-1.3c0,0-2.4,3.8-6,4.1c0,0,4.5-2.1,5.5-4.4l-2.3-1
	c0,0-2.5,3.6-5.4,3.9c0,0,5-3,4.9-4.1c0,0-2.2-0.8-2.8-0.7c0,0-1.8,2.6-3.5,2.6c0,0,3.1-2.3,2.9-2.7c0,0-3.1-0.2-4.7,0.5
	c1.5-0.7,3.1-1.1,4.7-1c-0.6-0.8-1.5-1.3-2.5-1.6c0,0,1.7-0.6,3.2,1.7c0,0,2.4,0.3,2.7,0.6c0,0-1.1-2.5-2.6-3.6c0,0,2.2,0.4,3.2,3.8
	l2.3,0.9c0,0-1.3-3.4-2.6-4.5c0,0,2.2,0.8,3.1,4.8l2.1,1.2c0,0-0.9-3-2-4.5c0,0,1.9,1.2,2.6,4.9l1.3,1c0,0-0.7-2.2-1-2.8
	c-0.2-0.6-0.1-0.7-0.1-0.7c0.9,1.1,1.5,2.5,1.7,3.9C180.6,189.1,183.2,191.3,183.4,191.2z"/>
<path class="st1" d="M366.3,141.8c0,0-7.9-16.4-17.9-8.3c0,0-2.2,0.7-2.1,3c0,0,0.8-0.4,1.4,1.3c0.2,0.6,0.5,1.2,0.9,1.8
	c0.5,0.7,1.2,1.3,2,1.6l0,0c0,0,4.3,3.4,12.6,1.1c0,0,2.3,0.4,2.7,0.1l-2.6-2c0,0-1.4,2-3.4,2.2c0,0,3.4-2,3-2.5
	c-0.1-0.1-1.4-1-1.4-1s-2.5,3.4-5.6,3.6c0,0,4.4-1.9,5.1-4l-2.2-1.3c0,0-2.4,3.8-6,4.1c0,0,4.5-2.1,5.5-4.4l-2.3-1
	c0,0-2.5,3.6-5.4,3.9c0,0,5-3,4.8-4.1c0,0-2.1-0.8-2.8-0.7c0,0-1.8,2.6-3.5,2.6c0,0,3.1-2.3,2.9-2.7c0,0-3.1-0.2-4.7,0.5
	c1.5-0.7,3.1-1.1,4.7-1c-0.6-0.8-1.5-1.3-2.4-1.6c0,0,1.7-0.6,3.2,1.7c0,0,2.4,0.3,2.7,0.6c0,0-1.1-2.5-2.6-3.6c0,0,2.2,0.4,3.2,3.8
	l2.3,0.9c0,0-1.3-3.4-2.6-4.5c0,0,2.2,0.8,3.1,4.8l2.1,1.2c0,0-0.9-3-2-4.5c0,0,1.9,1.2,2.6,4.9l1.3,1c0,0-0.7-2.2-1-2.8
	c-0.2-0.6-0.1-0.7-0.1-0.7c0.9,1.1,1.5,2.5,1.7,3.9C363.6,139.7,366.2,141.9,366.3,141.8z"/>
<path class="st1" d="M391.6,222.7c0,0-7.9-16.4-18-8.3c0,0-2.2,0.7-2.1,3c0,0,0.8-0.4,1.4,1.3c0.2,0.6,0.5,1.2,0.9,1.8
	c0.5,0.7,1.2,1.3,2,1.6l0,0c0,0,4.3,3.4,12.6,1.1c0,0,2.3,0.4,2.7,0.1l-2.6-2c0,0-1.4,2-3.4,2.2c0,0,3.4-2,3-2.5
	c-0.1-0.1-1.4-1-1.4-1s-2.5,3.4-5.6,3.6c0,0,4.4-1.9,5.1-4l-2.2-1.3c0,0-2.4,3.8-6,4.1c0,0,4.5-2.1,5.5-4.4l-2.3-1
	c0,0-2.5,3.6-5.4,3.9c0,0,5-3,4.9-4.1c0,0-2.2-0.8-2.8-0.7c0,0-1.8,2.6-3.5,2.6c0,0,3.1-2.3,2.9-2.7c0,0-3.1-0.2-4.7,0.5
	c1.5-0.7,3.1-1.1,4.7-1c-0.6-0.8-1.5-1.3-2.5-1.6c0,0,1.7-0.7,3.2,1.7c0,0,2.4,0.3,2.7,0.6c0,0-1.1-2.5-2.6-3.6c0,0,2.2,0.4,3.2,3.8
	l2.3,0.9c0,0-1.3-3.4-2.6-4.5c0,0,2.2,0.8,3.1,4.8l2.1,1.2c0,0-0.9-3-2-4.5c0,0,1.9,1.2,2.6,4.9l1.3,1c0,0-0.7-2.2-1-2.8
	c-0.2-0.6-0.1-0.7-0.1-0.7c0.9,1.1,1.5,2.5,1.7,3.9C388.8,220.7,391.4,222.9,391.6,222.7z"/>
<ellipse class="st1" cx="29.3" cy="413.7" rx="11" ry="1.2"/>
<ellipse class="st1" cx="436.6" cy="418.2" rx="11" ry="1.2"/>
<ellipse class="st1" cx="345.4" cy="412.3" rx="11" ry="1.2"/>
<path class="st2" d="M292.1,417.9c0,0-18.1,9.3-8.7,20.3c0,0,0.9,2.4,3.4,2.2c0,0-0.5-0.9,1.4-1.7c0.7-0.3,1.3-0.6,1.9-1
	c0.8-0.6,1.4-1.4,1.7-2.3l0,0c0,0,3.7-4.9,0.8-14.1c0,0,0.4-2.6,0-3l-2.2,3c0,0,2.3,1.5,2.5,3.8c0,0-2.4-3.8-2.9-3.3
	c-0.1,0.1-1.1,1.6-1.1,1.6s3.9,2.7,4.2,6.1c0,0-2.2-4.8-4.6-5.5l-1.4,2.4c0,0,4.3,2.6,4.8,6.5c0,0-2.5-5-5-6l-1,2.6
	c0,0,4.1,2.6,4.5,5.9c0,0-3.5-5.5-4.7-5.3c0,0-0.8,2.4-0.7,3.2c0,0,2.9,2,3,3.9c0,0-2.7-3.4-3.1-3.2c0,0-0.2,3.4,0.7,5.2
	c0,0-1.4-2.5-1.2-5.2c-0.8,0.7-1.4,1.7-1.7,2.8c0,0-0.8-1.9,1.8-3.6c0,0,0.2-2.7,0.5-3c0,0-2.8,1.4-3.9,3c0,0,0.4-2.5,4.2-3.7l1-2.6
	c0,0-3.8,1.6-4.9,3c0,0,0.8-2.5,5.2-3.6l1.3-2.4c0,0-3.3,1.1-5,2.4c0,0,1.3-2.1,5.4-3.1l1.1-1.5c0,0-2.4,0.9-3.1,1.2
	c-0.7,0.3-0.8,0.2-0.8,0.2c1.2-1,2.7-1.7,4.3-2C289.9,421,292.3,418,292.1,417.9z"/>
<linearGradient id="SVGID_1_" gradientUnits="userSpaceOnUse" x1="354.0515" y1="157.4354" x2="354.0515" y2="396.7172" gradientTransform="matrix(1 0 0 -1 -88.58 458.58)">
	<stop  offset="0" style="stop-color:#808181;stop-opacity:0.25"/>
	<stop  offset="0.54" style="stop-color:#808181;stop-opacity:0.12"/>
	<stop  offset="1" style="stop-color:#808181;stop-opacity:0.1"/>
</linearGradient>
<path class="st9" d="M345.7,241.7c-3.1-8.5-20.3-9.3-27.7-7.1c-5.3,1.5-16.4,3.3-22.4,4.1l-0.4-0.4c0.8-0.2,0.8-0.8,0.7-1.6
	c-0.1-1.1,0-2.2,0-3.3c3.7,1.1,6.9-1.5,6.9-1.5l0,0c4.3-1.9,3.1-10.1,4-12.3c0.6-1.7,1.3-11.5,1.6-16.4h0.1l0-1.6
	c0-0.7,0.1-1.1,0.1-1.1s0.4-12,1.2-14.4c0.8-2.2,1.4-13.5,1.5-15.3c0-0.2,0-0.2,0-0.2l-0.1-1c0-0.8,0.1-1.6,0.1-2.5
	c0-4.1-0.4-9.2-0.5-10c0-0.1,0-0.3,0-0.4c0-1.7-0.2-10.5-7.6-13.8c-2.7-1.2-6-2.7-9.2-4.1c-0.8-7.1-2.7-14.1-2.5-21.3
	c0-1.1,0.1-2.1,0.2-3.2c0,0.3,0,0.6,0,1c0,0.7,0,1.4,0,2.1c0.3-8.9,3.7-17.9,3.3-26.6c0,0.9-0.1,1.7-0.2,2.6c0.2-3-0.1-5.9-0.9-8.8
	c-0.3-1-0.7-2-1.5-2.7c-0.8-0.5-1.7-0.9-2.6-1c-2.3-0.6-4.5-1-6.9-1.3c-0.4-1.1-0.9-2.1-1.5-3c-4.8-6.6-12-12.9-20.5-14.3
	c-4.2-0.7-9.1-0.1-12,2.9c-0.3,0.3-0.6,0.6-0.8,0.9c-1.6,1.9-2.2,4.3-3.8,6.1c-0.1,0.1-0.2,0.2-0.3,0.4c-3.1,2.8-8,3.4-11.4,5.9
	c-0.6,0.4-1.2,0.9-1.7,1.5c-1.4,1.4-2.6,2.9-3.7,4.5c-1.6,2.2-3.2,4.5-3.7,7.1c-1,5.2,2.6,10.2,3.2,15.5
	c1.5,11.8-11.6,22.3-9.1,33.9c0.7,2.9,2.1,5.5,4.2,7.5c-5.1,4.6-9.4,9.1-9.4,9.1v0.3h-0.8l0.1,1h-0.1l0.4,5.2l-0.4,7.5
	c0,0,0,0.1,0,0.2v0v0.2c0,0,0,0.1,0,0.2h0c0.1,2.8,0.7,12.7,1.4,14.8c0.8,2.4,1.2,14.4,1.2,14.4s0.9,16.9,1.7,19.2s-0.3,10.4,4,12.3
	l0,0c1.3,1,2.8,1.6,4.3,1.8c-0.2,1.8-0.1,3.1,0.6,3.5c0.3,0.2,0.6,0.3,1,0.3c-0.3,0.4-0.6,0.9-0.8,1.4c-1.7-0.2-3.4-0.6-5-1.2
	c-4.6-1.9-20-6.2-24.4-3.2c-4.5,3-15.2,5.8-10.2,17.9c5,12.1,7.3,12.5,7.3,12.5c1.5,1.1,2.9,2.5,4,4c1.5,2.2,15.3,7.4,18.8,7.4
	c1.5,0,2.9,0.1,4.4,0.2c0,0-3.8,3.3-3.3,5.2c0.5,1.9-1.1,17.3-1.1,17.3s3.8,3.8,5.4-1.2l0.1,0.1c0.3,0.4,2,2.3,5.1-0.1
	c1.3-1,2.6-1.8,4-2.6l15-2.1c1.6-0.1,3.1-0.1,4.7,0c2.4,0.2,4.7-1.2,6.2-2.3c3.1,1.2,6.6,2.5,8.3,2.9c3.4,1,18.9,5.1,22.5,3.8
	c0.8-0.3,1.4-0.8,2-1.4l3.5,0.1l-1.6,0.3c0,0,3.2,0.1,7.4,0.1l-0.2,0.1l5.4,0c7.9,0.1,16.7,0.1,17.9-0.2c1.8-0.4,11.3-0.1,14.1,0
	h0.8c0,0,10.4-2.1,6.1-12.6c-3.3-8.1-13.4-10.5-17.9-11.1c1.3-0.3,2.4-0.4,3.1-0.6c3.1-0.5,9.2-3.3,9.7-4.3c0.5-1,5.6-3.8,6.9-5.4
	C345.1,261.7,348.9,250.2,345.7,241.7z M259.6,265.4l-0.5,0.2l-0.3,0.1l-0.7,0.6c-0.5-0.4-1.1-0.7-1.7-1.1
	C257.4,265.3,258.5,265.4,259.6,265.4z M305,278.9L305,278.9z"/>
<path class="st10" d="M290,215.2c0,0,7.3,19.1,11.4,17.2s3-10,3.8-12.2c0.8-2.2,1.7-19.1,1.7-19.1s0.4-11.9,1.2-14.3
	c0.7-2.2,1.3-13.4,1.4-15.2c0-0.2,0-0.2,0-0.2l-0.8-13.8l-4.5-1.1l-10.3,3.8l-1.4,8.2l-0.6,3.2l-0.2,1.4L290,215.2z"/>
<path class="st5" d="M292.4,212c0,0,7,5.7,9.1,6.2c2.1,0.5,3.4,4.9,3.4,4.9"/>
<path class="st10" d="M232.9,216c0,0-7.3,19.1-11.4,17.2s-3-10-3.8-12.2c-0.8-2.2-1.7-19.1-1.7-19.1s-0.4-11.9-1.2-14.3
	c-0.7-2.2-1.3-13.4-1.4-15.2c0-0.2,0-0.2,0-0.2l0.8-13.8l4.5-1.1L229,161l1.4,8.2l0.6,3.2l0.2,1.4L232.9,216z"/>
<rect x="264.2" y="114" class="st11" width="16.3" height="25.4"/>
<rect x="264.2" y="114" class="st5" width="16.3" height="25.4"/>
<path class="st12" d="M230.1,235c0,0-5.6,6.1-3.5,7.2c2.1,1.1,15.4,21.9,15.4,21.9s43.9,5.4,52.1-2.7c8.3-8.1,8.1-22.6,8.1-22.6
	s-6.6,1.4-7.4,0.7c-0.7-0.8-4.7-4.5-4.7-4.5S233.9,231.6,230.1,235z"/>
<path class="st13" d="M230.1,235c0,0-5.6,6.1-3.5,7.2c2.1,1.1,15.4,21.9,15.4,21.9s43.9,5.4,52.1-2.7c8.3-8.1,8.1-22.6,8.1-22.6
	s-6.6,1.4-7.4,0.7c-0.7-0.8-4.7-4.5-4.7-4.5S233.9,231.6,230.1,235z"/>
<path class="st10" d="M309,157.7l-14.3,11.4l-4.3,0.3l-1.6,0.1l-26.7,2l-27.7-2l-4.1-0.3l-5.2-0.4l-11-10.5c0,0,7.8-8.3,14.6-13.9
	c2.7-2.2,5.2-4,7.1-4.7l0.3-0.1c1.2-0.5,2.2-1.2,3-2.1c5.4-5.5,10.3-19.2,10.3-19.2s23.7-12.2,20.8,3.8c-2.9,16,10.6,12.1,10.6,12.1
	l4.5,2l1.8,0.8l4.5,2.1l10.1,4.6C309.7,147.4,309,157.7,309,157.7z"/>
<circle class="st5" cx="261.1" cy="110" r="21.3"/>
<path class="st5" d="M309.1,172.9h-95.7c0-0.2,0-0.2,0-0.2l0.8-13.8c0,0,7.8-8.3,14.6-13.9l60.1-2.4l2.8-2.9l10.1,4.6
	c7.9,3.7,7.3,14,7.3,14S310.1,170.1,309.1,172.9z"/>
<path class="st14" d="M309.1,172.4h-95.7c0-0.2,0-0.2,0-0.2l0.8-13.8c0,0,7.8-8.3,14.6-13.9l60.1-2.4l2.8-2.9l10.1,4.6
	c7.9,3.7,7.3,14,7.3,14S310.1,169.7,309.1,172.4z"/>
<path class="st5" d="M245.7,133.6c0,0,15.1,19.2,35.2-0.4s2.2,43.8,2.2,43.8l-43.4,5.1L245.7,133.6z"/>
<path class="st14" d="M245.7,134.6c0,0,15.1,19.2,35.2-0.4c20.1-19.6,2.2,43.8,2.2,43.8l-43.4,5.1L245.7,134.6z"/>
<path class="st5" d="M287.1,137.9l1.6,24.4l1.7,8.1l1.3,6.2c0,0,3.3,47.7,2.4,50.1c-1,2.4,0.5,4.3,0.7,5.6s-0.2,4.5,0,5.9
	c0.2,1.4,0,2.1-3.7,1.6s-8.7-1.4-8.7-1.4s-12.9,1-17.3-0.6c-4.4-1.6-12.9-1.6-12.9-1.6s-12.7,0.3-16.8-0.2c-4.1-0.5-6.4,5.1-9.1,3.5
	c-2.7-1.6,3.2-17,5.1-21.5c1.9-4.5-2.5-15.7-2.5-15.7l5.7-31.7l1.3-7.2v-22.6l0.3-0.1c1.2-0.5,2.2-1.2,3-2.1l1.4,22.8l44.8,1.6
	v-25.6"/>
<path class="st14" d="M287.1,137l1.6,24.4l1.7,8.1l1.3,6.2c0,0,3.3,47.7,2.4,50.1c-1,2.4,0.5,4.3,0.7,5.6c0.2,1.3-0.2,4.5,0,5.9
	c0.2,1.4,0,2.1-3.7,1.6s-8.7-1.4-8.7-1.4s-12.9,1-17.3-0.6c-4.4-1.6-12.9-1.6-12.9-1.6s-12.7,0.3-16.8-0.2c-4.1-0.5-6.4,5.1-9.1,3.5
	c-2.7-1.6,3.2-17,5.1-21.5c1.9-4.5-2.5-15.7-2.5-15.7l5.7-31.7l1.3-7.2v-22.6l0.3-0.1c1.2-0.5,2.2-1.2,3-2.1l1.4,22.8l44.8,1.6
	v-25.6"/>
<path class="st5" d="M292.3,86.2c-0.3-1-0.6-2-1.4-2.7c-0.7-0.5-1.6-0.9-2.5-1c-2.2-0.6-4.4-1-6.6-1.3c-0.3-1.1-0.8-2.1-1.4-3
	c-4.7-6.6-11.6-12.8-19.7-14.2c-4.3-0.7-9.2-0.1-11.9,3.3c-1.5,1.8-2.1,4.3-3.7,6.1c-2.9,3.5-8.2,4-11.8,6.7c-2,1.4-3.4,3.5-4.8,5.5
	c-1.5,2.2-3,4.4-3.5,7.1c-1,5.2,2.5,10.2,3.1,15.4c1.4,11.7-11.2,22.2-8.8,33.7c1.4,6.8,7.6,11.5,14.1,13.9c2.3,0.9,4.9,1.7,5.9,3.9
	c0.5,1,0.6,2.1,1,3c1.5,3.2,6.5,3.3,9.1,1c2.7-2.3,3.5-6.1,3.8-9.7c1.3-15.4-4.9-30.7-4.2-46.1c0.2-4.7,1.5-10,5.7-12.1
	c5.6-2.9,12.4,1.9,18.6,1c2.9,7.1,3.6,15,1.8,22.6c-1,4.1-2.7,8.1-2.8,12.3c-0.2,6.5,3.3,12.4,6.3,18.1c0.6,1.1,1.1,2.3,1.3,3.5
	c0,1.3-0.2,2.5-0.7,3.6c-1.7,4.6-4.6,8.8-5,13.7c-0.1,0.6,0,1.2,0.4,1.6c0.3,0.3,0.8,0.5,1.2,0.6c5.1,0.9,9.6-3.7,12.1-8.3
	c2.8-5.1,4.4-10.7,4.8-16.5c0.5-9.7-3-19.3-2.7-29C290.2,107.9,295.2,96.8,292.3,86.2z"/>
<path class="st11" d="M292.8,85.7c-0.3-1-0.6-2-1.4-2.7c-0.7-0.5-1.6-0.9-2.5-1c-2.2-0.6-4.4-1-6.6-1.3c-0.3-1.1-0.8-2.1-1.4-3
	c-4.7-6.6-11.6-12.8-19.7-14.2c-4.3-0.7-9.2-0.1-11.9,3.3c-1.5,1.8-2.1,4.3-3.7,6.1c-2.9,3.5-8.2,4-11.8,6.7c-2,1.4-3.4,3.5-4.8,5.5
	c-1.5,2.2-3,4.4-3.5,7.1c-1,5.2,2.5,10.2,3.1,15.4c1.4,11.7-11.2,22.2-8.8,33.7c1.4,6.8,7.6,11.5,14.1,13.9c2.3,0.9,4.9,1.7,5.9,3.9
	c0.5,1,0.6,2.1,1,3c1.5,3.2,6.5,3.3,9.1,1c2.7-2.3,3.5-6.1,3.8-9.7c1.3-15.4-4.9-30.7-4.2-46.1c0.2-4.7,1.5-10,5.7-12.1
	c5.6-2.9,12.4,1.9,18.6,1c2.9,7.1,3.6,15,1.8,22.6c-1,4.1-2.7,8.1-2.8,12.3c-0.2,6.5,3.3,12.4,6.3,18.1c0.6,1.1,1.1,2.3,1.3,3.5
	c0,1.3-0.2,2.5-0.7,3.6c-1.7,4.6-4.6,8.8-5,13.7c-0.1,0.6,0,1.2,0.4,1.6c0.3,0.3,0.8,0.5,1.2,0.6c5.1,0.9,9.6-3.7,12.1-8.3
	c2.8-5.1,4.4-10.7,4.8-16.5c0.5-9.7-3-19.3-2.7-29C290.7,107.5,295.7,96.3,292.8,85.7z"/>
<polygon class="st15" points="282.2,296.8 301.1,297.4 298.4,283.4 283.9,284.7 "/>
<path class="st12" d="M340.8,263.5c-1.3,1.6-6.2,4.4-6.7,5.4c-0.5,1-6.4,3.8-9.4,4.3c-3,0.5-12.6,2.5-14.3,3.7
	c-1.3,0.8-11.3,3.3-17.9,4.7c-1.8,0.4-3.6,0.8-5.4,1c-2.9,0.2-34.2-10.5-34.2-10.5l6-6.2l0.3-0.1c1.7-0.6,9.6-3.2,14-4.5
	c4.9-1.4,10.7-7.3,10.7-7.3s8.4-2.9,9.5-3.2s-2.9-11.1-2.9-11.1s18.3-2.5,25.4-4.7c7.2-2.2,23.7-1.4,26.7,7.1
	C345.8,250.5,342.1,261.9,340.8,263.5z"/>
<path class="st14" d="M257.6,290.4c0,0-3.7,3.8-7.3,3.5c-3.7-0.3-16.4,1-16.4,1c-2.3,0.9-4.5,2.2-6.4,3.7c-3,2.4-4.6,0.5-4.9,0.1
	l-0.1-0.1c-1.6,5-5.2,1.2-5.2,1.2s1.6-15.3,1.1-17.2s3.1-5.2,3.1-5.2l4.3-1.1l10.9-2.8l15.6,5.4L257.6,290.4z"/>
<path class="st5" d="M225.7,276.3l-3.2,22.3l-0.1-0.1c-1.6,5-5.2,1.2-5.2,1.2s1.6-15.3,1.1-17.2s3.1-5.2,3.1-5.2L225.7,276.3z"/>
<path class="st5" d="M248.2,212.8c0,0,8.4,2.9,15.7,0"/>
<path class="st5" d="M276.9,218.2c0,0,3.5,1.7,6.2,0"/>
<path class="st5" d="M276.9,222.4c0,0,5.9,0.8,7-0.8"/>
<path class="st5" d="M275,231.3c0,0,11-1.4,13.8-3.3"/>
<path class="st5" d="M241.3,227.9c0,0,6.2,3.5,10.8,3.3"/>
<path class="st5" d="M292.5,281.6c-1.8,0.4-3.6,0.8-5.4,1c-2.9,0.2-34.2-10.5-34.2-10.5l6-6.2l0.3-0.1c1,0.7,1.7,1.2,2.3,1.7
	c2.6,2.1,5.2-0.6,6.1-0.6c1,0,9.2,6.8,9.2,6.8s7.6,1.7,8.9,3.3c1.3,1.6,5.7,1.3,6.5,2.4C292.6,279.8,292.6,280.6,292.5,281.6z"/>
<path class="st12" d="M233.8,240.3c0,0-7.7,0.4-12.2-1.4c-4.4-1.9-19.2-6.2-23.5-3.2c-4.3,3-14.6,5.7-9.9,17.8s7,12.4,7,12.4
	c1.5,1.1,2.8,2.4,3.8,4c1.4,2.2,14.8,7.3,18.1,7.3c3.3,0,9.2,0,17.5,5.7s15.7,6.4,15.7,6.4s10.5,4.3,13.8,5.2
	c3.3,1,18.2,5.1,21.7,3.8c3.5-1.3,5.7-9.2,5.7-9.2s1.6-7.2,0.8-8.3c-0.8-1.1-5.2-0.8-6.5-2.4c-1.3-1.6-8.9-3.3-8.9-3.3
	s-8.2-6.8-9.2-6.8c-1,0-3.5,2.7-6.1,0.6c-5.2-3.9-10.7-7.4-16.5-10.5C239.1,255.3,233.8,240.3,233.8,240.3z"/>
<path class="st5" d="M218.3,244.9c2.8-0.6,5.7,0.2,7.8,2.1c3.8,3.2,16.6,9.6,16.6,9.6"/>
<path class="st5" d="M313.7,244.7c0,0-17,2.6-20.2,6.1"/>
<path class="st14" d="M333.2,297.4h-0.7c-2.7-0.1-11.8-0.4-13.6,0c-2.1,0.5-29.4,0-29.4,0l5.3-1.1c0,0-2-7-0.7-7.5
	c0,0-7.2-4.7-1.8-7.9c5.4-3.2,11.2-1.8,11.2-1.8l13.5-4.6l2.6-0.9c0,0,15.3,0.8,19.4,11.3C343.2,295.3,333.2,297.4,333.2,297.4z"/>
<path class="st5" d="M333.2,297.4h-0.7c4.4-3.7,14.5-14.8-15.4-22.9l2.6-0.9c0,0,15.3,0.8,19.4,11.3
	C343.2,295.3,333.2,297.4,333.2,297.4z"/>
<circle class="st12" cx="305.2" cy="284.2" r="0.8"/>
<circle class="st12" cx="300.3" cy="285.6" r="0.8"/>
<g class="st16">
	<path class="st17" d="M276.7,109.3c0.2-5.2-0.7-10.5-2.7-15.3c-6.2,0.9-13-3.9-18.6-1c-4.2,2.1-5.5,7.4-5.7,12.1
		c-0.1,1.2-0.1,2.5,0,3.7c0-0.4,0-0.9,0-1.3c0.2-4.7,1.5-10,5.7-12.1c5.6-2.9,12.4,1.9,18.6,1C275.6,100.4,276.6,104.8,276.7,109.3z
		"/>
	<path class="st17" d="M228.7,108.4c0.1-1,0.1-2.1-0.1-3.1c-0.5-4.2-2.8-8.2-3.2-12.3c-0.5,4.9,2.6,9.7,3.2,14.7
		C228.7,107.9,228.7,108.1,228.7,108.4z"/>
	<path class="st17" d="M253.8,151.2c-0.3,3.5-1.1,7.3-3.8,9.7s-7.6,2.2-9.1-1c-0.5-1-0.5-2.1-1-3c-1.1-2.2-3.7-3-5.9-3.9
		c-6.5-2.4-12.7-7.2-14.1-13.9c-0.1-0.6-0.2-1.2-0.3-1.9c-0.1,1.4,0,2.8,0.3,4.2c1.4,6.8,7.6,11.5,14.1,13.9
		c2.3,0.9,4.9,1.7,5.9,3.9c0.5,1,0.6,2.1,1,3c1.5,3.2,6.5,3.3,9.1,1c2.7-2.3,3.5-6.1,3.8-9.7c0.1-1.9,0.2-3.7,0.1-5.6
		C253.9,149,253.9,150.1,253.8,151.2z"/>
	<path class="st17" d="M290.6,116.2c0,0.7,0,1.4,0,2.1c0.3-8.9,3.5-17.8,3.2-26.5C293.6,99.9,290.8,108.1,290.6,116.2z"/>
	<path class="st17" d="M280.4,152.1c0.1-0.6,0.2-1.1,0.1-1.7c-0.2-1.2-0.6-2.4-1.3-3.5c-2.8-5.2-5.9-10.6-6.3-16.4
		c0,0.2,0,0.5,0,0.7c-0.2,6.5,3.3,12.4,6.3,18.1C279.7,150.2,280.1,151.1,280.4,152.1z"/>
	<path class="st17" d="M293.3,145.2c-0.4,5.8-2,11.4-4.8,16.5c-2.5,4.6-7,9.1-12.1,8.3c-0.5,0-0.9-0.2-1.2-0.6
		c-0.1-0.1-0.2-0.2-0.2-0.4c-0.1,0.4-0.1,0.7-0.1,1.1c-0.1,0.6,0,1.2,0.4,1.6c0.3,0.3,0.8,0.5,1.2,0.6c5.2,0.9,9.6-3.7,12.1-8.3
		c2.8-5.1,4.5-10.7,4.8-16.5c0.1-1.1,0.1-2.2,0-3.3C293.4,144.6,293.4,144.9,293.3,145.2z"/>
</g>
<path class="st18" d="M294.1,288.7c0,0,12.1,5.1,20-6.1"/>
<path class="st18" d="M296.5,297.6c0,0,9.9-6.4,22.4-0.2"/>
<path class="st18" d="M230.5,296.1c0,0,4.1-9.3,15.2-2.2"/>
<path class="st5" d="M217.1,158.1l8.4-7.6c0,0,32.7-2.1,34.1,9c0,0,11.6-13.2,36-10.3l10.3,8.2l-28.5,12.5l-27.7,9.6l-20.4-9.1
	L217.1,158.1z"/>
<path class="st4" d="M217.1,158.6l8.4-7.6c0,0,32.7-2.1,34.1,9c0,0,11.6-13.2,36-10.3l10.3,8.2l-28.5,12.5l-27.7,9.6l-20.4-9.1
	L217.1,158.6z"/>
<polygon class="st5" points="213.4,159.5 217.1,204.2 256.7,206.2 255,161.7 254.9,160.9 "/>
<polygon class="st2" points="213.4,158.6 217.1,203.2 256.7,205.2 255,160.7 254.9,160 "/>
<polygon class="st5" points="307.8,158.6 266.9,164.7 266.9,209.5 306.8,203.8 "/>
<polygon class="st2" points="307.8,157.6 266.9,163.7 266.9,208.6 306.8,202.8 "/>
<polygon class="st6" points="298.1,168.6 276.1,171 276.6,178.5 298.1,176.2 "/>
<path class="st10" d="M219.3,227.1l2.2,6c0,0,3.3,2.9,7,1.4c3.7-1.4,6.8-2.1,8.4-3.5c1.6-1.4,3.8-8.4,3.8-8.4s2.2-7.6,4.4-9.5
	c2.2-1.9,8.1-28.2,0-25.6c-8.1,2.6-14.3,26.4-14.3,26.4s-1.4,1.7-3.5,1.9c-2.1,0.2-6.2-0.3-7,1.4C219.6,219,216.9,223.6,219.3,227.1
	z"/>
<path class="st5" d="M266.9,164.7c-4.2,1-8.7-0.2-12-3l1.7,44.5c0,0,4.1,4.4,10.3,3.4V164.7z"/>
<path class="st2" d="M266.9,163.7c-4.2,1-8.7-0.2-12-3l1.7,44.5c0,0,4.1,4.4,10.3,3.4V163.7z"/>
<path class="st5" d="M266.9,163.7c-4.2,1-8.7-0.2-12-3l1.7,44.5c0,0,4.1,4.4,10.3,3.4V163.7z"/>
<path class="st5" d="M267.9,158.7c0,0,16.6-5.1,20.9-4.4"/>
<path class="st5" d="M249.3,156.5c0,0-16.1-3.8-18.8-2.7"/>
<path class="st5" d="M278.4,159.3c0,0,11.1-4.1,15.1-2.1"/>
<path class="st5" d="M272.8,261.5c1.7-1.3,3.6-2.4,5.5-3.4c2.9-1.4,8.1-5,8.1-5"/>
<path class="st5" d="M230.5,212.8c0,0-7,5.7-9.1,6.2s-3.4,4.9-3.4,4.9"/>
<path class="st10" d="M303.7,226.3l-2.2,6.1c0,0-3.3,2.9-7,1.4c-3.7-1.4-6.8-2.1-8.4-3.5s-3.8-8.4-3.8-8.4s-2.2-7.6-4.4-9.5
	c-2.2-1.9-8.1-28.2,0-25.6c8.1,2.6,14.3,26.4,14.3,26.4s1.4,1.7,3.5,1.9c2.1,0.2,6.2-0.3,7,1.4C303.3,218.2,306,222.8,303.7,226.3z"
	/>
<path class="st5" d="M299.8,215.1c0,0,4.6,2.9,4.5,6.4"/>
<circle class="st10" cx="261.1" cy="109" r="21.3"/>
<path class="st11" d="M247.8,103.3c2.6-0.4,4.8-1.9,7.3-2.8c5.5-1.9,11.6-0.6,17.2,1.1c2.1,0.7,4.3,1.4,6.6,1.4s4.6-0.9,5.8-2.9
	c1.1-1.8,0.9-4.1,0-6c-0.9-1.9-2.4-3.4-3.9-4.8c-5-4.7-11.1-9.1-17.9-8.6c-2.7,0.2-5.4,1.2-7.9,2.3c-3.2,1.4-6.3,2.9-9.2,4.7
	c-2.3,1.3-6.5,3.1-7.9,5.5C234.9,98.8,243.1,104,247.8,103.3z"/>
<path class="st5" d="M284.7,98.2c-1.1,1.9-3.5,2.9-5.8,2.9s-4.4-0.7-6.6-1.4c-5.6-1.7-11.7-3.1-17.2-1.1c-2.5,0.9-4.7,2.4-7.3,2.8
	c-3.8,0.6-9.8-2.7-10.5-6.9c-0.7,4.8,6.3,8.9,10.5,8.3c2.6-0.4,4.9-1.9,7.3-2.8c5.5-1.9,11.6-0.6,17.2,1.1c2.2,0.7,4.3,1.4,6.6,1.4
	s4.6-0.9,5.8-2.9c0.6-1.1,0.8-2.3,0.7-3.5C285.3,96.9,285,97.6,284.7,98.2z"/>
<path class="st2" d="M457.5,356.6c0,0,2.8,3.7-1.3,9.3c-4.1,5.6-7.5,10.3-6.2,13.8c0,0,6.2-10.4,11.3-10.5S463.1,362.8,457.5,356.6z
	"/>
<path class="st5" d="M457.5,356.6c0.2,0.4,0.4,0.7,0.6,1.2c4.9,5.8,7.6,11.2,2.8,11.4c-4.4,0.1-9.7,8.1-11,10.1
	c0,0.2,0.1,0.3,0.1,0.5c0,0,6.2-10.4,11.3-10.5S463.1,362.8,457.5,356.6z"/>
<path class="st19" d="M462.7,361.3c0,1.3-0.1,2.4-0.3,2.4s-0.3-1.1-0.3-2.4s0.2-0.7,0.4-0.7C462.6,360.6,462.7,360,462.7,361.3z"/>
<path class="st19" d="M464.6,362.9c-1.1,0.6-2.1,1-2.2,0.8c-0.1-0.2,0.8-0.8,1.9-1.4c1.1-0.6,0.7-0.2,0.8,0S465.7,362.2,464.6,362.9
	z"/>
<path class="st2" d="M442.6,356.6c0,0-2.8,3.7,1.3,9.3c4.1,5.6,7.5,10.3,6.2,13.8c0,0-6.2-10.4-11.3-10.5
	C433.6,369,437,362.8,442.6,356.6z"/>
<path class="st5" d="M442.6,356.6c-0.2,0.4-0.4,0.7-0.6,1.2c-4.9,5.8-7.6,11.2-2.8,11.4c4.4,0.1,9.7,8.1,11,10.1
	c0,0.2-0.1,0.3-0.2,0.5c0,0-6.2-10.4-11.3-10.5C433.6,369,437,362.8,442.6,356.6z"/>
<path class="st19" d="M437.3,361.3c0,1.3,0.1,2.4,0.3,2.4s0.3-1.1,0.3-2.4s-0.2-0.7-0.4-0.7C437.4,360.6,437.3,360,437.3,361.3z"/>
<path class="st19" d="M435.5,362.9c1.1,0.6,2.1,1,2.2,0.8c0.1-0.2-0.8-0.8-1.9-1.4c-1.1-0.6-0.7-0.2-0.8,0S434.4,362.2,435.5,362.9z
	"/>
<ellipse class="st1" cx="450" cy="403.4" rx="29.6" ry="4.5"/>
<path class="st20" d="M465.2,374.7l-0.1,1.2l-0.2,1.6l-0.1,0.7l-0.2,1.6l-0.1,0.7l-0.2,1.6l-2.3,18.5c-0.2,1.7-2.9,2.9-6.2,2.9
	h-11.8c-3.3,0-6-1.3-6.2-2.9l-2.3-18.5l-0.2-1.6l-0.1-0.7l-0.2-1.6l-0.1-0.7l-0.2-1.6l-0.1-1.2c-0.1-1,1.3-1.7,3.2-1.7h24
	C463.9,372.9,465.4,373.7,465.2,374.7z"/>
<polygon class="st21" points="465.1,375.8 464.9,377.5 435.2,377.5 435,375.8 "/>
<polygon class="st21" points="464.8,378.1 464.6,379.8 435.4,379.8 435.2,378.1 "/>
<polygon class="st21" points="464.5,380.5 464.3,382.1 435.7,382.1 435.5,380.5 "/>
</svg>
