<?xml version="1.0" encoding="utf-8"?>
<!-- Generator: Adobe Illustrator 24.0.3, SVG Export Plug-In . SVG Version: 6.00 Build 0)  -->
<svg version="1.1" id="Capa_1" xmlns="http://www.w3.org/2000/svg" xmlns:xlink="http://www.w3.org/1999/xlink" x="0px" y="0px"
	 viewBox="0 0 500 500" style="enable-background:new 0 0 500 500;" xml:space="preserve">
<style type="text/css">
	.st0{opacity:0.1;fill:#B4358A;enable-background:new    ;}
	.st1{fill:#66627D;}
	.st2{opacity:0.1;fill:#020203;enable-background:new    ;}
	.st3{fill:#34404F;}
	.st4{opacity:0.1;fill:#34404F;enable-background:new    ;}
	.st5{fill:#403E56;}
	.st6{fill:#F7BEBE;}
	.st7{fill:#B4358A;}
	.st8{fill:#512E4E;}
	.st9{opacity:0.1;}
	.st10{fill:#020203;}
	.st11{fill:#E0DEE5;}
	.st12{fill:#DAD7E0;}
	.st13{opacity:0.1;fill:#FFFFFF;enable-background:new    ;}
	.st14{fill:#2E394A;stroke:#42868E;stroke-miterlimit:10;}
	.st15{opacity:0.8;}
	.st16{fill:#FFD13B;}
	.st17{fill:#9E9CB5;}
	.st18{fill:#FFFFFF;}
	.st19{fill:#D3DAE1;}
</style>
<path class="st0" d="M142.2,54.3c14.9-13.3,38.4-16,59.8-15C269,42.6,329.6,75,382,111.6c18.9,13.3,37.6,27.6,49.9,45.8
	c25.1,37.2,17.6,88.7-17.2,119.3c-11.9,10.4-26.2,18.4-41,25.5c-26.2,12.6-54.5,22.7-84.3,25.6c-21.2,2-42.7,0.4-63.8-2.5
	c-59-8-116.9-25.7-165.4-55.9c-21.3-13.3-41.3-29.8-50.1-51.2S7,169.5,28.7,156.8c9-5.3,19.7-7.6,30.2-9.9
	c15.5-3.3,31.2-6.5,45.2-13.2c14.4-6.9,31.5-20.2,28.7-35.5C129.7,81.9,127.3,67.6,142.2,54.3z"/>
<path class="st1" d="M203.6,182.1v60.2c0,14.9,12,26.9,26.9,26.9c0,0,0,0,0,0h35.9c13.4,0,24.2-10.8,24.2-24.2c0,0,0,0,0,0v-62.9
	c0-24-19.5-43.5-43.5-43.5C223.1,138.5,203.6,158,203.6,182.1z"/>
<path class="st2" d="M203.6,182.1v60.2c0,14.9,12,26.9,26.9,26.9c0,0,0,0,0,0h35.9c13.4,0,24.2-10.8,24.2-24.2c0,0,0,0,0,0v-62.9
	c0-24-19.5-43.5-43.5-43.5C223.1,138.5,203.6,158,203.6,182.1z"/>
<path class="st1" d="M204.9,182.7v58.4c0,14.4,11.7,26.1,26.1,26.1c0,0,0,0,0,0h34.9c13,0,23.5-10.5,23.5-23.5c0,0,0,0,0,0v-61
	c0-23.3-18.9-42.2-42.2-42.2C223.8,140.5,204.9,159.4,204.9,182.7L204.9,182.7z"/>
<path class="st2" d="M215.4,191.3v48.6c0,4.4,1.2,8.7,3.5,12.4c3.6,5.6,9.4,9.3,16.1,9.3h26.2c6.4,0,11.9-3.7,15-9.3
	c1.7-3.1,2.6-6.7,2.6-10.2v-50.8c0-19.4-14.2-35.1-31.8-35.1c-8.8,0-16.7,3.9-22.5,10.3C218.6,173.3,215.3,182.2,215.4,191.3z"/>
<circle class="st3" cx="303.2" cy="358.1" r="4.8"/>
<circle class="st3" cx="294.6" cy="376.9" r="4.8"/>
<circle class="st3" cx="208.9" cy="380.3" r="4.8"/>
<circle class="st3" cx="189.7" cy="355.8" r="4.8"/>
<rect x="243.9" y="273.3" class="st3" width="6" height="37.6"/>
<rect x="243.9" y="304.8" class="st4" width="6" height="6.1"/>
<rect x="242.8" y="306.2" class="st3" width="8.3" height="41.7"/>
<path class="st3" d="M190.7,347.6l54.6-2.2v8.8H182C183.3,350.4,186.8,347.8,190.7,347.6z"/>
<path class="st3" d="M300,347.6l-54.6-2.2v8.8h63.4C307.4,350.4,304,347.8,300,347.6z"/>
<path class="st3" d="M251.1,346.3l43.6,21.5c3.8,1.9,6.1,5.7,6.1,9.9v0.6l-50.9-22.2l-7.2-0.5l-42.3,27l0,0
	c-0.5-4.1,1.2-8.1,4.6-10.5l37.8-26.8L251.1,346.3z"/>
<path class="st4" d="M243.9,273.3v4.1c1,0,2.1,0.1,3.2,0.1c0.9,0,1.9,0,2.8,0v-4.1H243.9z"/>
<ellipse class="st3" cx="247.1" cy="269.4" rx="22.2" ry="6.5"/>
<path class="st3" d="M225.1,269.4c0,0.7,0.4,1.4,0.9,1.9c0.2,0.2,0.5,0.4,0.7,0.6c3.3,2.4,11.3,4,20.5,4c9.3,0,17.3-1.7,20.6-4.1
	c0.2-0.1,0.3-0.2,0.5-0.4c0.7-0.5,1.1-1.2,1.1-2c0-3.6-9.9-6.5-22.2-6.5C235.1,263,225.1,265.9,225.1,269.4z"/>
<path class="st4" d="M225.1,269.4c0,0.7,0.4,1.4,0.9,1.9c0.2,0.2,0.5,0.4,0.7,0.6c3.3,2.4,11.3,4,20.5,4c9.3,0,17.3-1.7,20.6-4.1
	c0.2-0.1,0.3-0.2,0.5-0.4c0.7-0.5,1.1-1.2,1.1-2c0-3.6-9.9-6.5-22.2-6.5C235.1,263,225.1,265.9,225.1,269.4z"/>
<path class="st4" d="M224.9,269.4c0,0.7,0.4,1.4,0.9,1.9c2.8-0.7,4.8-1.3,4.8-1.3s19.6,1.1,37.5,1.5c0.7-0.5,1.1-1.2,1.1-2
	c0-3.6-9.9-6.5-22.2-6.5S224.9,265.9,224.9,269.4z"/>
<path class="st4" d="M209.6,256c4.9,7,12.9,11.2,21.5,11.2h34.9c8.2,0,15.7-4.2,20-11.2H209.6z"/>
<path class="st4" d="M225.1,269.4c0,0.7,0.4,1.4,0.9,1.9c0.2,0.2,0.5,0.4,0.7,0.6c13.7,0.8,27.4,0.8,41.1,0c0.2-0.1,0.3-0.2,0.5-0.4
	c0.7-0.5,1.1-1.2,1.1-2c0-3.6-9.9-6.5-22.2-6.5C235.1,263,225.1,265.9,225.1,269.4z"/>
<path class="st3" d="M205.2,268.8c28,3.5,56.3,3.5,84.3,0c3.3,0,5.9-2.6,5.9-5.9c0,0,0,0,0,0l0,0c0-3.3-2.6-5.9-5.9-5.9l0,0h-84.4
	c-3.3,0-5.9,2.6-5.9,5.9l0,0C199.3,266.2,201.9,268.8,205.2,268.8z"/>
<path class="st1" d="M282.9,333.1c0,0,5.8,6,9.8,6.5s7.2,13.3,1.7,14.3c-5.5,1-16.2-3-17.7-4.7s-7.2-11.8-7.2-11.8L282.9,333.1z"/>
<path class="st5" d="M250.8,269.5c0,0,14.2,27.1,14.5,30.8c0.3,3.7,12.3,19.3,12.3,19.3l-15,19c0,0-2-4.8-5.4-6.5
	c-3.4-1.7-2.7-5.5-2.7-5.5s-3.5,0-6.1-4.3c-2.6-4.3-5.7-8.5-5.7-10.3S224,290.8,224,290.8l1.4-20.6l3.8-6.5L250.8,269.5z"/>
<path class="st2" d="M287.7,271.1l0.1,0.1c1.7,1.5,21,18.6,21,19s6.9,11.9-1.7,21.9s-28.5,26.2-28.5,26.2s-8.7,6.2-9.8,7.5
	c-1.1,1.3-18.3,0-8.1-11.6c10.2-11.6,19.9-24.7,19.9-24.7s-17-4.1-18.2-6.9s22.4-38.3,22.4-38.3L287.7,271.1z"/>
<path class="st5" d="M288.3,271.1l0.1,0.1c1.7,1.5,21,18.6,21,19s6.9,11.9-1.7,21.9c-8.7,9.9-28.5,26.2-28.5,26.2s-8.7,6.2-9.8,7.5
	c-1.1,1.3-18.3,0-8.1-11.6c10.2-11.6,19.9-24.7,19.9-24.7s-17-4.1-18.2-6.9c-1.1-2.9-23.5-37.6-23.5-37.6l46-0.7L288.3,271.1z"/>
<path class="st6" d="M239.2,194.8l1.7,15.5c0,0,17.5,7,17.9,6.8c0.4-0.1,11.6-10.2,9.8-16.9c-0.9-3.3-1.4-8-1.5-11.8
	c-0.2-3.8-0.2-6.7-0.2-6.7s-25.4-9.1-23.1-2.8c0.8,2.3,0.5,5-0.4,7.5C242.4,189.4,241,192.2,239.2,194.8z"/>
<path class="st2" d="M243.4,186.4c0.2,0.2,0.3,0.3,0.5,0.5c6.1,6.5,16.3,7.1,23.2,1.5c-0.2-3.8-0.2-6.7-0.2-6.7s-25.4-9.1-23.1-2.8
	C244.6,181.1,244.2,183.9,243.4,186.4z"/>
<path class="st6" d="M239.2,174.7c0,9.4,7.6,17,17,17c9.4,0,17-7.6,17-17c0-9.4-7.6-17-17-17c-9.3-0.1-17,7.5-17,16.8
	C239.2,174.5,239.2,174.6,239.2,174.7z"/>
<path class="st2" d="M260.2,210.8c0,0,6.7-14.8,8.9-14.8s5.8,76.4,5.8,76.4l-34.8,0.5l-1.4-40.1l7.1-35.6
	C245.9,197.3,252.3,211.4,260.2,210.8z"/>
<path class="st2" d="M260.2,212c0,0,6.7-14.8,8.9-14.8s5.8,76.4,5.8,76.4l-39.4,0.6l3.3-40.2l7.1-35.6
	C245.9,198.5,252.3,212.5,260.2,212z"/>
<path class="st1" d="M260.2,211.4c0,0,6.7-14.8,8.9-14.8s5.8,76.5,5.8,76.5l-39.4,0.6l3.3-40.2l7.1-35.6
	C245.9,197.9,252.3,211.9,260.2,211.4z"/>
<path class="st2" d="M266.7,192c0,0,1.2-1.7,2.9-1.2c1.7,0.6,3-1,4.7,0.6c1.7,1.6,8.5,3.7,9.8,3c1.3-0.7,5.8,2.4,6.8,4.3
	c1,1.8,4.3,6.8,4.3,6.8s2.8,3.4,2.4,5.3c-0.4,1.8,1,4,2.7,4.8s5.1,9.4,5.1,9.4s-0.9,11.4,2.9,13.4c3.8,2,1,10.6,1,10.6l-18.1-4.3
	l-5.1-11.6c0,0,2,34.1,4.4,37.2s2.7,5.1,2.7,5.1s-9.4,2-11.4,3.7c-2,1.7-7.2-0.4-7.2-0.4l-5.1-45.3c0,0-1.8-8.5-1.8-12.9
	C267.6,215.9,266.7,192,266.7,192z"/>
<path class="st7" d="M267.2,192c0,0,1.2-1.7,2.9-1.2c1.7,0.6,3-1,4.7,0.6s8.5,3.7,9.8,3c1.3-0.7,5.8,2.4,6.8,4.3
	c1,1.8,4.3,6.8,4.3,6.8s2.8,3.4,2.4,5.3c-0.4,1.8,1,4,2.7,4.8s5.1,9.4,5.1,9.4s-0.9,11.4,2.9,13.4c1,0.5,1.5,1.6,1.8,3
	c1.1,5.6-3.5,10.6-9.1,10.5l-9.7-4l-5.1-14.7c0,0,2,34.1,4.4,37.2s2.7,5.1,2.7,5.1s-9.4,2-11.4,3.7c-2,1.7-7.2-0.4-7.2-0.4
	l-5.1-45.3c0,0-1.8-8.5-1.8-12.9C268.2,215.9,267.2,192,267.2,192z"/>
<path class="st2" d="M298.5,216.6c0,0-1.7,4.7-6.4,4.3S298.5,216.6,298.5,216.6z"/>
<path class="st2" d="M294,209.5c0,0-3.1,0.6-4.3,3.3C288.6,215.5,294,209.5,294,209.5z"/>
<path class="st2" d="M285.2,204.7c0,0.6-2,10.5,0,14.6c2,4.1,1.7,8.9,1.7,8.9L285.2,204.7z"/>
<path class="st2" d="M243.3,188.6c0,0-1.1-1.3-2.2-1.2c-1.1,0.1-1.8,0.8-3.3,1.4c-1.4,0.6-4.8,0.7-4.8,1.1c0,0.4-3,2.1-5,2.6
	c-2,0.4-8.2,4.7-9.8,12.9c-1.6,8.2-4.3,10.6-4.3,10.6l15,7.4c0,0-11.6,49.4-13,52.9c-1.4,3.5-1.5,24.6-1.5,24.6s9.2,4.1,11.6,5.4
	c2.4,1.3,1.4-12.2,6.4-20c5-7.8,10.6-19.2,10.6-19.2l8.6-24.3c0,0,5.5-32.3,0.9-38.3S242.9,190.7,243.3,188.6z"/>
<path class="st7" d="M242.7,188.6c0,0-1.1-1.3-2.2-1.2c-1.1,0.1-1.8,0.8-3.3,1.4c-1.4,0.6-4.8,0.7-4.8,1.1c0,0.4-3,2.1-5,2.6
	s-8.2,4.7-9.8,12.9c-1.5,8.2-4.3,10.6-4.3,10.6l15,7.4c0,0-11.6,49.4-13,52.9c-1.4,3.5-1.5,24.6-1.5,24.6s9.2,4.1,11.6,5.4
	c2.4,1.3,1.4-12.3,6.4-20s10.6-19.2,10.6-19.2l8.7-24.2c0,0,5.5-32.3,0.9-38.3S242.3,190.7,242.7,188.6z"/>
<path class="st2" d="M212,250.7c0.4,0.1,1,0.1,1.6,0.2c4.5,0.4,13.5,0.5,13.5,0.5s6.7-13.2,12.3-12.8c0,0-5.3-6-7.4-5.2
	c-0.4,0.1-0.6-0.1-0.7-0.7c-0.6-2.6,1.4-11.3,1.4-11.3l2.7-11.8l-15.6,3.8c-1.4,0.3-5.8,2.6-5.8,2.6s-0.1,6.1-1.3,7.5
	c-1.1,1.4-2.4,8.2-2.3,9.9s-1.6,9.7,0.1,11.8C212.2,247.4,208.4,250.1,212,250.7z"/>
<path class="st1" d="M270.3,343.6c0,0,0.9,4.7-0.1,7.7c-1,3-0.9,9.5-0.1,11.8c0.7,2.3,3.1,5.4-3.4,6.8s-10.9,0.1-11.2-1
	s-1.7-5.7-0.6-8.2c1.1-2.6,1.5-9.2-0.6-13.1c-2.1-3.8-0.7-9.8,1.3-10.5s5.4-2.3,5.4-2.3s-3.7,6.7-0.3,8.1
	C264,344.3,270.3,343.6,270.3,343.6z"/>
<path class="st2" d="M239.2,174.7c0,4.3,1.7,8.5,4.7,11.7c0,0,0-0.1,0-0.1c0.5-1.1,1-2.2,0.9-3.4c0-1.4-0.9-2.7-1.1-4.1
	c-0.3-1.8,0.3-3.6,0.8-5.3c0.4-1.3,1.2-2.8,2.6-2.6c0.3,0.1,0.5,0.1,0.8,0.1c0.7-0.1,0.8-1,0.9-1.7c0.4-3.4,3-6.1,6.4-6.7
	c0.4-0.1,0.8-0.1,1.1,0.1c0.5,0.2,0.8,0.8,1.2,1.1c1.4,1,3.3-0.9,5-0.8c1.5,0.1,2.4,1.6,3,3c0.6,1.4,1.4,2.9,2.8,3.2
	c0.2,0.1,0.5,0,0.7-0.1c0.5-0.3,0.1-1-0.1-1.5c-0.6-1.4-0.2-2.4,0.5-3.4c-5.9-7.3-16.6-8.5-23.9-2.7
	C241.5,164.6,239.2,169.5,239.2,174.7L239.2,174.7z"/>
<path class="st8" d="M269,166.9c0.2,0.5,0.5,1.2,0.1,1.5c-0.2,0.1-0.5,0.1-0.7,0.1c-1.5-0.3-2.2-1.9-2.8-3.2c-0.6-1.4-1.5-2.9-3-3
	c-1.8-0.1-3.6,1.8-5,0.8c-0.4-0.3-0.7-0.8-1.2-1.1c-0.4-0.1-0.7-0.2-1.1-0.1c-3.4,0.6-6,3.3-6.4,6.7c-0.1,0.7-0.2,1.6-0.9,1.7
	c-0.3,0-0.5,0-0.8-0.1c-1.3-0.2-2.1,1.4-2.6,2.6c-0.6,1.7-1.2,3.5-0.8,5.3c0.3,1.4,1.1,2.7,1.1,4.1c0,1.2-0.5,2.3-0.9,3.4
	s-1.3,2.3-2.5,2.2c-1-0.1-1.5-1.1-1.9-2s-1.3-1.8-2.2-1.5c-0.4,0.1-0.8,0.5-1.2,0.3c-0.2-0.1-0.3-0.4-0.4-0.6c-0.5-2,0.2-4.2-0.8-6
	c-0.7-1.4-2.2-2.1-3.5-3.1c-4.3-3.4-5-9.7-1.6-14c0.1-0.1,0.1-0.2,0.2-0.3c1.3-1.5,3.2-2.9,3.3-4.9c0.1-1.5-1-2.9-1-4.5
	c0-1.5,0.9-2.8,2-3.8c3.2-2.9,7.6-4.1,11.9-3.1c1.1,0.3,2.2,0.7,3.3,0.5c1.3-0.2,2.4-1,3.6-1.6c4-1.9,8.8-0.6,11.4,3.1
	c1.3,2.1,1.9,4.8,3.9,6.3c1.3,1,3.2,1.3,3.9,2.8c0.4,0.9,0.3,1.9,0.2,2.9c-0.2,1.6-1,3.1-2.2,4.1C269.2,163.7,268.2,165,269,166.9z"
	/>
<g class="st9">
	<path class="st10" d="M232.8,153.1c-0.1-0.4-0.2-0.8-0.3-1.2C232.6,152.3,232.7,152.7,232.8,153.1z"/>
	<path class="st10" d="M268.7,165.6c-0.1-0.3-0.2-0.5-0.3-0.8c-0.8-1.9,0.2-3.2,1.5-4.4c1.2-1.1,1.9-2.5,2.2-4.1
		c0.1-0.4,0.1-0.9,0.1-1.3c0.1,0.1,0.2,0.3,0.3,0.4c0.4,0.9,0.3,1.9,0.2,2.9c-0.2,1.6-1,3.1-2.2,4.1
		C269.5,163.4,268.7,164.4,268.7,165.6z"/>
	<path class="st10" d="M236.7,182.4c0.9-0.3,1.8,0.6,2.2,1.5s1,1.9,1.9,2c1.2,0.1,2-1.1,2.5-2.2c0.5-1.1,1-2.2,0.9-3.4
		c0-0.1,0-0.3,0-0.4c0.3,0.8,0.5,1.6,0.6,2.4c0,1.2-0.5,2.3-0.9,3.4c-0.5,1.1-1.3,2.3-2.5,2.2c-1-0.1-1.5-1.1-1.9-2
		c-0.5-0.9-1.3-1.8-2.2-1.5c-0.4,0.1-0.8,0.5-1.2,0.3c-0.2-0.1-0.3-0.4-0.4-0.6c-0.1-0.4-0.2-0.9-0.2-1.4
		C235.9,182.8,236.3,182.5,236.7,182.4z"/>
	<path class="st10" d="M230.9,172.9c1.2,1,2.7,1.7,3.5,3.1c0.3,0.6,0.5,1.3,0.5,1.9c-0.8-1.3-2.2-2.1-3.4-3
		c-1.9-1.5-3.2-3.7-3.6-6.1C228.5,170.5,229.5,171.9,230.9,172.9z"/>
	<path class="st10" d="M243.7,178c-0.2-0.6-0.4-1.2-0.5-1.8c-0.3-1.8,0.3-3.6,0.8-5.3c0.4-1.3,1.2-2.8,2.6-2.6
		c0.3,0.1,0.5,0.1,0.8,0.1c0.7-0.1,0.8-1,0.9-1.7c0.4-3.4,3-6.1,6.4-6.7c0.4-0.1,0.8-0.1,1.1,0.1c0.5,0.2,0.8,0.8,1.2,1.1
		c1.4,1,3.3-0.9,5-0.8c1.5,0.1,2.4,1.6,3,3s1.4,2.9,2.8,3.2c0.2,0.1,0.5,0,0.7-0.1c0.1-0.1,0.2-0.3,0.2-0.4c0,0.3,0.1,0.6,0.3,0.9
		c0.2,0.5,0.5,1.2,0.1,1.5c-0.2,0.1-0.5,0.1-0.7,0.1c-1.5-0.3-2.2-1.9-2.8-3.2c-0.6-1.4-1.5-2.9-3-3c-1.8-0.1-3.6,1.8-5,0.8
		c-0.4-0.3-0.7-0.8-1.2-1.1c-0.4-0.1-0.7-0.2-1.1-0.1c-3.4,0.6-6,3.3-6.4,6.7c-0.1,0.7-0.2,1.6-0.9,1.7c-0.3,0-0.5,0-0.8-0.1
		c-1.3-0.2-2.1,1.4-2.6,2.6C244,174.5,243.4,176.3,243.7,178z"/>
</g>
<path class="st2" d="M213.6,250.9c4.5,0.4,13.5,0.5,13.5,0.5s6.7-13.2,12.3-12.8c0,0-5.3-6-7.4-5.2c-0.4,0.1-0.6-0.1-0.7-0.7
	c-5.6,1.7-16.2,5.8-17.2,13.1C213.8,247.8,213.6,249.5,213.6,250.9z"/>
<path class="st7" d="M213,250.9c4.5,0.4,13.5,0.5,13.5,0.5s6.7-13.2,12.3-12.8c0,0-5.2-6-7.4-5.2c-0.4,0.1-0.6-0.1-0.7-0.7
	c-5.6,1.7-16.2,5.8-17.2,13.1C213.2,247.8,213.1,249.5,213,250.9z"/>
<path class="st2" d="M252.8,288.8c0,0-12.8-3.1-14.8-1.4C236.1,289.1,252.8,288.8,252.8,288.8z"/>
<path class="st2" d="M289.4,301c0,0-5.4,3.1-6,5.7S289.4,301,289.4,301z"/>
<path class="st2" d="M267.9,358.5c0,0-7.4-1.1-9.3,0.1C256.7,359.9,267.9,358.5,267.9,358.5z"/>
<path class="st11" d="M194.1,457.6c0,0,28.6-1.5,35.6-5.6c7-4.1,16.8-4.1,16.9-4.1L360.5,423l47.3-11.3l8.4-1.1l-27.9-31.9l-0.8-0.4
	l-41.1-17.8c0,0-18.4,1-22.1,13c-0.2,0.8-0.4,1.7-0.5,2.6c-0.4,3.7,0.7,7.5,2.9,10.5c1.5,2,3.2,4.8,3.8,7.3c0.3,1.4,0.2,2.7-0.5,3.7
	c-1.5,1.5-3.2,2.9-5.1,4c-10,6.7-35.4,17.6-79.6,0.8c0,0-18.9-18.7-33.3-10.7C197.7,399.7,194.1,457.6,194.1,457.6z"/>
<path class="st2" d="M330.5,394c0.3,1.4,0.2,2.7-0.5,3.7c-1.5,1.5-3.2,2.9-5.1,4l86.2,6.4l-23.6-29.8l-41.1-17.8c0,0-18.4,1-22.1,13
	c-0.2,0.8-0.4,1.7-0.5,2.6c-0.4,3.7,0.7,7.5,2.9,10.5C328.2,388.7,329.9,391.5,330.5,394z"/>
<polygon class="st1" points="414.7,276.7 344.1,278.2 344.1,362.8 411.1,408.2 427.2,393.4 423.9,344.2 427.2,298.4 "/>
<path class="st12" d="M454.9,262.9l-82.5-25.4c-1.5-0.5-3.1-0.6-4.6-0.5l-197,14.4c-16.8,1.2-33.1,6.9-46.9,16.5
	c-12.7,9-25.4,22.8-31.2,43.7c-4.2,15.4-3.9,31.7,0.9,47l17.4,56.3c0,0-13-122.3,117.2-128.4L454.9,262.9z"/>
<path class="st13" d="M326.7,386.7c1.5,2,3.2,4.8,3.8,7.3c2.2-2.6,2.7-5.5-0.5-7.8c-4-2.9-5.4-8-5.7-12.6c-0.2,0.8-0.4,1.7-0.5,2.6
	C323.4,380,324.4,383.7,326.7,386.7z"/>
<path class="st1" d="M119.9,400.5l9.7,33l22,21.5l27.6,5.6l43-7.7V300.2c0,0-7.4-4.9-8.2-4.9s-21.5,3.3-21.5,3.3l-46.9,33.7
	l-1.9,1.4l-21,31.2L119.9,400.5z"/>
<polygon class="st1" points="222.3,293.8 222.3,453 218.1,453.7 218.1,293.8 "/>
<polygon class="st2" points="414.7,276.7 344.1,278.2 344.1,362.8 411.1,408.2 427.2,393.4 423.9,344.2 427.2,298.4 "/>
<polygon class="st2" points="222.3,293.8 222.3,453 218.1,453.7 218.1,293.8 "/>
<path class="st2" d="M144.8,343c30.7-25.2,64.8-28.9,77.5-29.4v-13.4c0,0-7.4-4.9-8.2-4.9s-21.5,3.3-21.5,3.3l-46.9,33.7L144.8,343z
	"/>
<path class="st1" d="M486.1,329.4c0,0-3.2,8.4-6.6,18.1c-3,8.7-6.2,18.4-7.5,24.4c-0.5,2.3-1.8,4.6-3.6,6.9
	c-8.3,10.5-27.4,20.7-30.7,24.3c-4,4.4-26.6,7.6-26.6,7.6V274.9l15.1-4.9h19.2l24.8,11.3l12.8,18.9L486.1,329.4z"/>
<path class="st6" d="M222.8,250c1,1.2,31.1,1.5,32.7,1.1l2.8-0.6c0,0,14.6,7.8,24.6-5c0.4-0.5,0.8-1.1,1.3-1.8
	c10-15.3-23.3-4.1-23.3-4.1s-12.8,0.1-16,0.1h-0.3c-3.4-0.1-10.2-2.2-10.2-2.2S221.8,248.8,222.8,250z"/>
<path class="st2" d="M266.8,245.4c0,0,12.8,0.1,16,0.1h0.1c0.4-0.5,0.8-1.1,1.3-1.8c10-15.3-23.3-4.1-23.3-4.1s-12.8,0.1-16,0.1
	h-0.3c-0.3,0.4-0.6,0.9-1,1.3C233.3,256.1,266.8,245.4,266.8,245.4z"/>
<path class="st6" d="M293.3,246.8c0,0-7.2-2.3-10.5-2.3s-16-0.1-16-0.1s-33.5,10.7-23.3-4.4c10.2-15.1,25.9-6.5,25.9-6.5l2.8-0.6
	c1.6-0.3,31.7,0.3,32.7,1.5C305.9,235.6,293.3,246.8,293.3,246.8z"/>
<path class="st7" d="M308.2,238.2c0,0-0.2,9.8-7,10.4c-14.3,1.2-10.7-4.4-10.7-4.4l1.2-11l6.7-6.1c0,0,3,1.4,3.3,1.1
	C302.2,228,308.2,238.2,308.2,238.2z"/>
<path class="st7" d="M211.4,250.7c0.4,0.1,1,0.1,1.6,0.2c4.5,0.4,13.5,0.5,13.5,0.5s6.7-13.2,12.3-12.8c0,0-5.2-6-7.4-5.2
	c-0.4,0.1-0.6-0.1-0.7-0.7c-0.6-2.6,1.4-11.3,1.4-11.3l2.7-11.8l-15.6,3.8c-1.4,0.3-5.8,2.6-5.8,2.6s-0.1,6.1-1.3,7.5
	s-2.4,8.2-2.3,9.9s-1.6,9.7,0.1,11.8C211.7,247.4,207.8,250.1,211.4,250.7z"/>
<path class="st2" d="M227.4,219.7c0,0-13,1.4-13.6,4.7C213.2,227.7,227.4,219.7,227.4,219.7z"/>
<path class="st2" d="M219.6,232.5c-0.8,0.3-5.8,1.6-6.8,4.5C211.8,240,219.6,232.5,219.6,232.5z"/>
<path class="st2" d="M213.6,251.4c4.5,0.4,13.5,0.5,13.5,0.5s6.7-13.2,12.3-12.8c0,0-5.3-6-7.4-5.2c-0.4,0.1-0.6-0.1-0.7-0.7
	c-5.6,1.7-16.2,5.8-17.2,13.1C213.8,248.3,213.6,250,213.6,251.4z"/>
<path class="st3" d="M312.6,201.1v56.8c0,1-0.5,1.1-1.4,1.6c-2.9,1.6-10,4.4-18.5-0.1c-0.9-0.5-1.4-0.6-1.4-1.6v-56.3
	C291.3,201.4,302.2,205.8,312.6,201.1z"/>
<ellipse class="st14" cx="302" cy="201.1" rx="10.6" ry="2.3"/>
<g class="st15">
	<circle class="st10" cx="311.6" cy="224.7" r="0.2"/>
	<circle class="st10" cx="310.4" cy="225" r="0.2"/>
	<circle class="st10" cx="308.9" cy="225.5" r="0.2"/>
	<circle class="st10" cx="306.3" cy="226.1" r="0.2"/>
	<circle class="st10" cx="303.4" cy="226.4" r="0.2"/>
	<circle class="st10" cx="300.5" cy="226.5" r="0.2"/>
	<circle class="st10" cx="296.3" cy="226" r="0.2"/>
	<circle class="st10" cx="297.7" cy="226.3" r="0.2"/>
	<circle class="st10" cx="293.7" cy="225.5" r="0.2"/>
	<circle class="st10" cx="294.9" cy="225.7" r="0.2"/>
	<circle class="st10" cx="292.3" cy="225" r="0.2"/>
	<circle class="st10" cx="307.6" cy="225.8" r="0.2"/>
	<circle class="st10" cx="304.8" cy="226.3" r="0.2"/>
	<circle class="st10" cx="301.8" cy="226.5" r="0.2"/>
	<circle class="st10" cx="299.1" cy="226.5" r="0.2"/>
</g>
<g class="st15">
	<circle class="st10" cx="311.6" cy="225.8" r="0.2"/>
	<circle class="st10" cx="310.4" cy="226.2" r="0.2"/>
	<circle class="st10" cx="308.9" cy="226.7" r="0.2"/>
	<circle class="st10" cx="306.3" cy="227.2" r="0.2"/>
	<circle class="st10" cx="303.4" cy="227.6" r="0.2"/>
	<circle class="st10" cx="300.5" cy="227.7" r="0.2"/>
	<circle class="st10" cx="296.3" cy="227.1" r="0.2"/>
	<circle class="st10" cx="297.7" cy="227.5" r="0.2"/>
	<circle class="st10" cx="293.7" cy="226.7" r="0.2"/>
	<circle class="st10" cx="294.9" cy="226.9" r="0.2"/>
	<circle class="st10" cx="292.3" cy="226.2" r="0.2"/>
	<circle class="st10" cx="307.6" cy="227" r="0.2"/>
	<circle class="st10" cx="304.8" cy="227.5" r="0.2"/>
	<circle class="st10" cx="301.8" cy="227.7" r="0.2"/>
	<circle class="st10" cx="299.1" cy="227.7" r="0.2"/>
</g>
<g class="st15">
	<circle class="st10" cx="311.6" cy="227" r="0.2"/>
	<circle class="st10" cx="310.4" cy="227.4" r="0.2"/>
	<circle class="st10" cx="308.9" cy="227.8" r="0.2"/>
	<circle class="st10" cx="306.3" cy="228.4" r="0.2"/>
	<circle class="st10" cx="303.4" cy="228.8" r="0.2"/>
	<circle class="st10" cx="300.5" cy="228.9" r="0.2"/>
	<circle class="st10" cx="296.3" cy="228.3" r="0.2"/>
	<circle class="st10" cx="297.7" cy="228.7" r="0.2"/>
	<circle class="st10" cx="293.7" cy="227.8" r="0.2"/>
	<circle class="st10" cx="294.9" cy="228.1" r="0.2"/>
	<circle class="st10" cx="292.3" cy="227.4" r="0.2"/>
	<circle class="st10" cx="307.6" cy="228.2" r="0.2"/>
	<circle class="st10" cx="304.8" cy="228.7" r="0.2"/>
	<circle class="st10" cx="301.8" cy="228.9" r="0.2"/>
	<circle class="st10" cx="299.1" cy="228.9" r="0.2"/>
</g>
<g class="st15">
	<circle class="st10" cx="311.6" cy="228.2" r="0.2"/>
	<circle class="st10" cx="310.4" cy="228.5" r="0.2"/>
	<circle class="st10" cx="308.9" cy="229" r="0.2"/>
	<circle class="st10" cx="306.3" cy="229.6" r="0.2"/>
	<circle class="st10" cx="303.4" cy="229.9" r="0.2"/>
	<circle class="st10" cx="300.5" cy="230.1" r="0.2"/>
	<circle class="st10" cx="296.3" cy="229.5" r="0.2"/>
	<circle class="st10" cx="297.7" cy="229.8" r="0.2"/>
	<circle class="st10" cx="293.7" cy="229" r="0.2"/>
	<circle class="st10" cx="294.9" cy="229.3" r="0.2"/>
	<circle class="st10" cx="292.3" cy="228.5" r="0.2"/>
	<circle class="st10" cx="307.6" cy="229.3" r="0.2"/>
	<circle class="st10" cx="304.8" cy="229.8" r="0.2"/>
	<circle class="st10" cx="301.8" cy="230.1" r="0.2"/>
	<circle class="st10" cx="299.1" cy="230.1" r="0.2"/>
</g>
<g class="st15">
	<circle class="st10" cx="311.6" cy="229.4" r="0.2"/>
	<circle class="st10" cx="310.4" cy="229.7" r="0.2"/>
	<circle class="st10" cx="308.9" cy="230.2" r="0.2"/>
	<circle class="st10" cx="306.3" cy="230.8" r="0.2"/>
	<circle class="st10" cx="303.4" cy="231.1" r="0.2"/>
	<circle class="st10" cx="300.5" cy="231.2" r="0.2"/>
	<circle class="st10" cx="296.3" cy="230.7" r="0.2"/>
	<circle class="st10" cx="297.7" cy="231" r="0.2"/>
	<circle class="st10" cx="293.7" cy="230.2" r="0.2"/>
	<circle class="st10" cx="294.9" cy="230.4" r="0.2"/>
	<circle class="st10" cx="292.3" cy="229.7" r="0.2"/>
	<circle class="st10" cx="307.6" cy="230.5" r="0.2"/>
	<circle class="st10" cx="304.8" cy="231" r="0.2"/>
	<circle class="st10" cx="301.8" cy="231.2" r="0.2"/>
	<circle class="st10" cx="299.1" cy="231.2" r="0.2"/>
</g>
<g class="st15">
	<circle class="st10" cx="311.6" cy="230.5" r="0.2"/>
	<circle class="st10" cx="310.4" cy="230.9" r="0.2"/>
	<circle class="st10" cx="308.9" cy="231.4" r="0.2"/>
	<circle class="st10" cx="306.3" cy="231.9" r="0.2"/>
	<circle class="st10" cx="303.4" cy="232.3" r="0.2"/>
	<circle class="st10" cx="300.5" cy="232.4" r="0.2"/>
	<circle class="st10" cx="296.3" cy="231.8" r="0.2"/>
	<circle class="st10" cx="297.7" cy="232.2" r="0.2"/>
	<circle class="st10" cx="293.7" cy="231.4" r="0.2"/>
	<circle class="st10" cx="294.9" cy="231.6" r="0.2"/>
	<circle class="st10" cx="292.3" cy="230.9" r="0.2"/>
	<circle class="st10" cx="307.6" cy="231.7" r="0.2"/>
	<circle class="st10" cx="304.8" cy="232.2" r="0.2"/>
	<circle class="st10" cx="301.8" cy="232.4" r="0.2"/>
	<circle class="st10" cx="299.1" cy="232.4" r="0.2"/>
</g>
<g class="st15">
	<circle class="st10" cx="311.6" cy="231.7" r="0.2"/>
	<circle class="st10" cx="310.4" cy="232.1" r="0.2"/>
	<circle class="st10" cx="308.9" cy="232.5" r="0.2"/>
	<circle class="st10" cx="306.3" cy="233.1" r="0.2"/>
	<circle class="st10" cx="303.4" cy="233.5" r="0.2"/>
	<circle class="st10" cx="300.5" cy="233.6" r="0.2"/>
	<circle class="st10" cx="296.3" cy="233" r="0.2"/>
	<circle class="st10" cx="297.7" cy="233.3" r="0.2"/>
	<circle class="st10" cx="293.7" cy="232.5" r="0.2"/>
	<circle class="st10" cx="294.9" cy="232.8" r="0.2"/>
	<circle class="st10" cx="292.3" cy="232.1" r="0.2"/>
	<circle class="st10" cx="307.6" cy="232.9" r="0.2"/>
	<circle class="st10" cx="304.8" cy="233.3" r="0.2"/>
	<circle class="st10" cx="301.8" cy="233.6" r="0.2"/>
	<circle class="st10" cx="299.1" cy="233.6" r="0.2"/>
</g>
<g class="st15">
	<circle class="st10" cx="311.6" cy="232.9" r="0.2"/>
	<circle class="st10" cx="310.4" cy="233.2" r="0.2"/>
	<circle class="st10" cx="308.9" cy="233.7" r="0.2"/>
	<circle class="st10" cx="306.3" cy="234.3" r="0.2"/>
	<circle class="st10" cx="303.4" cy="234.6" r="0.2"/>
	<circle class="st10" cx="300.5" cy="234.8" r="0.2"/>
	<circle class="st10" cx="296.3" cy="234.2" r="0.2"/>
	<circle class="st10" cx="297.7" cy="234.5" r="0.2"/>
	<circle class="st10" cx="293.7" cy="233.7" r="0.2"/>
	<circle class="st10" cx="294.9" cy="233.9" r="0.2"/>
	<circle class="st10" cx="292.3" cy="233.2" r="0.2"/>
	<circle class="st10" cx="307.6" cy="234.1" r="0.2"/>
	<circle class="st10" cx="304.8" cy="234.5" r="0.2"/>
	<circle class="st10" cx="301.8" cy="234.8" r="0.2"/>
	<circle class="st10" cx="299.1" cy="234.8" r="0.2"/>
</g>
<g class="st15">
	<circle class="st10" cx="311.6" cy="234.1" r="0.2"/>
	<circle class="st10" cx="310.4" cy="234.4" r="0.2"/>
	<circle class="st10" cx="308.9" cy="234.9" r="0.2"/>
	<circle class="st10" cx="306.3" cy="235.5" r="0.2"/>
	<circle class="st10" cx="303.4" cy="235.8" r="0.2"/>
	<circle class="st10" cx="300.5" cy="235.9" r="0.2"/>
	<circle class="st10" cx="296.3" cy="235.4" r="0.2"/>
	<circle class="st10" cx="297.7" cy="235.7" r="0.2"/>
	<circle class="st10" cx="293.7" cy="234.9" r="0.2"/>
	<circle class="st10" cx="294.9" cy="235.1" r="0.2"/>
	<circle class="st10" cx="292.3" cy="234.4" r="0.2"/>
	<circle class="st10" cx="307.6" cy="235.2" r="0.2"/>
	<circle class="st10" cx="304.8" cy="235.7" r="0.2"/>
	<circle class="st10" cx="301.8" cy="235.9" r="0.2"/>
	<circle class="st10" cx="299.1" cy="235.9" r="0.2"/>
</g>
<g class="st15">
	<circle class="st10" cx="311.6" cy="235.2" r="0.2"/>
	<circle class="st10" cx="310.4" cy="235.6" r="0.2"/>
	<circle class="st10" cx="308.9" cy="236.1" r="0.2"/>
	<circle class="st10" cx="306.3" cy="236.6" r="0.2"/>
	<circle class="st10" cx="303.4" cy="237" r="0.2"/>
	<circle class="st10" cx="300.5" cy="237.1" r="0.2"/>
	<circle class="st10" cx="296.3" cy="236.5" r="0.2"/>
	<circle class="st10" cx="297.7" cy="236.9" r="0.2"/>
	<circle class="st10" cx="293.7" cy="236.1" r="0.2"/>
	<circle class="st10" cx="294.9" cy="236.3" r="0.2"/>
	<circle class="st10" cx="292.3" cy="235.6" r="0.2"/>
	<circle class="st10" cx="307.6" cy="236.4" r="0.2"/>
	<circle class="st10" cx="304.8" cy="236.9" r="0.2"/>
	<circle class="st10" cx="301.8" cy="237.1" r="0.2"/>
	<circle class="st10" cx="299.1" cy="237.1" r="0.2"/>
</g>
<g class="st15">
	<circle class="st10" cx="311.6" cy="236.4" r="0.2"/>
	<circle class="st10" cx="310.4" cy="236.8" r="0.2"/>
	<circle class="st10" cx="308.9" cy="237.2" r="0.2"/>
	<circle class="st10" cx="306.3" cy="237.8" r="0.2"/>
	<circle class="st10" cx="303.4" cy="238.2" r="0.2"/>
	<circle class="st10" cx="300.5" cy="238.3" r="0.2"/>
	<circle class="st10" cx="296.3" cy="237.7" r="0.2"/>
	<circle class="st10" cx="297.7" cy="238.1" r="0.2"/>
	<circle class="st10" cx="293.7" cy="237.2" r="0.2"/>
	<circle class="st10" cx="294.9" cy="237.5" r="0.2"/>
	<circle class="st10" cx="292.3" cy="236.8" r="0.2"/>
	<circle class="st10" cx="307.6" cy="237.6" r="0.2"/>
	<circle class="st10" cx="304.8" cy="238.1" r="0.2"/>
	<circle class="st10" cx="301.8" cy="238.3" r="0.2"/>
	<circle class="st10" cx="299.1" cy="238.3" r="0.2"/>
</g>
<g class="st15">
	<circle class="st10" cx="311.6" cy="237.6" r="0.2"/>
	<circle class="st10" cx="310.4" cy="237.9" r="0.2"/>
	<circle class="st10" cx="308.9" cy="238.4" r="0.2"/>
	<circle class="st10" cx="306.3" cy="239" r="0.2"/>
	<circle class="st10" cx="303.4" cy="239.3" r="0.2"/>
	<circle class="st10" cx="300.5" cy="239.5" r="0.2"/>
	<circle class="st10" cx="296.3" cy="238.9" r="0.2"/>
	<circle class="st10" cx="297.7" cy="239.2" r="0.2"/>
	<circle class="st10" cx="293.7" cy="238.4" r="0.2"/>
	<circle class="st10" cx="294.9" cy="238.6" r="0.2"/>
	<circle class="st10" cx="292.3" cy="237.9" r="0.2"/>
	<circle class="st10" cx="307.6" cy="238.7" r="0.2"/>
	<circle class="st10" cx="304.8" cy="239.2" r="0.2"/>
	<circle class="st10" cx="301.8" cy="239.5" r="0.2"/>
	<circle class="st10" cx="299.1" cy="239.5" r="0.2"/>
</g>
<g class="st15">
	<circle class="st10" cx="311.6" cy="238.8" r="0.2"/>
	<circle class="st10" cx="310.4" cy="239.1" r="0.2"/>
	<circle class="st10" cx="308.9" cy="239.6" r="0.2"/>
	<circle class="st10" cx="306.3" cy="240.2" r="0.2"/>
	<circle class="st10" cx="303.4" cy="240.5" r="0.2"/>
	<circle class="st10" cx="300.5" cy="240.6" r="0.2"/>
	<circle class="st10" cx="296.3" cy="240.1" r="0.2"/>
	<circle class="st10" cx="297.7" cy="240.4" r="0.2"/>
	<circle class="st10" cx="293.7" cy="239.6" r="0.2"/>
	<circle class="st10" cx="294.9" cy="239.8" r="0.2"/>
	<circle class="st10" cx="292.3" cy="239.1" r="0.2"/>
	<circle class="st10" cx="307.6" cy="239.9" r="0.2"/>
	<circle class="st10" cx="304.8" cy="240.4" r="0.2"/>
	<circle class="st10" cx="301.8" cy="240.6" r="0.2"/>
	<circle class="st10" cx="299.1" cy="240.6" r="0.2"/>
</g>
<g class="st15">
	<circle class="st10" cx="311.6" cy="239.9" r="0.2"/>
	<circle class="st10" cx="310.4" cy="240.3" r="0.2"/>
	<circle class="st10" cx="308.9" cy="240.8" r="0.2"/>
	<circle class="st10" cx="306.3" cy="241.3" r="0.2"/>
	<circle class="st10" cx="303.4" cy="241.7" r="0.2"/>
	<circle class="st10" cx="300.5" cy="241.8" r="0.2"/>
	<circle class="st10" cx="296.3" cy="241.2" r="0.2"/>
	<circle class="st10" cx="297.7" cy="241.6" r="0.2"/>
	<circle class="st10" cx="293.7" cy="240.8" r="0.2"/>
	<circle class="st10" cx="294.9" cy="241" r="0.2"/>
	<circle class="st10" cx="292.3" cy="240.3" r="0.2"/>
	<circle class="st10" cx="307.6" cy="241.1" r="0.2"/>
	<circle class="st10" cx="304.8" cy="241.6" r="0.2"/>
	<circle class="st10" cx="301.8" cy="241.8" r="0.2"/>
	<circle class="st10" cx="299.1" cy="241.8" r="0.2"/>
</g>
<g class="st15">
	<circle class="st10" cx="311.6" cy="241.1" r="0.2"/>
	<circle class="st10" cx="310.4" cy="241.5" r="0.2"/>
	<circle class="st10" cx="308.9" cy="241.9" r="0.2"/>
	<circle class="st10" cx="306.3" cy="242.5" r="0.2"/>
	<circle class="st10" cx="303.4" cy="242.9" r="0.2"/>
	<circle class="st10" cx="300.5" cy="243" r="0.2"/>
	<circle class="st10" cx="296.3" cy="242.4" r="0.2"/>
	<circle class="st10" cx="297.7" cy="242.8" r="0.2"/>
	<circle class="st10" cx="293.7" cy="241.9" r="0.2"/>
	<circle class="st10" cx="294.9" cy="242.2" r="0.2"/>
	<circle class="st10" cx="292.3" cy="241.5" r="0.2"/>
	<circle class="st10" cx="307.6" cy="242.3" r="0.2"/>
	<circle class="st10" cx="304.8" cy="242.8" r="0.2"/>
	<circle class="st10" cx="301.8" cy="243" r="0.2"/>
	<circle class="st10" cx="299.1" cy="243" r="0.2"/>
</g>
<g class="st15">
	<circle class="st10" cx="311.6" cy="242.3" r="0.2"/>
	<circle class="st10" cx="310.4" cy="242.6" r="0.2"/>
	<circle class="st10" cx="308.9" cy="243.1" r="0.2"/>
	<circle class="st10" cx="306.3" cy="243.7" r="0.2"/>
	<circle class="st10" cx="303.4" cy="244" r="0.2"/>
	<circle class="st10" cx="300.5" cy="244.2" r="0.2"/>
	<circle class="st10" cx="296.3" cy="243.6" r="0.2"/>
	<circle class="st10" cx="297.7" cy="243.9" r="0.2"/>
	<circle class="st10" cx="293.7" cy="243.1" r="0.2"/>
	<circle class="st10" cx="294.9" cy="243.3" r="0.2"/>
	<circle class="st10" cx="292.3" cy="242.6" r="0.2"/>
	<circle class="st10" cx="307.6" cy="243.4" r="0.2"/>
	<circle class="st10" cx="304.8" cy="243.9" r="0.2"/>
	<circle class="st10" cx="301.8" cy="244.2" r="0.2"/>
	<circle class="st10" cx="299.1" cy="244.2" r="0.2"/>
</g>
<g class="st15">
	<circle class="st10" cx="311.6" cy="243.5" r="0.2"/>
	<circle class="st10" cx="310.4" cy="243.8" r="0.2"/>
	<circle class="st10" cx="308.9" cy="244.3" r="0.2"/>
	<circle class="st10" cx="306.3" cy="244.9" r="0.2"/>
	<circle class="st10" cx="303.4" cy="245.2" r="0.2"/>
	<circle class="st10" cx="300.5" cy="245.3" r="0.2"/>
	<circle class="st10" cx="296.3" cy="244.8" r="0.2"/>
	<circle class="st10" cx="297.7" cy="245.1" r="0.2"/>
	<circle class="st10" cx="293.7" cy="244.3" r="0.2"/>
	<circle class="st10" cx="294.9" cy="244.5" r="0.2"/>
	<circle class="st10" cx="292.3" cy="243.8" r="0.2"/>
	<circle class="st10" cx="307.6" cy="244.6" r="0.2"/>
	<circle class="st10" cx="304.8" cy="245.1" r="0.2"/>
	<circle class="st10" cx="301.8" cy="245.3" r="0.2"/>
	<circle class="st10" cx="299.1" cy="245.3" r="0.2"/>
</g>
<g class="st15">
	<circle class="st10" cx="311.6" cy="244.6" r="0.2"/>
	<circle class="st10" cx="310.4" cy="245" r="0.2"/>
	<circle class="st10" cx="308.9" cy="245.5" r="0.2"/>
	<circle class="st10" cx="306.3" cy="246" r="0.2"/>
	<circle class="st10" cx="303.4" cy="246.4" r="0.2"/>
	<circle class="st10" cx="300.5" cy="246.5" r="0.2"/>
	<circle class="st10" cx="296.3" cy="245.9" r="0.2"/>
	<circle class="st10" cx="297.7" cy="246.3" r="0.2"/>
	<circle class="st10" cx="293.7" cy="245.5" r="0.2"/>
	<circle class="st10" cx="294.9" cy="245.7" r="0.2"/>
	<circle class="st10" cx="292.3" cy="245" r="0.2"/>
	<circle class="st10" cx="307.6" cy="245.8" r="0.2"/>
	<circle class="st10" cx="304.8" cy="246.3" r="0.2"/>
	<circle class="st10" cx="301.8" cy="246.5" r="0.2"/>
	<circle class="st10" cx="299.1" cy="246.5" r="0.2"/>
</g>
<g class="st15">
	<circle class="st10" cx="311.6" cy="245.8" r="0.2"/>
	<circle class="st10" cx="310.4" cy="246.2" r="0.2"/>
	<circle class="st10" cx="308.9" cy="246.6" r="0.2"/>
	<circle class="st10" cx="306.3" cy="247.2" r="0.2"/>
	<circle class="st10" cx="303.4" cy="247.6" r="0.2"/>
	<circle class="st10" cx="300.5" cy="247.7" r="0.2"/>
	<circle class="st10" cx="296.3" cy="247.1" r="0.2"/>
	<circle class="st10" cx="297.7" cy="247.4" r="0.2"/>
	<circle class="st10" cx="293.7" cy="246.6" r="0.2"/>
	<circle class="st10" cx="294.9" cy="246.9" r="0.2"/>
	<circle class="st10" cx="292.3" cy="246.2" r="0.2"/>
	<circle class="st10" cx="307.6" cy="247" r="0.2"/>
	<circle class="st10" cx="304.8" cy="247.4" r="0.2"/>
	<circle class="st10" cx="301.8" cy="247.7" r="0.2"/>
	<circle class="st10" cx="299.1" cy="247.7" r="0.2"/>
</g>
<g class="st15">
	<circle class="st10" cx="311.6" cy="247" r="0.2"/>
	<circle class="st10" cx="310.4" cy="247.3" r="0.2"/>
	<circle class="st10" cx="308.9" cy="247.8" r="0.2"/>
	<circle class="st10" cx="306.3" cy="248.4" r="0.2"/>
	<circle class="st10" cx="303.4" cy="248.7" r="0.2"/>
	<circle class="st10" cx="300.5" cy="248.9" r="0.2"/>
	<circle class="st10" cx="296.3" cy="248.3" r="0.2"/>
	<circle class="st10" cx="297.7" cy="248.6" r="0.2"/>
	<circle class="st10" cx="293.7" cy="247.8" r="0.2"/>
	<circle class="st10" cx="294.9" cy="248" r="0.2"/>
	<circle class="st10" cx="292.3" cy="247.3" r="0.2"/>
	<circle class="st10" cx="307.6" cy="248.1" r="0.2"/>
	<circle class="st10" cx="304.8" cy="248.6" r="0.2"/>
	<circle class="st10" cx="301.8" cy="248.9" r="0.2"/>
	<circle class="st10" cx="299.1" cy="248.9" r="0.2"/>
</g>
<g class="st15">
	<circle class="st10" cx="311.6" cy="248.2" r="0.2"/>
	<circle class="st10" cx="310.4" cy="248.5" r="0.2"/>
	<circle class="st10" cx="308.9" cy="249" r="0.2"/>
	<circle class="st10" cx="306.3" cy="249.6" r="0.2"/>
	<circle class="st10" cx="303.4" cy="249.9" r="0.2"/>
	<circle class="st10" cx="300.5" cy="250" r="0.2"/>
	<circle class="st10" cx="296.3" cy="249.5" r="0.2"/>
	<circle class="st10" cx="297.7" cy="249.8" r="0.2"/>
	<circle class="st10" cx="293.7" cy="249" r="0.2"/>
	<circle class="st10" cx="294.9" cy="249.2" r="0.2"/>
	<circle class="st10" cx="292.3" cy="248.5" r="0.2"/>
	<circle class="st10" cx="307.6" cy="249.3" r="0.2"/>
	<circle class="st10" cx="304.8" cy="249.8" r="0.2"/>
	<circle class="st10" cx="301.8" cy="250" r="0.2"/>
	<circle class="st10" cx="299.1" cy="250" r="0.2"/>
</g>
<g class="st15">
	<circle class="st10" cx="311.6" cy="249.3" r="0.2"/>
	<circle class="st10" cx="310.4" cy="249.7" r="0.2"/>
	<circle class="st10" cx="308.9" cy="250.2" r="0.2"/>
	<circle class="st10" cx="306.3" cy="250.7" r="0.2"/>
	<circle class="st10" cx="303.4" cy="251.1" r="0.2"/>
	<circle class="st10" cx="300.5" cy="251.2" r="0.2"/>
	<circle class="st10" cx="296.3" cy="250.6" r="0.2"/>
	<circle class="st10" cx="297.7" cy="251" r="0.2"/>
	<circle class="st10" cx="293.7" cy="250.2" r="0.2"/>
	<circle class="st10" cx="294.9" cy="250.4" r="0.2"/>
	<circle class="st10" cx="292.3" cy="249.7" r="0.2"/>
	<circle class="st10" cx="307.6" cy="250.5" r="0.2"/>
	<circle class="st10" cx="304.8" cy="251" r="0.2"/>
	<circle class="st10" cx="301.8" cy="251.2" r="0.2"/>
	<circle class="st10" cx="299.1" cy="251.2" r="0.2"/>
</g>
<g class="st15">
	<circle class="st10" cx="311.6" cy="250.5" r="0.2"/>
	<circle class="st10" cx="310.4" cy="250.9" r="0.2"/>
	<circle class="st10" cx="308.9" cy="251.3" r="0.2"/>
	<circle class="st10" cx="306.3" cy="251.9" r="0.2"/>
	<circle class="st10" cx="303.4" cy="252.3" r="0.2"/>
	<circle class="st10" cx="300.5" cy="252.4" r="0.2"/>
	<circle class="st10" cx="296.3" cy="251.8" r="0.2"/>
	<circle class="st10" cx="297.7" cy="252.1" r="0.2"/>
	<circle class="st10" cx="293.7" cy="251.3" r="0.2"/>
	<circle class="st10" cx="294.9" cy="251.6" r="0.2"/>
	<circle class="st10" cx="292.3" cy="250.9" r="0.2"/>
	<circle class="st10" cx="307.6" cy="251.7" r="0.2"/>
	<circle class="st10" cx="304.8" cy="252.1" r="0.2"/>
	<circle class="st10" cx="301.8" cy="252.4" r="0.2"/>
	<circle class="st10" cx="299.1" cy="252.4" r="0.2"/>
</g>
<g class="st15">
	<circle class="st10" cx="311.6" cy="251.7" r="0.2"/>
	<circle class="st10" cx="310.4" cy="252" r="0.2"/>
	<circle class="st10" cx="308.9" cy="252.5" r="0.2"/>
	<circle class="st10" cx="306.3" cy="253.1" r="0.2"/>
	<circle class="st10" cx="303.4" cy="253.4" r="0.2"/>
	<circle class="st10" cx="300.5" cy="253.6" r="0.2"/>
	<circle class="st10" cx="296.3" cy="253" r="0.2"/>
	<circle class="st10" cx="297.7" cy="253.3" r="0.2"/>
	<circle class="st10" cx="293.7" cy="252.5" r="0.2"/>
	<circle class="st10" cx="294.9" cy="252.7" r="0.2"/>
	<circle class="st10" cx="292.3" cy="252" r="0.2"/>
	<circle class="st10" cx="307.6" cy="252.8" r="0.2"/>
	<circle class="st10" cx="304.8" cy="253.3" r="0.2"/>
	<circle class="st10" cx="301.8" cy="253.6" r="0.2"/>
	<circle class="st10" cx="299.1" cy="253.6" r="0.2"/>
</g>
<circle class="st0" cx="427.3" cy="86.6" r="11.1"/>
<circle class="st0" cx="476.4" cy="113.7" r="8.7"/>
<circle class="st0" cx="496.8" cy="73.8" r="3.1"/>
<path class="st7" d="M69.7,391.9c0,0,3.6,4.8-1.7,12c-5.3,7.2-9.7,13.3-8,17.8c0,0,8-13.4,14.6-13.6C81.2,408,76.9,400,69.7,391.9z"
	/>
<path class="st2" d="M69.7,391.9c0.3,0.5,0.6,1,0.7,1.5c6.4,7.5,9.8,14.5,3.7,14.7c-5.7,0.2-12.6,10.4-14.2,13
	c0.1,0.2,0.1,0.4,0.2,0.6c0,0,8-13.4,14.6-13.6C81.2,408,76.9,400,69.7,391.9z"/>
<path class="st16" d="M76.5,398c0,1.7-0.2,3-0.4,3s-0.4-1.4-0.4-3s0.2-0.9,0.5-0.9S76.5,396.3,76.5,398z"/>
<path class="st16" d="M78.8,400c-1.5,0.8-2.8,1.3-2.9,1.1s1-1,2.5-1.8c1.5-0.8,0.9-0.2,1,0C79.6,399.5,80.3,399.2,78.8,400z"/>
<path class="st7" d="M50.4,391.9c0,0-3.6,4.8,1.7,12c5.3,7.2,9.7,13.3,8,17.8c0,0-8.1-13.4-14.6-13.6C38.9,408,43.2,400,50.4,391.9z
	"/>
<path class="st2" d="M50.4,391.9c-0.3,0.5-0.6,1-0.7,1.5c-6.4,7.5-9.8,14.5-3.7,14.7c5.7,0.2,12.6,10.4,14.2,13
	c-0.1,0.2-0.1,0.4-0.2,0.6c0,0-8.1-13.4-14.6-13.6C38.9,408,43.2,400,50.4,391.9z"/>
<path class="st16" d="M43.6,398c0,1.7,0.2,3,0.4,3s0.4-1.4,0.4-3s-0.2-0.9-0.5-0.9S43.6,396.3,43.6,398z"/>
<path class="st16" d="M41.3,400c1.5,0.8,2.8,1.3,2.9,1.1c0.1-0.2-1-1-2.5-1.8c-1.5-0.8-0.9-0.2-1,0C40.5,399.5,39.8,399.2,41.3,400z
	"/>
<ellipse transform="matrix(0.9975 -7.062699e-02 7.062699e-02 0.9975 -31.8012 5.3674)" class="st0" cx="60" cy="452.4" rx="38.2" ry="5.9"/>
<path class="st1" d="M79.7,415.3l-0.2,1.5l-0.3,2.1l-0.1,0.9l-0.3,2.1l-0.1,0.9l-0.3,2.1l-2.9,23.9c-0.3,2.1-3.8,3.8-8,3.8H52.4
	c-4.2,0-7.7-1.7-8-3.8l-2.9-23.9l-0.3-2.1l-0.1-0.9l-0.3-2.1l-0.1-0.9l-0.3-2.1l-0.2-1.5c-0.1-1.2,1.7-2.2,4.1-2.2h31
	C77.9,413,79.8,414.1,79.7,415.3z"/>
<polygon class="st17" points="79.5,416.8 79.2,418.9 40.8,418.9 40.6,416.8 "/>
<polygon class="st17" points="79.1,419.8 78.9,421.9 41.2,421.9 40.9,419.8 "/>
<polygon class="st17" points="78.8,422.7 78.5,424.8 41.6,424.8 41.3,422.7 "/>
<polygon class="st2" points="364.9,245.5 378.9,246.3 355.9,253.5 344.1,252.8 "/>
<polygon class="st18" points="364.9,244.9 378.9,245.6 355.9,252.9 344.1,252.2 "/>
<path class="st19" d="M363.3,246.5c0.5-0.2,1.1,0.2,1.7,0.3c0.3,0.1,0.7,0,1,0.1c0.7,0.1,1.4,0.5,2,0.3L363.3,246.5z"/>
<path class="st19" d="M362.6,246.9c0.5-0.2,1.1,0.2,1.7,0.3c0.3,0.1,0.7,0,1,0.1c0.7,0.1,1.4,0.5,2,0.3L362.6,246.9z"/>
<path class="st19" d="M360.9,247.8c0.5-0.2,1.1,0.2,1.7,0.3c0.3,0.1,0.7,0,1,0.1c0.7,0.1,1.4,0.5,2,0.3L360.9,247.8z"/>
<path class="st7" d="M396.3,242.8c0,0-1.8,8.1,6,9.1l0.5-0.9C402.8,251,396.8,245.3,396.3,242.8z"/>
<path class="st7" d="M405.3,250.9l-1.8,0.4l-0.2,0c0,0-4.8-3.9-4.8-12.7c0.6,1.3,1.4,2.5,2.3,3.6
	C402.7,244.9,404.9,248.3,405.3,250.9z"/>
<path class="st7" d="M405.9,251.8c-0.3,0.2-0.6,0.2-1,0.1c-4.6-1.1-3.1-16.2-3.1-16.2c0.3,0.1,0.5,2,1.6,4.5
	C405.3,244.6,407.4,250.7,405.9,251.8z"/>
<path class="st7" d="M416.2,242.8c0,0,0.3,8.1-7.5,9.1l-0.5-0.9C408.2,251,415.7,245.3,416.2,242.8z"/>
<path class="st7" d="M414,238.7c0.1,8.8-6.2,12.7-6.2,12.7l-0.2,0l-1.8-0.4c0.4-2.7,2.6-6.1,4.4-8.6
	C411.3,241,412.6,239.7,414,238.7z"/>
<path class="st7" d="M407.5,251c-0.3,0.3-0.6,0.6-1,0.8l0,0c-0.1,0.1-0.3,0.1-0.4,0.1c-1.1,0.3-1.5-0.6-1.5-2
	c0.1-2.5,1.7-6.8,3.1-10.1c0.7-1.6,1.7-3,2.9-4.2C410.6,235.7,410.6,247.5,407.5,251z"/>
<path class="st7" d="M406.2,230.4c0,0-5.2,18.4-0.7,21.2C410,254.3,407.4,232,406.2,230.4z"/>
<path class="st2" d="M396.3,242.8c0,0-1.8,8.1,6,9.1l0.5-0.9C402.8,251,396.8,245.3,396.3,242.8z"/>
<path class="st2" d="M405.3,250.9l-1.8,0.4l-0.2,0c0,0-4.8-3.9-4.8-12.7c0.6,1.3,1.4,2.5,2.3,3.6
	C402.7,244.9,404.9,248.3,405.3,250.9z"/>
<path class="st2" d="M405.9,251.8c-0.3,0.2-0.6,0.2-1,0.1c-4.6-1.1-3.1-16.2-3.1-16.2c0.3,0.1,0.5,2,1.6,4.5
	C405.3,244.6,407.4,250.7,405.9,251.8z"/>
<path class="st2" d="M416.2,242.8c0,0,0.3,8.1-7.5,9.1l-0.5-0.9C408.2,251,415.7,245.3,416.2,242.8z"/>
<path class="st2" d="M414,238.7c0.1,8.8-6.2,12.7-6.2,12.7l-0.2,0l-1.8-0.4c0.4-2.7,2.6-6.1,4.4-8.6
	C411.3,241,412.6,239.7,414,238.7z"/>
<path class="st2" d="M407.5,251c-0.3,0.3-0.6,0.6-1,0.8l0,0c-0.1,0.1-0.3,0.1-0.4,0.1c-1.1,0.3-1.5-0.6-1.5-2
	c0.1-2.5,1.7-6.8,3.1-10.1c0.7-1.6,1.7-3,2.9-4.2C410.6,235.7,410.6,247.5,407.5,251z"/>
<path class="st2" d="M406.2,230.4c0,0-5.2,18.4-0.7,21.2C410,254.3,407.4,232,406.2,230.4z"/>
<path class="st7" d="M396.3,242.8c0,0-1,8.1,6.8,9.1l0.5-0.9C403.5,251,396.8,245.3,396.3,242.8z"/>
<path class="st7" d="M406,250.9l-1.8,0.4l-0.2,0c0,0-5.6-3.9-5.5-12.7c0,0,1.4,1.5,3,3.6C403.5,244.9,405.6,248.3,406,250.9z"/>
<path class="st2" d="M406,250.9l-1.8,0.4c-1.7-1.5-2.4-5.4-2.6-9C403.5,244.9,405.6,248.3,406,250.9z"/>
<path class="st7" d="M406.6,251.8c-0.3,0.2-0.6,0.2-1,0.1c-4.6-1.1-3.8-16.2-3.8-16.2c0.3,0.1,1.3,2,2.3,4.5
	C406,244.6,408.1,250.7,406.6,251.8z"/>
<path class="st7" d="M416.2,242.8c0,0,1,8.1-6.8,9.1L409,251C409,251,415.7,245.3,416.2,242.8z"/>
<path class="st7" d="M414,238.7c0.1,8.8-5.5,12.7-5.5,12.7l-0.2,0l-1.8-0.4c0.4-2.7,2.6-6.1,4.5-8.6
	C412.5,240.2,414,238.7,414,238.7z"/>
<path class="st2" d="M410.9,242.3c-0.2,3.3-0.8,6.9-2.3,8.6c-0.1,0.1-0.2,0.2-0.3,0.3l-1.8-0.4C406.8,248.3,409,244.9,410.9,242.3z"
	/>
<path class="st7" d="M408.3,251c-0.3,0.3-0.6,0.6-1,0.8l0,0c-0.1,0.1-0.2,0.1-0.4,0.1c-1.1,0.3-1.5-0.6-1.5-2
	c0.1-2.5,1.7-6.8,3.1-10.1c1-2.3,1.9-4.1,2.2-4.2C410.6,235.7,411.3,247.5,408.3,251z"/>
<path class="st2" d="M406.6,251.8c-0.3,0-0.5-0.1-0.7-0.2c-2.2-1.4-2.2-6.5-1.7-11.3C406,244.6,408.1,250.7,406.6,251.8z"/>
<path class="st2" d="M408.3,251c-0.3,0.5-0.6,0.8-1,0.8l0,0c-0.2,0-0.4-0.1-0.6-0.2c-0.6-0.4-1-0.9-1.2-1.6
	c0.1-2.5,1.7-6.8,3.1-10.1C409,244.4,409.1,249.2,408.3,251z"/>
<path class="st7" d="M406.2,230.4c0,0-4.5,18.4,0,21.2C410.7,254.3,407.4,232,406.2,230.4z"/>
<polygon class="st1" points="413.2,252.5 412.9,254.1 411.8,260.1 401,260.1 399.9,254.1 399.5,252.5 "/>
<polygon class="st2" points="413.2,252.5 412.9,254.1 399.9,254.1 399.5,252.5 "/>
<rect x="396.9" y="250.6" class="st1" width="18.6" height="3.1"/>
<path class="st12" d="M446.9,276.7c0,0,36.7,23,28.7,60.1c-0.7,3-1.2,6.1-1.6,9.1c-1.5,12-10.3,46.5-62.9,62.3v3.6l22.3-6.2
	l15.2-8.4l11.6-10.4l14.1-17.3l6.6-14.1l2.4-18.5l1.4-21.2l-3.4-18.1l-8-11.8l-9.7-7.6L446.9,276.7z"/>
<path class="st11" d="M108.5,375.5c-3.5,18.4-0.8,37.6,8.3,54c26.4,47.9,82.5,33.8,99.1,28.4c3.9-1.3,7.9-2.4,12-3.3l182.4-41.3
	c62.8-10.9,75.7-61.8,75.7-61.8c12.4-39.2,3.9-62.1-7.3-75c-9-10.3-22.3-15.8-35.9-15l-21.6,1.1l-192.3,21
	C138.9,284.6,114.8,341.8,108.5,375.5z M126.3,377.8c6.1-29,29.9-71.1,106.4-73.6c3.5-0.1,7-0.4,10.5-0.9l172-23l19.9-1
	c15-0.8,29.4,6.2,37.7,18.7c7.9,11.9,12.2,30.7,2.4,59.9c0,0-12,44.4-70,53.9l-168.5,36.1c-3.8,0.8-7.6,1.8-11.4,3
	c-15.3,4.7-66.1,16.7-90.8-23.5C125.5,412.6,122.8,394.8,126.3,377.8L126.3,377.8z"/>
</svg>
