<?xml version="1.0" encoding="utf-8"?>
<!-- Generator: Adobe Illustrator 24.0.3, SVG Export Plug-In . SVG Version: 6.00 Build 0)  -->
<svg version="1.1" id="Capa_1" xmlns="http://www.w3.org/2000/svg" xmlns:xlink="http://www.w3.org/1999/xlink" x="0px" y="0px"
	 viewBox="0 0 500 500" style="enable-background:new 0 0 500 500;" xml:space="preserve">
<style type="text/css">
	.st0{fill:#302F42;}
	.st1{fill:#E7E6E6;}
	.st2{fill:#FFFFFF;}
	.st3{fill:#CDCCCC;}
	.st4{fill:#B4358A;}
	.st5{fill:#403E56;}
</style>
<path class="st0" d="M-437.7,794c9.6,2.7,19.7,2.5,29.1-0.8c0.2-0.1,0.4-0.1,0.5-0.2c-2.2-1.7-4.7-3-7.4-3.8c0.2-0.7,0.2-1.4,0-2
	c-0.5-1.7-2.2-2.9-4-2.9h-5.7c-1.8,0-3.4,1.2-4,2.9c-0.2,0.7-0.2,1.4,0,2.1c-2.4,0.7-4.6,1.8-6.6,3.2c-0.4,0.3-0.8,0.6-1.2,0.9
	C-437.1,793.5-437.4,793.7-437.7,794z"/>
<g>
	<path class="st1" d="M346.6,407.4H130.2c-15.3,0-27.7-12.4-27.7-27.7V125.6c0-15.3,12.4-27.7,27.7-27.7h201.3l42.8,34.1v247.7
		C374.2,395,361.9,407.4,346.6,407.4z"/>
	<path class="st2" d="M130.2,105.9c-10.9,0-19.7,8.8-19.7,19.7v254.1c0,10.9,8.8,19.7,19.7,19.7h216.4c10.9,0,19.7-8.8,19.7-19.7
		V135.8l-37.6-29.9H130.2z"/>
	<path class="st3" d="M301.4,179.7H156.3c-2.5,0-4.6-2.1-4.6-4.6c0-2.5,2.1-4.6,4.6-4.6c0,0,0,0,0,0h145.1c2.5,0,4.6,2.1,4.6,4.6
		C306,177.7,304,179.7,301.4,179.7z"/>
	<path class="st3" d="M320.4,195.3H156.3c-2.5,0-4.6-2.1-4.6-4.6c0-2.5,2.1-4.6,4.6-4.6h164.1c2.5,0,4.6,2.1,4.6,4.6
		C325.1,193.2,323,195.3,320.4,195.3z"/>
	<path class="st4" d="M301.4,249.5H156.3c-2.5,0-4.6-2.1-4.6-4.6c0-2.5,2.1-4.6,4.6-4.6c0,0,0,0,0,0h145.1c2.5,0,4.6,2.1,4.6,4.6
		C306,247.4,304,249.5,301.4,249.5z"/>
	<path class="st3" d="M320.4,265H156.3c-2.5,0-4.6-2.1-4.6-4.6c0-2.5,2.1-4.6,4.6-4.6h164.1c2.5,0,4.6,2.1,4.6,4.6
		C325.1,263,323,265,320.4,265z"/>
	<path class="st3" d="M301.4,319.2H156.3c-2.5,0-4.6-2.1-4.6-4.6c0-2.5,2.1-4.6,4.6-4.6l0,0h145.1c2.5,0,4.6,2.1,4.6,4.6
		C306,317.1,304,319.2,301.4,319.2z"/>
	<path class="st3" d="M320.4,334.7H156.3c-2.5,0-4.6-2.1-4.6-4.6c0-2.5,2.1-4.6,4.6-4.6h164.1c2.5,0,4.6,2.1,4.6,4.6
		C325.1,332.7,323,334.7,320.4,334.7z"/>
	<path class="st1" d="M373.4,133.1h-33.5c-5.1,0-9.2-4.1-9.2-9.2c0,0,0,0,0,0V99.1c0-0.3,0.3-0.6,0.6-0.6c0.1,0,0.3,0,0.4,0.1
		l42.1,33.4c0.2,0.2,0.3,0.6,0.1,0.8C373.8,133,373.6,133.1,373.4,133.1z"/>
	<path class="st2" d="M163.2,119.7c0,34.9-28.3,63.3-63.3,63.3s-63.3-28.3-63.3-63.3S65,56.5,99.9,56.5
		C134.9,56.5,163.2,84.8,163.2,119.7z"/>
	<path class="st4" d="M129.2,130.6c-0.7,40.5-60.9,40.5-61.6,0C68.3,90.1,128.5,90.1,129.2,130.6z"/>
	<path class="st0" d="M97.2,143.1l0-1.2c7.9,1.1,9.6-8.8,1.6-5.1l1.8-13.3l1.1,0.2l-1.6,11.3C108.6,133.8,105.5,144.3,97.2,143.1z"
		/>
	<rect x="107.4" y="124.7" class="st0" width="6.2" height="1.2"/>
	<rect x="87.8" y="124.7" class="st0" width="6.2" height="1.2"/>
	<path class="st0" d="M108.4,173.6c1.2-8.1-8.3-6.5-13.4-6.6c-3,0-5.5,2.5-5.5,5.5c0,0.4,0,0.8,0.1,1.1c-3.9,1.2-7.5,3.2-10.6,5.9
		c13.1,4.6,27.3,4.7,40.5,0.4C116.3,177,112.5,174.9,108.4,173.6z"/>
	<path class="st0" d="M83.9,116c5.7-3.3,12.6-0.8,18.5,0.6c11.2,3.4,26.9-0.9,28.2-14.2c1.4-12.4-15.5-19.3-20.9-7l1.6-0.2
		C93.7,69.2,63.2,70.2,63.4,106c-0.1,1.1,1.7,1.1,1.7,0c-0.6-21.1,13.3-35.6,33.1-22c4.5,3.3,8.2,7.7,11.6,12.1
		c2.1,2.3,2.5-7.6,12.4-5c10.9,4.2,7.3,19.7-2.4,23.2c-12,6.1-25-5.7-36.7,0.3c-0.4,0.3-0.5,0.8-0.3,1.2
		C83,116.1,83.5,116.2,83.9,116L83.9,116z"/>
	<path class="st3" d="M99.9,184.7c-35.9,0-64.9-29.1-64.9-65c0-35.9,29.1-64.9,65-64.9c35.9,0,64.9,29.1,64.9,65
		c0,28.1-18.1,53-44.9,61.7C113.5,183.7,106.8,184.7,99.9,184.7z M99.9,58.2c-34,0-61.6,27.5-61.6,61.5s27.5,61.6,61.5,61.6
		c34,0,61.6-27.5,61.6-61.5c0,0,0,0,0,0C161.4,85.8,133.9,58.2,99.9,58.2z"/>
	<path class="st2" d="M468.6,249.7c0,27.4-17.6,51.7-43.7,60.2c-0.4,0.1-0.8,0.2-1.1,0.4c-1.6,0.5-3.3,0.9-5,1.3
		c-3.1,0.7-6.2,1.1-9.3,1.3c-1.4,0.1-2.7,0.1-4.1,0.1c-7.1,0-14.2-1.2-20.9-3.5c-0.2-0.1-0.4-0.1-0.6-0.2
		c-32.9-11.9-49.9-48.1-38-81c11.9-32.9,48.1-49.9,81-38C451.9,199.3,468.6,223.1,468.6,249.7z"/>
	<circle class="st4" cx="403.8" cy="260.9" r="30.8"/>
	<path class="st0" d="M405.6,277.4l0-1.2c-2.1-0.1-4-0.2-5.4-1.2c-0.8-0.6-1.3-1.6-1.4-2.6c-0.1-0.6,0.2-1.2,0.7-1.7
		c0.9-0.8,2.5-0.5,3.6,0l1,0.4l-1.8-13.3L401,258l1.6,11.3c-1.5-0.4-2.9-0.3-3.8,0.6c-0.7,0.6-1.1,1.6-1.1,2.6
		c0.1,1.4,0.7,2.7,1.8,3.5C401.3,277.3,403.7,277.4,405.6,277.4z"/>
	<rect x="389.2" y="259" class="st0" width="6.2" height="1.2"/>
	<rect x="408.7" y="259" class="st0" width="6.2" height="1.2"/>
	<path class="st0" d="M412.5,303.9c0.1-0.4,0.1-0.8,0.1-1.2c0-3-2.4-5.5-5.5-5.5h-8.1c-3,0-5.5,2.4-5.5,5.5c0,0.4,0,0.8,0.1,1.2
		c-3,1-5.9,2.4-8.5,4.2c-0.5,0.4-1,0.7-1.5,1.1c0.2,0.1,0.4,0.1,0.6,0.2c6.7,2.4,13.8,3.5,20.9,3.5c1.4,0,2.8,0,4.1-0.1
		c3.1-0.2,6.3-0.6,9.3-1.3c1.7-0.4,3.4-0.8,5-1.3C420.5,307.4,416.7,305.2,412.5,303.9z"/>
	<path class="st0" d="M411.5,312.1c-0.7,0.1-1.5,0.3-2.1,0.7c3.1-0.2,6.3-0.6,9.3-1.3L411.5,312.1z"/>
	<path class="st0" d="M431.7,253.5L378.2,234c-1.2-0.4-1.8-1.8-1.4-3l0.2-0.9c4.2-11.4,18-18.6,29.4-14.4l16.5,6
		c11.4,4.2,16.4,17.7,12.2,29.1l-0.5,1.3C434.2,253.4,432.9,254,431.7,253.5C431.7,253.5,431.7,253.5,431.7,253.5z"/>
	<path class="st0" d="M434.6,254.6c-74.5,2.7-81-6.6-58.3-21.3l4.8-8.9l55.2,20.1L434.6,254.6z"/>
	<ellipse transform="matrix(0.2879 -0.9577 0.9577 0.2879 86.0539 553.6431)" class="st0" cx="415.3" cy="219" rx="2.6" ry="4.9"/>
	<path class="st3" d="M405.3,314.7c-7.3,0-14.6-1.2-21.5-3.6l-0.6-0.2c-33.8-12.2-51.2-49.5-39-83.2c12.2-33.8,49.5-51.2,83.2-39
		s51.2,49.5,39,83.2c-6.8,18.8-21.9,33.5-41,39.7c-0.4,0.1-0.8,0.3-1.2,0.4c-1.6,0.5-3.4,1-5.1,1.3c-3.2,0.7-6.4,1.1-9.6,1.3
		C408.1,314.7,406.7,314.7,405.3,314.7z M405.3,188.2c-34,0-61.5,27.6-61.5,61.6c0,25.9,16.2,49.1,40.6,57.9l0.6,0.2
		c6.5,2.3,13.4,3.5,20.3,3.4c1.3,0,2.7,0,4-0.1c3.1-0.2,6.1-0.6,9.1-1.3c1.7-0.4,3.3-0.8,4.9-1.3c0.4-0.1,0.8-0.2,1.1-0.3
		c32.3-10.5,50-45.3,39.5-77.6C455.6,205.3,432,188.2,405.3,188.2z"/>
	<path class="st2" d="M30.9,382.6c0,16.8,6.7,32.9,18.6,44.8c0.5,0.5,1,1,1.5,1.5c3.1,2.9,6.4,5.4,10,7.7c0.7,0.4,1.4,0.8,2.1,1.2
		c3.6,2,7.5,3.7,11.4,5c0.7,0.2,1.4,0.4,2.1,0.6c12.6,3.6,26,3.2,38.4-1.1c0.2-0.1,0.5-0.2,0.7-0.3c32.8-11.9,49.8-48.2,37.8-81.1
		c-11.9-32.8-48.3-49.8-81.1-37.8C47.5,332.2,30.9,356,30.9,382.6z"/>
	<path class="st0" d="M80.8,413.6c0,4.9-1.8,9.6-5.1,13.3c-3.3,3.6-8.1,5.9-13,5c-4.5-0.9-8.2-4.8-7.7-9.6c0.3-3.9,3.7-6.9,7.6-6.6
		c0.4,0,0.8,0.1,1.2,0.2c4.3,1.1,6,7.3,2.4,10.2c-0.9,0.7-2.1-0.5-1.2-1.2c2.4-1.9,1.6-6.1-1.2-7.1c-3.3-1.2-6.8,1.4-7.1,4.8
		c-0.3,4,2.8,7,6.6,7.7c4.1,0.8,8.1-1.3,10.9-4.2c3.2-3.3,4.9-7.8,4.9-12.4c0-0.5,0.4-0.8,0.9-0.8C80.4,412.8,80.8,413.1,80.8,413.6
		L80.8,413.6z"/>
	<circle class="st4" cx="97.7" cy="393.8" r="30.8"/>
	<path class="st0" d="M96.1,406.9l0-1.2c2.1-0.1,4-0.2,5.4-1.2c0.8-0.6,1.3-1.6,1.4-2.6c0.1-0.6-0.2-1.2-0.7-1.7
		c-0.9-0.8-2.5-0.5-3.6,0l-1,0.4l1.8-13.3l1.1,0.2l-1.6,11.3c1.5-0.4,2.9-0.3,3.8,0.6c0.7,0.6,1.1,1.6,1.1,2.6
		c-0.1,1.4-0.7,2.7-1.8,3.5C100.4,406.8,98,406.8,96.1,406.9z"/>
	<rect x="106.3" y="388.5" class="st0" width="6.2" height="1.2"/>
	<rect x="86.7" y="388.5" class="st0" width="6.2" height="1.2"/>
	<path class="st5" d="M121.8,390.5c0,5.2,2.6,9.5,5.9,10.2c0.3,0.1,0.7,0.1,1,0.1c3.8,0,6.9-4.6,6.9-10.4c0-3.3-1-6.3-2.7-8.2
		c-0.6-0.7-1.3-1.2-2-1.7c-0.7-0.4-1.4-0.5-2.2-0.5c-1.1,0-2.1,0.4-2.9,1C123.4,382.8,121.8,386.4,121.8,390.5z"/>
	<path class="st5" d="M60.2,390.5c0,4.5,1.9,8.3,4.5,9.7c0.7,0.4,1.5,0.6,2.4,0.6c0.2,0,0.4,0,0.6,0c3.5-0.4,6.3-4.9,6.3-10.3
		c0-4.4-1.8-8.1-4.3-9.6c-0.8-0.5-1.7-0.7-2.6-0.7c-0.8,0-1.5,0.2-2.2,0.5c-0.8,0.4-1.5,1-2,1.7C61.3,384.2,60.2,387.2,60.2,390.5z"
		/>
	<path class="st5" d="M65.2,399.2c0.5,0,0.9-0.4,0.9-0.9c0-0.1,0-0.2,0-0.3c-5.9-17.6,3.6-36.7,21.2-42.6
		c17.6-5.9,36.7,3.6,42.6,21.2c1.9,5.7,2.3,11.8,1,17.7c-0.1,0.5,0.2,0.9,0.7,1c0.5,0.1,0.9-0.2,1-0.7c4-19.1-8.2-37.9-27.3-41.9
		c-19.1-4-37.9,8.2-41.9,27.3c-1.3,6.2-0.9,12.6,1.1,18.6C64.5,399,64.8,399.2,65.2,399.2z"/>
	<path class="st0" d="M113.1,373.8c1.2,1.7,0.6,3.9-0.7,5.3c-1.7,1.9-4.3,2-6.6,1.6c-2.6-0.4-5.4-1.6-8-0.8
		c-2.2,0.7-3.8,2.7-6.2,3.2c-2.1,0.5-4.5-0.1-5.3-2.3c-0.3-1.1,1.3-1.5,1.7-0.5c0.5,1.4,2.5,1.4,3.6,1c1.9-0.6,3.3-2.2,5.1-2.9
		c2.2-0.9,4.5-0.5,6.7,0c2.1,0.5,4.4,1.2,6.5,0.3c1.5-0.6,2.7-2.7,1.6-4.2C111,373.8,112.5,372.9,113.1,373.8L113.1,373.8z"/>
	<path class="st3" d="M94.2,447.6c-6.1,0-12.1-0.8-18-2.5c-0.7-0.2-1.4-0.4-2.1-0.7c-4.1-1.3-8-3.1-11.7-5.2
		c-0.7-0.4-1.4-0.8-2.1-1.3c-3.7-2.3-7.1-4.9-10.3-7.9c-0.5-0.5-1-1-1.5-1.5c-25.4-25.3-25.5-66.5-0.1-91.9s66.5-25.5,91.9-0.1
		c25.4,25.3,25.5,66.5,0.1,91.9c-6.7,6.7-14.8,11.9-23.8,15.2c-0.2,0.1-0.5,0.2-0.7,0.3C108.8,446.3,101.5,447.6,94.2,447.6z
		 M94.2,321c-34,0-61.5,27.6-61.5,61.5c0,16.4,6.5,32,18.1,43.6c0.5,0.5,1,0.9,1.5,1.4c3,2.8,6.3,5.3,9.8,7.4c0.7,0.4,1.4,0.8,2,1.2
		c3.5,2,7.3,3.6,11.1,4.9c0.7,0.2,1.4,0.4,2,0.6c12.3,3.5,25.3,3.2,37.4-1l0.7-0.3c31.9-11.6,48.4-46.9,36.8-78.9
		C143.1,337.2,120,321,94.2,321z"/>
</g>
</svg>
