<?xml version="1.0" encoding="utf-8"?>
<!-- Generator: Adobe Illustrator 24.0.3, SVG Export Plug-In . SVG Version: 6.00 Build 0)  -->
<svg version="1.1" id="Capa_1" xmlns="http://www.w3.org/2000/svg" xmlns:xlink="http://www.w3.org/1999/xlink" x="0px" y="0px"
	 viewBox="0 0 500 500" style="enable-background:new 0 0 500 500;" xml:space="preserve">
<style type="text/css">
	.st0{fill:#302F42;}
	.st1{fill:#403E56;}
	.st2{fill:#B4358A;}
	.st3{fill:#A1626A;}
	.st4{fill:#D0CDE1;}
	.st5{opacity:0.1;fill:#020203;enable-background:new    ;}
</style>
<path class="st0" d="M-437.7,794c9.6,2.7,19.7,2.5,29.1-0.8c0.2-0.1,0.4-0.1,0.5-0.2c-2.2-1.7-4.7-3-7.4-3.8c0.2-0.7,0.2-1.4,0-2
	c-0.5-1.7-2.2-2.9-4-2.9h-5.7c-1.8,0-3.4,1.2-4,2.9c-0.2,0.7-0.2,1.4,0,2.1c-2.4,0.7-4.6,1.8-6.6,3.2c-0.4,0.3-0.8,0.6-1.2,0.9
	C-437.1,793.5-437.4,793.7-437.7,794z"/>
<rect x="18.6" y="384.1" class="st1" width="473.8" height="0.3"/>
<polygon class="st1" points="32.2,60.1 32.5,58.2 456.8,436.9 456.4,438.8 "/>
<rect x="18.6" y="203.6" class="st1" width="462.6" height="1"/>
<path class="st2" d="M418.5,225.3c0.1,42.6-16.7,83.4-46.7,113.6c-1.6,1.6-3.3,3.3-5,4.8c-2.1,1.9-4.2,3.7-6.3,5.5
	c-0.4,0.3-0.8,0.7-1.2,1c-8.6,6.9-17.8,13-27.7,17.9c-0.6,0.3-1.2,0.6-1.8,0.9c-0.9,0.5-1.9,0.9-2.8,1.3
	c-34.8,16.2-74.5,18.9-111.2,7.5c-64.3-19.9-111-80.8-111-152.7c0-88.1,70.2-159.6,156.9-159.6S418.5,137.1,418.5,225.3z"/>
<path class="st1" d="M296.6,191.8l0.1,0l-0.5-1.1c-0.6-1.5-1.2-3-2-4.4l-14.4-31.6c-0.9-2.1-3-3.4-5.3-3.3l-18.2,0.3
	c-2.4,0-4.5,1.6-5.3,3.9L239.5,190c-0.4,1-0.7,1.9-1,2.9l-0.4,1.2l0.1,0c-3.8,16.3,6.3,32.6,22.6,36.4s32.6-6.3,36.4-22.6
	C298.4,202.6,298.2,197,296.6,191.8L296.6,191.8z"/>
<rect x="244.1" y="174.8" transform="matrix(0.1799 -0.9837 0.9837 0.1799 40.9594 399.377)" class="st2" width="31.9" height="0.7"/>
<rect x="272.2" y="159" transform="matrix(0.9772 -0.2124 0.2124 0.9772 -30.9361 61.8824)" class="st2" width="0.7" height="31.9"/>
<path class="st1" d="M254.3,136.2l23.4-0.4c0.4,0,0.7,0.3,0.7,0.6c0,0.4-0.3,0.7-0.6,0.7l-23.4,0.4c-0.4,0-0.7-0.3-0.7-0.6
	C253.6,136.5,253.9,136.2,254.3,136.2C254.3,136.2,254.3,136.2,254.3,136.2L254.3,136.2z"/>
<path class="st1" d="M254.5,141.1l23.4-0.4c0.4,0,0.7,0.3,0.7,0.6c0,0.4-0.3,0.7-0.6,0.7c0,0,0,0,0,0l-23.4,0.4
	c-0.4,0-0.7-0.3-0.7-0.6C253.9,141.4,254.1,141.1,254.5,141.1z"/>
<path class="st1" d="M254.7,146.1l23.4-0.4c0.4,0,0.7,0.3,0.7,0.6c0,0.4-0.3,0.7-0.6,0.7l-23.4,0.4c-0.4,0-0.7-0.3-0.7-0.6
	C254.1,146.4,254.4,146.1,254.7,146.1L254.7,146.1z"/>
<path class="st1" d="M265.9,131.3c-4.6,0.1-8.4,2.7-8.3,5.9l16.8-0.3C274.3,133.7,270.5,131.2,265.9,131.3z"/>
<path class="st2" d="M268.5,195.4c0.9,0.1,1.8,0.4,2.5,1.1c0.2,0.1,0.3,0.3,0.5,0.4c0.5,0.6,1.2,1,1.9,1.3c1.6,0.4,3.2-0.8,4.5-2.1
	l0.5,0.5c-1.5,1.4-3.2,2.8-5.2,2.3c-0.8-0.3-1.6-0.8-2.2-1.4c-0.2-0.1-0.3-0.3-0.5-0.4c-0.6-0.5-1.6-1.2-2.6-0.8
	c-0.4,0.2-0.7,0.5-1,0.8c-0.2,0.2-0.5,0.4-0.7,0.6c-1.1,0.8-2.5,0.8-3.6,0.1c-0.2-0.1-0.4-0.3-0.6-0.4c-0.3-0.3-0.7-0.5-1.1-0.6
	c-0.6-0.1-1.1,0.3-1.6,0.7c-0.5,0.5-1.2,0.8-1.9,0.9c0,0,0,0-0.1,0c-1.3,0-2.1-1.3-2.7-2.3l0.6-0.3c0.7,1.4,1.4,2,2.1,1.9
	c0.6-0.1,1.1-0.4,1.5-0.8c0.6-0.5,1.3-1,2.1-0.9c0.5,0.1,1,0.4,1.4,0.7c0.2,0.1,0.3,0.3,0.5,0.4c0.9,0.5,2,0.5,2.8-0.1
	c0.2-0.2,0.4-0.4,0.6-0.6c0.3-0.4,0.8-0.7,1.3-0.9C267.9,195.4,268.2,195.4,268.5,195.4z"/>
<rect x="265.9" y="65.5" class="st1" width="0.7" height="65.7"/>
<path class="st2" d="M473.2,179.4c-4.2,15.4-18.5,25-18.5,25s-7.5-15.5-3.4-30.9c4.2-15.4,18.5-25,18.5-25S477.4,164,473.2,179.4z"
	/>
<path class="st2" d="M435.3,179.4c4.2,15.4,18.5,25,18.5,25s7.5-15.5,3.4-30.9s-18.5-25-18.5-25S431.1,164,435.3,179.4z"/>
<path class="st1" d="M441.4,176.1c11.5,11.1,12.9,28.3,12.9,28.3s-17.2-0.9-28.6-12.1S412.8,164,412.8,164S429.9,164.9,441.4,176.1z
	"/>
<path class="st1" d="M467.1,176.1c-11.5,11.1-12.9,28.3-12.9,28.3s17.2-0.9,28.6-12.1s12.9-28.3,12.9-28.3S478.6,164.9,467.1,176.1z
	"/>
<path class="st2" d="M65.4,359.7c-4.2,15.4-18.5,25-18.5,25s-7.5-15.5-3.4-30.9s18.5-25,18.5-25S69.6,344.3,65.4,359.7z"/>
<path class="st2" d="M27.4,359.7c4.2,15.4,18.5,25,18.5,25s7.5-15.5,3.4-30.9s-18.5-25-18.5-25S23.2,344.3,27.4,359.7z"/>
<path class="st1" d="M33.5,356.4c11.5,11.2,12.9,28.3,12.9,28.3s-17.2-0.9-28.6-12.1S4.9,344.3,4.9,344.3S22.1,345.2,33.5,356.4z"/>
<path class="st1" d="M59.2,356.4c-11.5,11.2-12.9,28.3-12.9,28.3s17.2-0.9,28.6-12.1s12.9-28.3,12.9-28.3S70.7,345.2,59.2,356.4z"/>
<circle class="st0" cx="338.7" cy="207.6" r="9.6"/>
<path class="st0" d="M328.5,203.5c0-4.9,3.7-9,8.6-9.5c-5.3-0.6-10,3.2-10.6,8.5c-0.6,5.3,3.2,10,8.5,10.6c0.7,0.1,1.4,0.1,2.1,0
	C332.2,212.4,328.5,208.3,328.5,203.5z"/>
<path class="st2" d="M329.2,207.6c0,0-1.5,6.8,7.8,9.6L329.2,207.6z"/>
<circle class="st0" cx="342.7" cy="240.5" r="32.2"/>
<path class="st3" d="M360.5,349.2c-0.4,0.3-0.8,0.7-1.2,1c-8.6,6.9-17.8,13-27.7,17.9c-0.6,0.3-1.2,0.6-1.8,0.9
	c-0.9,0.5-1.9,0.9-2.8,1.3l-16.5-5.5l0.2-3.9v0l0.7-15.1l0.2-5.1L360.5,349.2z"/>
<path class="st0" d="M329.8,369.1c-0.9,0.5-1.9,0.9-2.8,1.3c-6.4,3-13.1,5.6-19.9,7.7c0-0.1-0.1-0.2-0.1-0.3l3.5-16.9l0.2,0.1
	L329.8,369.1z"/>
<circle class="st3" cx="334.7" cy="253.3" r="21.3"/>
<path class="st3" d="M351.9,254.4c0,0,3.5,17.3,9.8,21.3l-35.1,41.4l-13.2-12.7l9.8-17.3c0,0,10.9-6.3,7.5-15L351.9,254.4z"/>
<path class="st3" d="M393.6,311.6c-6.2,9.9-13.5,19-21.8,27.3c-0.4-7.7-1.1-14.1-2.6-16c0,0,0,0,0,0l-18.4-5.8c0,0,4-38,13.8-39.7
	c0,0,1.4,0.3,3.6,1c7.1,2.1,22.4,8.2,24.6,20.9C393.4,303.4,393.7,307.5,393.6,311.6z"/>
<path class="st3" d="M323.2,287.2c0,0-17.3-0.6-28.2,13.2c-10.9,13.8-37.4,24.2-37.4,24.2l-66.2,25.9c0,0-12.1-21.3-19.6-13.8
	s13.8,26.5,23.6,24.2c9.8-2.3,69.1-20.1,69.1-20.1l47.2-21.3L323.2,287.2z"/>
<path class="st4" d="M369.2,322.9l-2.4,20.8c-2.1,1.9-4.2,3.7-6.3,5.5c-0.4,0.3-0.8,0.7-1.2,1c-16.6-5.1-42.7-4.5-47.8-4.4
	c-0.6,0-0.9,0-0.9,0l-0.6-12.1c-5.5-1.8-7.3-5.9-7.4-10.3c-0.1-8,5.7-17.3,5.7-17.3c1-1,8.7-15.6,10.3-18.7c0.2-0.4,0.3-0.5,0.3-0.5
	l6.9-1.7c0,0,0,0.1-0.1,0.2c-0.6,1.7-6,17.4,3.3,17.9c9.1,0.5,28.9-25,31.6-28.6c0.2-0.3,0.3-0.4,0.3-0.4l7.5,4c0,0-0.1,0-0.1,0
	c-4.6,1.3-8.8,12.3-8.8,12.3C347.5,311.7,368.7,322.7,369.2,322.9C369.2,322.9,369.2,322.9,369.2,322.9z"/>
<path class="st0" d="M335.8,228.3c-11.3,0-20.5,5.4-20.5,12c0,3,1.8,5.7,4.9,7.8l4-2.9l-1.1,4.5c0.4,0.2,0.9,0.4,1.4,0.6l5.9-6.9
	v8.5c1.8,0.3,3.6,0.4,5.5,0.4c11.3,0,20.5-5.4,20.5-12S347.2,228.3,335.8,228.3z"/>
<circle class="st0" cx="377.9" cy="222.5" r="9.6"/>
<path class="st0" d="M367.6,218.4c0-4.9,3.7-9,8.6-9.5c-0.3,0-0.7-0.1-1-0.1c-5.3,0-9.6,4.3-9.6,9.6c0,5.3,4.3,9.6,9.6,9.6
	c0.4,0,0.7,0,1.1-0.1C371.3,227.4,367.6,223.3,367.6,218.4z"/>
<path class="st2" d="M368.3,222.5c0,0-1.5,6.8,7.8,9.6L368.3,222.5z"/>
<ellipse class="st3" cx="356.8" cy="251.6" rx="1.7" ry="3.7"/>
<path class="st4" d="M173.3,266l-25.2,6.1l-0.1,0l-2.7,2.5l-0.8,0.7l-1.7-0.3l-3-0.5l2.1-7l0.4-13.4l-1.4-8.2l8-5.5
	C148.8,240.3,164.3,239.4,173.3,266z"/>
<path class="st5" d="M148.1,272.1c-0.3,0.7,0.4,0.2,0,1l-3.7,1.2l-1.6,0.7l-3-0.5l2.1-7l0.4-13.4l-1.4-8.2l8-5.5
	C148.8,240.3,157.3,252.4,148.1,272.1z"/>
<path class="st4" d="M203.1,246.7c0,0-33.1,15.4-46.6,17.7s-12.3,15.8-12.3,15.8l75.3-11.7C219.5,268.5,216.9,256.4,203.1,246.7z"/>
<path class="st2" d="M139.1,244.1c0,0,5.7,14-0.7,31.3l7.4,3.4l2.9-3.4l0.1-0.3l-7.9-0.7c0,0,6.5-17.5,1.2-29.6
	C142.1,244.8,141,242.1,139.1,244.1z"/>
<path class="st1" d="M248.6,347.6c-29.4-6.5-56.7,7-56.7,7l-0.1-0.1l-10.9-9.7l-42.5-69.4l10.4,0.1c28.8-17.2,69.4-14.9,69.4-14.9
	C235.7,280.4,248.6,347.6,248.6,347.6z"/>
<path class="st5" d="M191.8,354.5l-10.9-9.7l-42.5-69.4l10.4,0.1C148.8,275.4,190.1,330,191.8,354.5z"/>
<ellipse transform="matrix(0.956 -0.2932 0.2932 0.956 -76.5642 69.4914)" class="st4" cx="193.5" cy="290.1" rx="16.8" ry="10.7"/>
<circle class="st1" cx="18.8" cy="203.6" r="9.5"/>
<circle class="st1" cx="463.9" cy="445.5" r="9.5"/>
<circle class="st2" cx="29.7" cy="57.8" r="7.5"/>
<circle class="st2" cx="480.9" cy="204.6" r="7.5"/>
<circle class="st2" cx="18.8" cy="384.3" r="7.5"/>
</svg>
