<svg id="Capa_1" data-name="Capa 1" xmlns="http://www.w3.org/2000/svg" viewBox="0 0 515.86 436.25"><defs><style>.cls-1{fill:#b4358a;}.cls-2{fill:#403e56;}.cls-3{fill:#f6b6b9;}.cls-4{fill:#d0cde1;}.cls-5{fill:#302f42;}.cls-6{fill:none;stroke:#d0cde1;stroke-miterlimit:10;stroke-width:2px;}.cls-7{fill:#a1626a;}</style></defs><title>mesa-de-ayuda</title><path class="cls-1" d="M239.28,214.16c7.31,7.85,7.69,19.39,7.69,19.39s-11.48-1.19-18.8-9-7.69-19.39-7.69-19.39S232,206.31,239.28,214.16Z" transform="translate(26.67 -43.71)"/><path class="cls-1" d="M262.31,226.42c-7.85,7.31-19.39,7.69-19.39,7.69s1.19-11.48,9-18.8,19.39-7.69,19.39-7.69S270.16,219.1,262.31,226.42Z" transform="translate(26.67 -43.71)"/><path class="cls-2" d="M260.36,249.72H231.48a3,3,0,0,1-2.65-1.66l-6.29-12.93a3,3,0,0,1,1.36-3.95,3,3,0,0,1,1.29-.29h41.45a3,3,0,0,1,3,3,2.88,2.88,0,0,1-.3,1.29L263,248.06A3,3,0,0,1,260.36,249.72Z" transform="translate(26.67 -43.71)"/><circle class="cls-3" cx="417.13" cy="252.67" r="24.04"/><path class="cls-3" d="M372.51,308.4s4.53,34.15-2.44,38,41.47,4.19,41.47,4.19-10.81-29.62-5.93-38.68Z" transform="translate(26.67 -43.71)"/><path class="cls-4" d="M446.9,350.74l-4,18.34-8.52,38.81L434.1,410l-2.94,24.61-2,16.34-1.31,11c-8,4.1-13.75,6.92-13.75,6.92s-.5-2.49-1.3-5.67c-5.59,1.67-15.94,4.46-24.72,5,3.2,3.56,4.67,6.91,2.67,9.37-6,7.45-30.81-8.14-39.49-14a23.73,23.73,0,0,0-.23,4.21l-6.64-5.11L345.1,451l1.1-19.88,1.4-24.94a25.12,25.12,0,0,1-1.1-3.27c-2-7.24-4.51-21.68-6.4-33.79-1.52-9.75-2.67-18-2.91-19.73,0-.23-.05-.35-.05-.35l36.76-16.24c2.61,6.05,14.81,7.88,14.81,7.88a40.93,40.93,0,0,0,18-6Z" transform="translate(26.67 -43.71)"/><path class="cls-3" d="M416.94,461.9s-1.56.53-4.09,1.29c-5.59,1.67-15.94,4.46-24.72,5-7.55.48-13.93-.68-15.1-5.61a5.2,5.2,0,0,1,1.76-5.29C379.4,453,391.46,451.49,401,451c2.7-.15,5.19-.22,7.27-.24,3.53-.05,5.85,0,5.85,0l.05.22Z" transform="translate(26.67 -43.71)"/><path class="cls-5" d="M370.45,273.64l-4.49-1.8s9.4-10.35,22.48-9.45l-3.68-4.05s9-3.6,17.16,5.85c4.3,5,9.27,10.81,12.37,17.38h4.81l-2,4.43,7,4.42-7.22-.79a24.74,24.74,0,0,1,.19,7.34,9.49,9.49,0,0,1-3.47,6.21h0s-5.58-11.54-5.58-13.34v4.5s-4.49-4-4.49-6.75l-2.46,3.15-1.22-4.95-15.12,4.95,2.45-4.05-9.4,1.35,3.68-5s-10.63,5.85-11,10.8a23.78,23.78,0,0,1-3.52,9.64S358.6,280.39,370.45,273.64Z" transform="translate(26.67 -43.71)"/><path class="cls-4" d="M473,435.06c-2.45,2.66-8.52,6.66-15.88,11-2.73,1.61-5.65,3.26-8.62,4.91-7.09,3.93-14.52,7.83-20.64,11-8,4.1-13.75,6.92-13.75,6.92s-.5-2.49-1.3-5.67c-1.07-4.27-2.69-9.79-4.37-12.23l-.18-.24c-.49-.65-1-1-1.47-1l24.33-15.08,10.52-6.52L434.1,410l-9.5-22.68,5.74-18.25,5.76-18.34h10.8s3.58,7.81,8.15,18.69c.69,1.63,1.39,3.33,2.11,5.08C466.57,397.4,478.3,429.36,473,435.06Z" transform="translate(26.67 -43.71)"/><path class="cls-3" d="M390.8,477.57c-6,7.45-30.81-8.14-39.49-14-1.89-1.26-3-2.06-3-2.06L356.23,451l2.52-3.35s2.25,1.19,5.57,3.13l.37.22c2.86,1.68,6.46,3.88,10.1,6.34,5,3.39,10.08,7.26,13.34,10.9S392.8,475.11,390.8,477.57Z" transform="translate(26.67 -43.71)"/><path class="cls-4" d="M364.32,450.74a15.71,15.71,0,0,0-2.65.22c-7.51,1.29-9.73,8.1-10.36,12.65a23.73,23.73,0,0,0-.23,4.21l-6.64-5.11L342,460.85A44.17,44.17,0,0,1,326.51,451a77.84,77.84,0,0,1-10.45-12.39A108.9,108.9,0,0,1,308,424.71a10.19,10.19,0,0,1-.14-8.65l8.22-18.32,12-26.79c.09-.64.19-1.26.29-1.87,2.39-13.67,8.77-19.73,8.77-19.73H342l3.26,19.73,4.06,24.52-2.84,9.27-6.57,21.39,6.27,6.82Z" transform="translate(26.67 -43.71)"/><path class="cls-1" d="M369.84,393.62l4.17,4.86c1.55-.29,3.17-.64,4.84-1l-1.2-3.83,2.93,3.42c17.65-4.35,39.53-12.79,39.53-12.79s-23.62,1.73-41.26-2.12a16.79,16.79,0,0,0-19,9.48c-1.86,4.26-1.57,7.94,5,7.94a44.93,44.93,0,0,0,6.65-.62Z" transform="translate(26.67 -43.71)"/><path class="cls-2" d="M464.91,473.59v2a4.28,4.28,0,0,1-.3,1.59,4,4,0,0,1-.31.66,4.39,4.39,0,0,1-3.78,2.14h-146a4.41,4.41,0,0,1-3.78-2.14,4,4,0,0,1-.31-.66,4.28,4.28,0,0,1-.3-1.59v-2a4.4,4.4,0,0,1,4.39-4.4h8.41v-.92a.19.19,0,0,1,.19-.18h4.39a.18.18,0,0,1,.18.18h0v.92h2.75v-.92a.18.18,0,0,1,.18-.18H335a.18.18,0,0,1,.18.18h0v.92h2.75v-.92a.18.18,0,0,1,.18-.18h4.39a.19.19,0,0,1,.19.18h0v.92h2.74v-.92a.18.18,0,0,1,.18-.18H350a.19.19,0,0,1,.19.18h0v.92h2.74v-.92a.18.18,0,0,1,.18-.18h4.39a.19.19,0,0,1,.19.18h0v.92h2.74v-.92a.18.18,0,0,1,.19-.18H365a.18.18,0,0,1,.18.18h0v.92h2.74v-.92a.19.19,0,0,1,.19-.18h34.39a.19.19,0,0,1,.19.18h0v.92h2.74v-.92a.18.18,0,0,1,.18-.18H410a.18.18,0,0,1,.18.18v.92H413v-.92a.18.18,0,0,1,.19-.18h4.39a.18.18,0,0,1,.18.18h0v.92h2.74v-.92a.18.18,0,0,1,.19-.18H425a.18.18,0,0,1,.18.18h0v.92H428v-.92a.18.18,0,0,1,.18-.18h4.39a.18.18,0,0,1,.18.18v.92h2.75v-.92a.18.18,0,0,1,.18-.18H440a.18.18,0,0,1,.18.18h0v.92H443v-.92a.18.18,0,0,1,.18-.18h4.39a.18.18,0,0,1,.18.18h0v.92h12.81a4.39,4.39,0,0,1,4.39,4.39Z" transform="translate(26.67 -43.71)"/><path class="cls-2" d="M453.16,390H398.74v-1.13H374.06V390H319.42a3.67,3.67,0,0,0-3.68,3.68h0V468.2a3.68,3.68,0,0,0,3.68,3.69H453.16a3.69,3.69,0,0,0,3.68-3.69h0V393.69a3.68,3.68,0,0,0-3.68-3.68Z" transform="translate(26.67 -43.71)"/><circle class="cls-6" cx="413.07" cy="372.31" r="8.17"/><circle class="cls-4" cx="410.45" cy="375.25" r="8.17"/><circle class="cls-5" cx="170.03" cy="69.98" r="11.9"/><path class="cls-5" d="M146.67,102.11a11.91,11.91,0,0,1,10.48,17.55,11.9,11.9,0,0,0-18.59-14.85,11.21,11.21,0,0,0-1.18,1.78A11.87,11.87,0,0,1,146.67,102.11Z" transform="translate(26.67 -43.71)"/><circle class="cls-5" cx="147.79" cy="34.99" r="34.96"/><path class="cls-5" d="M93.68,57a35,35,0,0,1,48.45-3.67l-.87-.81a35,35,0,1,0-46.45,52.25c.3.27.6.51.91.77A35,35,0,0,1,93.68,57Z" transform="translate(26.67 -43.71)"/><circle class="cls-7" cx="147.5" cy="47.14" r="22.51"/><path class="cls-7" d="M104.83,98s3,27.25-1.78,30.22,27.25,7.11,27.25,7.11-4.74-29.63,7.11-37.33Z" transform="translate(26.67 -43.71)"/><path class="cls-4" d="M133.26,123.44s8.83-4.12-3.88-2.66-23.67-4.16-23.67-4.16-3.85-3.85-4.44.3,1.78,11.85-11.26,13-24.88-2.37-29.62,6.52S58,183.87,58,183.87s8.89,32,16,36.73,69.32-1.78,69.32-1.78l17.77-32V149.5s-2.37-13-19-9.47c0,0-10.66-2.37-10.07-7.71S133.26,123.44,133.26,123.44Z" transform="translate(26.67 -43.71)"/><path class="cls-5" d="M76.37,243.24c.36-1.59.61-2.5.61-2.5l-.19-1.29-2-13.26L74,220.6c7.11-3,8.88-16.59,8.88-16.59l.27-.16,1.21-.73h0l4.36-2.61.09,0,1.76,1.17L94.16,204a42,42,0,0,0,33.09,7.58,35.81,35.81,0,0,0,7.79-2.25l8.62-2.87.27-.09.26,0,5.06.77h.09l.42.06-1.17,8.1-1.7,11.76c4.48,2.37,8.47,6.83,12,12.33.77,1.21,1.52,2.48,2.25,3.79.94,1.7,1.84,3.47,2.69,5.28.11.22.21.44.31.66.33.71.66,1.42,1,2.14H74.8c.12-.72.23-1.41.35-2.07,0,0,0-.05,0-.07l.12-.66C75.68,246.36,76.06,244.56,76.37,243.24Z" transform="translate(26.67 -43.71)"/><path class="cls-5" d="M72.83,129.36A45.44,45.44,0,0,1,77,156c-2.37,14.81,7.11,51.55,7.11,51.55l7.11-1.78S86.46,175,87.64,167.87s1.19-35-4.74-38.51S72.83,129.36,72.83,129.36Z" transform="translate(26.67 -43.71)"/><path class="cls-5" d="M141.73,141.67l2.49,65.6,4.74,3s6.82-72,3.26-72H145a3.26,3.26,0,0,0-3.26,3.26Z" transform="translate(26.67 -43.71)"/><circle class="cls-1" cx="114.02" cy="159.41" r="2.96"/><circle class="cls-1" cx="173.27" cy="162.38" r="2.96"/><polygon class="cls-5" points="128.24 19 128.24 41.51 133.46 41.51 140.09 34.4 139.2 41.51 162.25 41.51 160.83 34.4 163.67 41.51 167.34 41.51 167.34 19 128.24 19"/><ellipse class="cls-7" cx="124.69" cy="42.4" rx="1.78" ry="3.26"/><ellipse class="cls-7" cx="170.31" cy="42.4" rx="1.78" ry="3.26"/><path class="cls-7" d="M155.78,205.79s-27-5-28.74,3.85,29.92,5,29.92,5Z" transform="translate(26.67 -43.71)"/><path class="cls-4" d="M155.19,144.77s64.57,51.54,52.72,64S151,217.64,151,217.64l3-14.81,26.07-3-13-13L155.19,188Z" transform="translate(26.67 -43.71)"/><path class="cls-7" d="M59.8,230.67l8.29,6.52s5.93,18.37,14.81,13-8.29-24.29-8.29-24.29l-10.07-3.55Z" transform="translate(26.67 -43.71)"/><path class="cls-4" d="M68.09,135.29l-8.27,2.49S2.33,180.31,0,192.16s11.25,18.37,11.25,18.37l51.55,24.29,5.33-14.22L43.8,208.16s1.78-3.56-5.33-4.15-8.3-8.29-8.3-8.29S44.39,173.8,52.1,178.54s10.07,8.29,10.07,8.29Z" transform="translate(26.67 -43.71)"/><path class="cls-2" d="M186.08,245.27v2a4.36,4.36,0,0,1-.3,1.59,3.92,3.92,0,0,1-.32.65,4.39,4.39,0,0,1-3.77,2.15h-146a4.4,4.4,0,0,1-3.77-2.15,3.92,3.92,0,0,1-.32-.65,4.36,4.36,0,0,1-.3-1.59v-2a4.4,4.4,0,0,1,4.39-4.39H44.1V240a.19.19,0,0,1,.18-.19h4.39a.19.19,0,0,1,.19.19h0v.92H51.6V240a.19.19,0,0,1,.18-.19h4.39a.19.19,0,0,1,.19.19h0v.92H59.1V240a.2.2,0,0,1,.19-.19h4.39a.19.19,0,0,1,.18.19h0v.92H66.6V240a.2.2,0,0,1,.19-.19h4.39a.19.19,0,0,1,.18.19h0v.92h2.75V240a.19.19,0,0,1,.18-.19h4.39a.19.19,0,0,1,.18.19h0v.92h2.75V240a.19.19,0,0,1,.18-.19h4.39a.2.2,0,0,1,.19.19h0v.92h2.74V240a.19.19,0,0,1,.18-.19h34.4a.19.19,0,0,1,.18.19h0v.92h2.75V240a.19.19,0,0,1,.18-.19h4.39a.2.2,0,0,1,.19.19v.92h2.74V240a.19.19,0,0,1,.18-.19h4.39a.2.2,0,0,1,.19.19h0v.92h2.74V240a.19.19,0,0,1,.18-.19h4.39a.2.2,0,0,1,.19.19h0v.92h2.74V240a.19.19,0,0,1,.18-.19h4.4a.19.19,0,0,1,.18.19v.92h2.74V240a.19.19,0,0,1,.19-.19h4.39a.19.19,0,0,1,.18.19h0v.92h2.74V240a.19.19,0,0,1,.19-.19h4.39a.19.19,0,0,1,.18.19h0v.92h12.81a4.4,4.4,0,0,1,4.39,4.39Z" transform="translate(26.67 -43.71)"/><path class="cls-2" d="M174.32,161.69H119.9v-1.12H95.23v1.12H40.58a3.68,3.68,0,0,0-3.68,3.68v74.52a3.68,3.68,0,0,0,3.68,3.68H174.32a3.68,3.68,0,0,0,3.68-3.68V165.37A3.68,3.68,0,0,0,174.32,161.69Z" transform="translate(26.67 -43.71)"/><circle class="cls-6" cx="134.23" cy="144" r="8.17"/><circle class="cls-4" cx="131.62" cy="146.94" r="8.17"/><rect class="cls-2" x="32.38" y="205.5" width="483.47" height="1.02"/><rect class="cls-2" y="433.16" width="483.47" height="1.02"/><path class="cls-1" d="M214.14,440.43c7.32,7.85,7.7,19.39,7.7,19.39s-11.48-1.19-18.8-9-7.69-19.39-7.69-19.39S206.83,432.58,214.14,440.43Z" transform="translate(26.67 -43.71)"/><path class="cls-1" d="M237.18,452.68c-7.85,7.32-19.39,7.7-19.39,7.7s1.19-11.49,9-18.8,19.39-7.7,19.39-7.7S245,445.37,237.18,452.68Z" transform="translate(26.67 -43.71)"/><path class="cls-2" d="M235.23,476H206.35a3,3,0,0,1-2.66-1.67l-6.28-12.92a3,3,0,0,1,1.36-3.95,3,3,0,0,1,1.29-.29h41.45a3,3,0,0,1,3,2.95,3,3,0,0,1-.3,1.29l-6.29,12.92A2.94,2.94,0,0,1,235.23,476Z" transform="translate(26.67 -43.71)"/></svg>