<?xml version="1.0" encoding="utf-8"?>
<!-- Generator: Adobe Illustrator 24.0.3, SVG Export Plug-In . SVG Version: 6.00 Build 0)  -->
<svg version="1.1" id="Capa_1" xmlns="http://www.w3.org/2000/svg" xmlns:xlink="http://www.w3.org/1999/xlink" x="0px" y="0px"
	 viewBox="0 0 500 500" style="enable-background:new 0 0 500 500;" xml:space="preserve">
<style type="text/css">
	.st0{fill:#302F42;}
	.st1{opacity:0.1;fill:#B4358A;enable-background:new    ;}
	.st2{fill:url(#SVGID_1_);}
	.st3{fill:#FFFFFF;}
	.st4{opacity:0.1;fill:#020203;enable-background:new    ;}
	.st5{fill:#B4358A;}
	.st6{fill:#403E56;}
	.st7{opacity:0.1;}
	.st8{fill:#020203;}
	.st9{fill:#F7BEBE;}
	.st10{fill:url(#SVGID_2_);}
	.st11{fill:#CF6F80;}
	.st12{fill:#512E4E;}
	.st13{fill:#555562;}
	.st14{fill:#9E9CB5;}
	.st15{fill:none;stroke:#555562;stroke-width:2;stroke-miterlimit:10;}
</style>
<path class="st0" d="M-437.7,794c9.6,2.7,19.7,2.5,29.1-0.8c0.2-0.1,0.4-0.1,0.5-0.2c-2.2-1.7-4.7-3-7.4-3.8c0.2-0.7,0.2-1.4,0-2
	c-0.5-1.7-2.2-2.9-4-2.9h-5.7c-1.8,0-3.4,1.2-4,2.9c-0.2,0.7-0.2,1.4,0,2.1c-2.4,0.7-4.6,1.8-6.6,3.2c-0.4,0.3-0.8,0.6-1.2,0.9
	C-437.1,793.5-437.4,793.7-437.7,794z"/>
<path class="st1" d="M35,212.2h42.8v58.3H38.1c-0.1,0.6-0.2,1.2-0.3,1.8h40v47c-0.1,0-0.1-0.1-0.2-0.1c-1.1-0.4-2.2-0.9-3.4-1.4
	c-0.2-0.1-0.5-0.2-0.7-0.3c-1.1-0.5-2.2-1.1-3.4-1.7c-0.4-0.2-0.8-0.4-1.2-0.6c-6.2-3.5-11.9-7.9-16.8-13.1
	c-0.1-0.1-0.3-0.3-0.4-0.4c-0.7-0.7-1.4-1.5-2-2.3c-0.2-0.3-0.5-0.6-0.7-0.8c-0.8-0.9-1.5-1.9-2.2-2.9c-0.1-0.1-0.2-0.3-0.3-0.4
	c-2.9-4.1-5.4-8.5-7.3-13.1c-0.1-0.1-0.1-0.3-0.2-0.4c-0.6-1.5-1.1-3-1.6-4.5c-0.2-0.6-0.4-1.3-0.5-1.9c-0.1-0.2-0.1-0.4-0.2-0.6
	c-2.4-9.3-2.6-19-2.6-28.7c0-1.1,0-2.2,0-3.4c0-3.9,0.1-7.9,0.1-11.8c0-1,0-2,0.1-3c0.1-2.6,0.1-5.2,0.3-7.8c0-0.7,0.1-1.4,0.1-2.2
	c0-0.4,0-0.8,0.1-1.2C34.8,215.1,34.9,213.7,35,212.2z"/>
<path class="st1" d="M77.8,147.2H54.3c3.8-6,8-11.7,12.5-17.2c3.5-4.3,7.2-8.5,11-12.5L77.8,147.2z"/>
<path class="st1" d="M77.8,149v61.4H35.1c0-0.2,0-0.4,0-0.5c0-0.5,0.1-1,0.1-1.5c0-0.6,0.1-1.1,0.2-1.7c0.1-0.6,0.1-1.2,0.2-1.8
	c0.1-0.6,0.1-1.2,0.2-1.8c0.1-0.6,0.1-1.2,0.2-1.8c0.1-0.6,0.1-1.2,0.2-1.8c0.1-0.5,0.1-1,0.2-1.5c0.1-0.7,0.2-1.4,0.3-2.1
	c0-0.1,0-0.2,0.1-0.3c0.8-5.2,1.8-10.3,3.1-15.4c1.4-5.3,3.2-10.5,5.3-15.6c2.3-5.3,4.9-10.4,8-15.4H77.8z"/>
<path class="st1" d="M88,212.2v58.3h91.4v-58.3H88z M88,272.3v50.1c0.5,0.1,1,0.2,1.6,0.3c0.7,0.1,1.4,0.3,2.1,0.4l0.4,0.1
	c0.3,0,0.6,0.1,0.8,0.1c0.7,0.1,1.4,0.2,2.1,0.2c0.3,0,0.7,0.1,1,0.1l0.8,0.1l0,0c0.4,0,0.9,0.1,1.3,0.1c0.3,0,0.5,0,0.8,0
	c0.3,0,0.4,0,0.6,0h0.8c0.4,0,0.7,0,1.1,0h0.5c0.4,0,0.7,0,1.1,0h0c0.3,0,0.5,0,0.8,0c0.1,0,0.1,0,0.2,0c0.2,0,0.4,0,0.6,0
	c0,0,0.1,0,0.1,0c0.5,0,0.9-0.1,1.4-0.1c0.5,0,0.9-0.1,1.4-0.1l1-0.1c3.9-0.5,7.8-1.4,11.6-2.5c8.5-2.4,16.9-5.7,25.4-8.1
	c11-3.1,23.2-4.7,33.8-0.9v-39.5H88z M179.4,147.2V69.6c-10-0.1-20,1.1-29.7,3.5c-23.1,5.8-43.9,18.4-61.7,34.5v39.6h4.6v1.8H88
	v61.4h91.4V149h-68v-1.8L179.4,147.2z M296.9,121c-5.7-0.2-11.4-2-16.6-4.8c-9.8-5.4-17.7-13.6-26.5-20.6
	c-18.3-14.5-40.9-23.3-64.1-25.5v77.1h130.5l0.3-0.3L296.9,121z M308.8,118.9l12.6,13.8v-17.5C317.1,115.8,313.4,117,308.8,118.9
	L308.8,118.9z M321.4,334.9v-62.5h-26.9c-0.1-0.3-0.1-0.5-0.2-0.8c0.1,0.3,0.2,0.5,0.2,0.8H189.7v45.2c1,0.7,2,1.5,3,2.3l0,0
	c1.1,0.9,2.1,1.7,3.1,2.6l1,0.9c0.5,0.4,1,0.8,1.5,1.2c1,0.8,2,1.6,3.1,2.4c0.5,0.4,1,0.8,1.6,1.2c8.2,6.3,16.9,12,26,17
	c2,1.1,4.1,2.2,6.2,3.3c1.4,0.7,2.8,1.4,4.2,2.1c2.1,1,4.2,2,6.3,3c3.2,1.4,0,0,0,0c19.6,8.8,40.3,14.8,61.6,17.9
	c4.7,0.7,9.5,1.2,14.2,1.6L321.4,334.9l0.4,0L321.4,334.9z M189.7,149v61.4h131.7V149H189.7z M189.7,212.2v58.3h131.7v-58.3
	L189.7,212.2z M331.6,115.2v19.5l16.1-17.7C342.3,116.2,337,115.5,331.6,115.2z M331.6,212.2v58.3h128.1v-58.3H331.6z M459.2,339.5
	l0.5-67.2H331.6v101.5c8.3,0.3,16.5,0.2,24.8-0.3l0,0h0.1c3.9-0.3,7.9-0.6,11.8-1.1h0.1c20.8-2.4,41.2-7.9,60.4-16.1 M484.4,221.8
	c-0.5-1.1-1-2.2-1.5-3.4c-1-2.1-2-4.2-3-6.2h-10v58.3h25.3C495.2,254,491,237.1,484.4,221.8L484.4,221.8z M469.9,272.3v57.8
	c7.1-6.8,13.1-14.6,17.5-23.5c5.2-10.7,7.6-22.4,7.8-34.2L469.9,272.3z M469.9,195.2v15.2h9.1C476.2,205.2,473.2,200.1,469.9,195.2z
	 M383,126.6c-0.7-0.3-1.3-0.5-2-0.8c-7.1-2.6-14.3-4.8-21.6-6.5l-24.6,27l0,0l-0.5,0.5l0.3,0.3h87.6
	C410,138.8,396.9,131.9,383,126.6z M424.8,149h-91.4l-1.8,1.6v59.7h15.8l0,0l0,0h112.3v-28.9C449.5,169.2,437.8,158.3,424.8,149z"/>
<path class="st1" d="M77.8,180v30.4H35.1c0-0.2,0-0.4,0-0.5c0-0.5,0.1-1,0.1-1.5c0-0.6,0.1-1.1,0.2-1.7c0.1-0.6,0.1-1.2,0.2-1.8
	c0.1-0.6,0.1-1.2,0.2-1.8c0.1-0.6,0.1-1.2,0.2-1.8c0.1-0.6,0.1-1.2,0.2-1.8c0.1-0.5,0.1-1,0.2-1.5c0.1-0.7,0.2-1.4,0.3-2.1
	c0-0.1,0-0.2,0.1-0.3c0.8-5.2,1.8-10.3,3.1-15.4L77.8,180z"/>
<path class="st1" d="M35,212.2h42.8v58.3H38.1c-0.1,0.6-0.2,1.2-0.3,1.8h40v47c-0.1,0-0.1-0.1-0.2-0.1c-1.1-0.4-2.2-0.9-3.4-1.4
	c-0.2-0.1-0.5-0.2-0.7-0.3c-1.1-0.5-2.2-1.1-3.4-1.7c-0.4-0.2-0.8-0.4-1.2-0.6c-6.2-3.5-11.9-7.9-16.8-13.1
	c-0.1-0.1-0.3-0.3-0.4-0.4c-0.7-0.7-1.4-1.5-2-2.3c-0.2-0.3-0.5-0.6-0.7-0.8c-0.8-0.9-1.5-1.9-2.2-2.9c-0.1-0.1-0.2-0.3-0.3-0.4
	c-2.9-4.1-5.4-8.5-7.3-13.1c-0.1-0.1-0.1-0.3-0.2-0.4c-0.6-1.5-1.1-3-1.6-4.5c-0.2-0.6-0.4-1.3-0.5-1.9c-0.1-0.2-0.1-0.4-0.2-0.6
	c-2.4-9.3-2.6-19-2.6-28.7c0-1.1,0-2.2,0-3.4c0-3.9,0.1-7.9,0.1-11.8c0-1,0-2,0.1-3c0.1-2.6,0.1-5.2,0.3-7.8c0-0.7,0.1-1.4,0.1-2.2
	c0-0.4,0-0.8,0.1-1.2C34.8,215.1,34.9,213.7,35,212.2z"/>
<polygon class="st1" points="120.2,157.8 120.2,210.4 88,210.4 88,157.8 92.6,157.8 92.6,140 111.4,140 111.4,157.8 "/>
<rect x="88" y="212.2" class="st1" width="32.2" height="58.3"/>
<path class="st1" d="M88,272.3h32.2v48.5c-3.8,1.1-7.7,1.9-11.6,2.5c-0.3,0-0.6,0.1-1,0.1c-0.5,0.1-0.9,0.1-1.4,0.1l-1.4,0.1h-0.1
	l-0.6,0h-0.2c-0.3,0-0.5,0-0.8,0h0c-0.4,0-0.7,0-1.1,0h-0.5c-0.4,0-0.7,0-1.1,0h-0.8H99c-0.3,0-0.5,0-0.8,0c-0.4,0-0.9,0-1.3-0.1
	l0,0l-0.8-0.1c-0.3,0-0.7-0.1-1-0.1c-0.7-0.1-1.4-0.1-2.1-0.2l-0.8-0.1l-0.4-0.1c-0.7-0.1-1.4-0.2-2.1-0.4c-0.5-0.1-1-0.2-1.6-0.3
	V272.3z"/>
<rect x="294.8" y="151.6" class="st1" width="26.5" height="58.8"/>
<polygon class="st1" points="321.4,212.2 321.4,270.5 189.7,270.5 189.7,245.4 259.8,245.4 259.8,260.2 294.8,260.2 294.8,212.2 "/>
<path class="st1" d="M321.8,334.9c-0.1,0-0.3,0-0.4,0v38.3c-4.8-0.4-9.5-0.9-14.2-1.6c-21.3-3.1-42-9.1-61.6-17.9
	c-5.7-2.6-11.2-5.3-16.6-8.3c-9.1-5-17.8-10.7-26-17c-2.1-1.6-4.1-3.2-6.1-4.9c-1.4-1.2-2.8-2.3-4.2-3.5c-1-0.8-2-1.6-3-2.3v-45.2
	h104.8c-0.1-0.3-0.1-0.5-0.2-0.8c0.1,0.3,0.2,0.5,0.2,0.8h26.9v62.5C321.5,334.9,321.6,334.9,321.8,334.9z"/>
<path class="st1" d="M390.6,147.2h-17.3v-5.4h7.7v-16c0.7,0.2,1.3,0.5,2,0.8v15.2h7.5L390.6,147.2z"/>
<path class="st1" d="M432.2,210.4h-84.9c0,0,0,0,0,0h0h-15.7v-58.8h4.5v43.4h20.4v-25.7h16.8V149h17.3v20.3h16.8v25.7h24.8
	L432.2,210.4z"/>
<path class="st1" d="M331.6,212.2v58.3h100.6v-58.3H331.6z M459.5,339.2l0.1-46.2h-27.5v-20.7H331.6v101.4
	c8.3,0.3,16.5,0.2,24.8-0.3l0,0h0.1c3.9-0.3,7.9-0.6,11.8-1.1h0.1c20.8-2.4,41.2-7.9,60.4-16.1"/>
<path class="st1" d="M471.7,272.3h23.5c-0.2,11.8-2.6,23.5-7.8,34.2c-4.3,8.9-10.3,16.7-17.5,23.6V293h1.8V272.3z"/>
<path class="st1" d="M495.2,270.5h-23.5v-48.8h12.7C491,237.1,495.2,254,495.2,270.5z"/>
<rect x="307.1" y="168" class="st1" width="14.2" height="18.4"/>
<rect x="307.1" y="206.1" class="st1" width="14.2" height="4.2"/>
<rect x="307.1" y="212.2" class="st1" width="14.2" height="12.4"/>
<rect x="307.1" y="244.3" class="st1" width="14.2" height="18.4"/>
<rect x="307.1" y="282.5" class="st1" width="14.2" height="18.4"/>
<path class="st1" d="M321.4,334.9c0.1,0,0.3,0,0.4,0C321.6,334.9,321.5,334.9,321.4,334.9v4.3h-14.2v-18.4h14.2L321.4,334.9z"/>
<path class="st1" d="M321.4,358.9v14.2c-4.8-0.4-9.5-0.9-14.2-1.6v-12.6H321.4z"/>
<rect x="189.7" y="269.2" class="st1" width="60.9" height="1.4"/>
<rect x="189.7" y="272.3" class="st1" width="60.9" height="5.2"/>
<rect x="189.7" y="294.5" class="st1" width="60.9" height="8.3"/>
<path class="st1" d="M250.6,319.9v8.3h-47.7c-2.1-1.6-4.1-3.2-6.1-4.9c-1.4-1.2-2.8-2.3-4.2-3.5L250.6,319.9z"/>
<path class="st1" d="M250.6,345.2v8.4h-5c-5.7-2.6-11.2-5.3-16.6-8.3L250.6,345.2z"/>
<rect x="356.3" y="217.8" class="st1" width="12" height="12"/>
<rect x="96.6" y="162" class="st1" width="12" height="12"/>
<rect x="96.6" y="189.8" class="st1" width="12" height="12"/>
<rect x="96.6" y="217.7" class="st1" width="12" height="12"/>
<rect x="96.6" y="245.5" class="st1" width="12" height="12"/>
<rect x="96.6" y="273.4" class="st1" width="12" height="12"/>
<rect x="96.6" y="301.2" class="st1" width="12" height="12"/>
<rect x="402.1" y="217.8" class="st1" width="12" height="12"/>
<rect x="356.3" y="247.4" class="st1" width="12" height="12"/>
<rect x="402.1" y="247.4" class="st1" width="12" height="12"/>
<rect x="356.3" y="277" class="st1" width="12" height="12"/>
<rect x="402.1" y="277" class="st1" width="12" height="12"/>
<rect x="356.3" y="306.6" class="st1" width="12" height="12"/>
<rect x="402.1" y="306.6" class="st1" width="12" height="12"/>
<rect x="356.3" y="336.2" class="st1" width="12" height="12"/>
<rect x="402.1" y="336.2" class="st1" width="12" height="12"/>
<polygon class="st1" points="356.3,373.5 356.3,365.8 368.3,365.8 368.3,372.4 "/>
<path class="st1" d="M36.7,195.4v6.9h41v-6.9H36.7z M40.8,201.8h-3.4v-6h3.4V201.8z M44.9,201.8h-3.4v-6h3.4V201.8z M49,201.8h-3.4
	v-6H49V201.8z M53.1,201.8h-3.4v-6h3.4V201.8z M57.2,201.8h-3.4v-6h3.4V201.8z M61.3,201.8h-3.4v-6h3.4V201.8z M65.3,201.8H62v-6
	h3.4V201.8z M69.4,201.8H66v-6h3.4V201.8z M73.5,201.8h-3.4v-6h3.4V201.8z M77.6,201.8h-3.4v-6h3.4V201.8z"/>
<path class="st1" d="M36.7,215.4v6.9h41v-6.9H36.7z M40.8,221.8h-3.4v-6h3.4V221.8z M44.9,221.8h-3.4v-6h3.4V221.8z M49,221.8h-3.4
	v-6H49V221.8z M53.1,221.8h-3.4v-6h3.4V221.8z M57.2,221.8h-3.4v-6h3.4V221.8z M61.3,221.8h-3.4v-6h3.4V221.8z M65.3,221.8H62v-6
	h3.4V221.8z M69.4,221.8H66v-6h3.4V221.8z M73.5,221.8h-3.4v-6h3.4V221.8z M77.6,221.8h-3.4v-6h3.4V221.8z"/>
<path class="st1" d="M36.7,235.3v6.9h41v-6.9H36.7z M40.8,241.8h-3.4v-6h3.4V241.8z M44.9,241.8h-3.4v-6h3.4V241.8z M49,241.8h-3.4
	v-6H49V241.8z M53.1,241.8h-3.4v-6h3.4V241.8z M57.2,241.8h-3.4v-6h3.4V241.8z M61.3,241.8h-3.4v-6h3.4V241.8z M65.3,241.8H62v-6
	h3.4V241.8z M69.4,241.8H66v-6h3.4V241.8z M73.5,241.8h-3.4v-6h3.4V241.8z M77.6,241.8h-3.4v-6h3.4V241.8z"/>
<path class="st1" d="M36.7,255.3v6.9h41v-6.9H36.7z M40.8,261.7h-3.4v-6h3.4V261.7z M44.9,261.7h-3.4v-6h3.4V261.7z M49,261.7h-3.4
	v-6H49V261.7z M53.1,261.7h-3.4v-6h3.4V261.7z M57.2,261.7h-3.4v-6h3.4V261.7z M61.3,261.7h-3.4v-6h3.4V261.7z M65.3,261.7H62v-6
	h3.4V261.7z M69.4,261.7H66v-6h3.4V261.7z M73.5,261.7h-3.4v-6h3.4V261.7z M77.6,261.7h-3.4v-6h3.4V261.7z"/>
<path class="st1" d="M36.9,275.3c0.2,0.6,0.4,1.3,0.5,1.9v-1.5h3.4v6h-1.8c0.1,0.1,0.1,0.3,0.2,0.4h38.6v-6.8H36.9z M45,281.7h-3.4
	v-6H45V281.7z M49,281.7h-3.4v-6H49V281.7z M53.1,281.7h-3.4v-6h3.4V281.7z M57.2,281.7h-3.4v-6h3.4V281.7z M61.3,281.7h-3.4v-6h3.4
	V281.7z M65.4,281.7H62v-6h3.4V281.7z M69.5,281.7h-3.4v-6h3.4V281.7z M73.5,281.7h-3.4v-6h3.4V281.7z M77.6,281.7h-3.4v-6h3.4
	V281.7z"/>
<path class="st1" d="M46.5,295.2c0.1,0.1,0.2,0.3,0.3,0.4H49v2.9l0.7,0.8v-3.7h3.4v6h-1.4c0.1,0.1,0.3,0.3,0.4,0.4h25.7v-6.9H46.5z
	 M57.2,301.7h-3.4v-6h3.4V301.7z M61.3,301.7h-3.4v-6h3.4V301.7z M65.4,301.7H62v-6h3.4V301.7z M69.4,301.7h-3.4v-6h3.4V301.7z
	 M73.5,301.7h-3.4v-6h3.4V301.7z M77.6,301.7h-3.4v-6h3.4V301.7z"/>
<path class="st1" d="M69,315.2c0.4,0.2,0.8,0.4,1.2,0.6v-0.2h3.4v1.9c0.2,0.1,0.5,0.2,0.7,0.3v-2.2h3.4v3.7c0.1,0,0.1,0.1,0.2,0.1
	v-4.1H69z"/>
<path class="st1" d="M347.3,210.4L347.3,210.4L347.3,210.4z M321.4,334.9L321.4,334.9h0.4H321.4z M294.3,271.5
	c0.1,0.3,0.2,0.5,0.2,0.8l0,0C294.4,272.1,294.3,271.8,294.3,271.5z M347.3,210.4L347.3,210.4L347.3,210.4z M92.6,147.2v1.8h18.8
	v-1.8L92.6,147.2z M321.4,334.9L321.4,334.9h0.4H321.4z M294.3,271.5c0.1,0.3,0.2,0.5,0.2,0.8l0,0
	C294.4,272.1,294.3,271.8,294.3,271.5z M347.3,210.4L347.3,210.4L347.3,210.4z M321.4,334.9L321.4,334.9h0.4H321.4z M294.3,271.5
	c0.1,0.3,0.2,0.5,0.2,0.8l0,0C294.4,272.1,294.3,271.8,294.3,271.5z"/>
<ellipse class="st1" cx="373.6" cy="426.9" rx="41.1" ry="6.6"/>
<ellipse class="st1" cx="188.3" cy="420.3" rx="41.1" ry="6.6"/>
<linearGradient id="SVGID_1_" gradientUnits="userSpaceOnUse" x1="215.0418" y1="61.4989" x2="215.0418" y2="305.1309" gradientTransform="matrix(1 0 0 -1 -15.95 483.44)">
	<stop  offset="0" style="stop-color:#808181;stop-opacity:0.25"/>
	<stop  offset="0.54" style="stop-color:#808181;stop-opacity:0.12"/>
	<stop  offset="1" style="stop-color:#808181;stop-opacity:0.1"/>
</linearGradient>
<path class="st2" d="M235.6,245.7c0,0,0-0.1-0.1-0.1c-0.6-0.6-8.6-12-8.6-12s-0.4-1.3-1.1-2.9c0.2-0.3,0.4-0.6,0.5-0.9
	c0-0.1,0.1-0.3,0.1-0.4c0,0,0-0.1,0-0.1c0.1-0.6,0.1-1.2,0-1.7c0,0.1-0.1,0.3-0.2,0.4c-0.2-0.5-0.4-1-0.6-1.4
	c-1.1-1.8-2.6-3.4-3.7-5.2c-1.7-2.8-2.4-6-1.9-9.3c0,0.2,0,0.3,0,0.5c0-0.6,0.1-1.3,0.3-1.9c0.2-0.7,0.4-1.4,0.7-2.1
	c1-2.3,2.6-4.3,3.6-6.6c0.3-0.8,0.6-1.6,0.8-2.4c0.3-1.4,0.5-2.8,0.4-4.2c0,0.3-0.1,0.7-0.1,1c-0.1-3.4-1.5-6.7-3.9-9.1
	c-3.4-3.5-8.4-4.8-13.1-5.5c-2-0.2-3.9-1-5.5-2.1c-1.8-1.2-4.2-1.5-6.3-1.2c-2.4,0.3-4.7,1.4-6.4,3.2c-2.2,2.5-3.2,6-5.8,8.1
	c-1.6,1.3-3.6,1.9-5.5,2.7c-1.9,0.9-3.6,2.1-4.2,4c0,0,0,0,0,0v0.1l0,0.1c-0.6,2.2,0.6,4.4,1.2,6.6c0.6,2.3,0.7,4.6,0.7,7
	c0,2.9,0.1,5.7,0,8.6c0,1.1-0.1,2.3-0.1,3.4c-1,0.3-2,0.7-2.9,1.2c-0.9,0.6-4.5,4.4-4.5,4.4l-6.9,26.4l0.1,0.1l-0.1,0.4l0.4-0.1
	c1,1.1,3.9,4.1,7.1,5.9l0.3,5.2c0,0,0.4,5.2,5.1,7.3c0.1,1.8,0.5,9.1-1.1,12c-1.1,2.1-1.6,4.5-1.5,6.9c0,0,0.6,4.4-0.1,6.7
	c-0.4,1.5-0.4,3.2-0.1,4.7l0,0c0,0,0,0.5,0,1.4c0,4.7,0.1,19.7,0,21.4c-0.1,2,0,31.6,0,31.6s-0.4,14.8-1.6,18.8s-0.9,17.3-0.9,17.3
	s-0.8,15.8,2,18.9c0,0.1,0,0.3,0,0.4c0,0.1,0,0.1,0,0.2c0,1.2,0.2,2.5,1.2,2.9c2.1,0.8,4.9,3.2,5.4,3.9c0.5,0.7,3.6,2.4,7.6,2
	c2.5-0.3,5-0.4,7.5-0.3l0,0c0,0,1.6-0.3,1.1-2.2l0,0l0,0c-0.3-1.2-1.6-3.1-2.4-4.3c0.2,0,0.3,0.1,0.5,0.1l0.2,0h0.1
	c0.1,0,0.1,0,0.2,0h0.1c0.1,0,0.2,0,0.2,0l0,0c1.1-0.1,5,1.7,5.7,3s3.2,2.1,5.1,2.4c1.1,0.1,3.9-0.1,6.3-0.4
	c1.2-0.1,2.4-0.3,3.5-0.6c0.6-0.2,0.7-0.9,0.5-1.6l0,0c-0.2-1-0.7-1.8-1.5-2.5c-0.7-0.5-1.6-1.8-2.3-2.8l-0.2-0.3
	c1.2-1.1,3.3-4.8,3.9-5.5c0.8-0.9-1.3-34.7-1.3-34.7V355l3.1-16l2.2-8.5l1.9-12.8c0,0,3.3-15,2.3-16.4l0,0c0,0-0.8-15.4-1.7-19.1
	c-0.4-1.6-0.3-5.4-0.1-9c0.5-0.5,0.6-1.2,0.4-1.8c-0.1-0.2-0.1-0.4-0.2-0.6c0-0.1,0-0.1,0-0.2c1.8-0.8,3.7-1.5,5.7-1.9
	c3.1-0.6,2.4-2.2,2.4-2.2s0.7-1.4,1.2-2.2s0.1-8.3,0-8.9c0-0.2-0.2-1.6-0.4-3.2c1-0.7,2.3-1.6,3.7-2.5
	C236.5,247.9,235.8,246.2,235.6,245.7z M194.6,352.7c0,0-2.4,6-1.4,7.6c0.9,1.5-0.2,7.3-0.2,7.3l-0.8,8.5c0,0-2.2,15.7-1.4,19.4
	c0.6,2.9,0.8,11.6,0.9,15.2l0,0c-0.1,0-0.1,0-0.2,0.1l-0.1,0.1c0.4-1.4,0.2-4.3-1.6-10.1l-0.2-23.9c0,0-0.3-27.6,1.9-30.7
	s3-8.3,3-8.3s-0.5,7.6-0.8,9.6C193.5,349.3,194.6,352.7,194.6,352.7z M190.2,412.1c0,0.1,0,0.1-0.1,0.1l-0.1-0.2
	C190.1,412.1,190.2,412.1,190.2,412.1z"/>
<path class="st3" d="M214.3,421.5c-1.2,0.5-7.8,1.3-9.7,1c-1.8-0.2-4.3-1.2-5-2.4s-4.6-3.1-5.6-3c-0.4,0-0.9,0-1.3-0.2
	c-0.7-0.2-1.4-0.5-2.1-0.8c-0.1-0.5-0.1-1.1,0-1.6c0-0.1,0.1-0.2,0.1-0.3c0.2-0.7,0.8-1.3,1.4-1.6l0.2-0.1c0.3-0.1,0.6-0.2,0.9-0.3
	c3.3-0.6,17,0.6,17,0.6s0.4,0.7,0.9,1.5c0.7,1.1,1.6,2.3,2.2,2.8c0.7,0.6,1.3,1.5,1.4,2.5C214.9,420.6,214.8,421.3,214.3,421.5z"/>
<path class="st4" d="M214.3,421.5c-1.2,0.5-7.8,1.3-9.7,1c-1.8-0.2-4.3-1.2-5-2.4c-0.7-1.2-4.6-3.1-5.6-3c-1,0.1-3.4-1-3.4-1
	s-0.4-1.7,0.7-2.8l2.1,1.5c0,0,5.6,1.8,6.7,3.4c1,1.6,3,2.5,5.7,2.7c2.1,0.1,6.8-0.7,9-1.1C214.9,420.6,214.8,421.3,214.3,421.5z"/>
<path class="st3" d="M194.1,423.7c-2.5,0-5,0.1-7.4,0.4c-4,0.5-7-1.3-7.5-2s-3.3-3.1-5.4-4c-1-0.4-1.3-1.7-1.2-2.9
	c0-0.1,0-0.1,0-0.2c0-0.8,0.2-1.5,0.3-2.3l16.4-0.4l1.4,1.9l0.2,0.3l0.9,1.2c0,0,0.4,0.5,0.9,1.3c0.9,1.3,2.1,3.1,2.4,4.4l0,0
	C195.6,423.4,194.1,423.7,194.1,423.7z"/>
<path class="st4" d="M194.1,423.7c-2.5,0-5,0.1-7.4,0.4c-4,0.5-7-1.3-7.5-2s-3.3-3.1-5.4-4c-1-0.4-1.3-1.7-1.2-2.9
	c1.2,0.3,3.6,1,4.6,2.2c1.3,1.6,3.5,4.4,6.7,4.5c2.6,0.1,8.9-0.3,11.2-0.5C195.7,423.4,194.1,423.7,194.1,423.7z"/>
<path class="st4" d="M192.1,412.7c-0.2,1.4-0.8,1.8-1.2,1.9c-0.1,0-0.2,0-0.3,0c-0.1,0-0.1,0-0.2,0c0,0-14.7,3.3-17.7,0.6
	c-0.1-0.1-0.1-0.1-0.2-0.2c0-0.8,0.2-1.5,0.3-2.3l16.4-0.4l1.4,1.9C191,413.6,191.5,413,192.1,412.7L192.1,412.7z"/>
<path class="st4" d="M211.1,414.6c-0.3,0.4-0.6,0.6-0.8,0.5c-0.8-0.3-7.1-1.4-9.2-0.5c-2,0.9-8.9,0.2-8.9,0.2s0-0.8,0-2.1
	c0.3-0.1,0.6-0.2,0.9-0.3c3.3-0.6,17,0.6,17,0.6S210.6,413.7,211.1,414.6z"/>
<path class="st5" d="M220.7,319.2l-1.9,12.9l-2.2,8.5l-3.1,16.1v17.1c0,0,2,34,1.2,34.9s-3.7,6.2-4.5,5.9c-0.8-0.3-7.1-1.4-9.2-0.5
	c-2,0.9-8.9,0.2-8.9,0.2s-0.2-13.2-0.9-16.9s1.4-19.6,1.4-19.6l0.8-8.5c0,0,1.1-5.7,0.2-7.3c-0.9-1.6,1.4-7.6,1.4-7.6
	s-1.1-3.4-0.8-5.4c0.3-2,0.8-9.6,0.8-9.6s-0.8,5.3-2.9,8.4c-2.2,3.1-1.9,30.9-1.9,30.9l0.2,24c3.9,12.7,0,11.5,0,11.5
	s-14.7,3.3-17.7,0.6s-2.1-19.3-2.1-19.3s-0.3-13.3,0.9-17.4c1.2-4,1.6-18.9,1.6-18.9s-0.1-29.8,0-31.8c0.1-1.7,0-16.8,0-21.5
	c0-0.9,0-1.4,0-1.4l1.8-4.4l21.1-2.6h10.1c0,0,15.2,3.6,16.8,5.1c0,0,0.1,0.1,0.1,0.1C224,304.1,220.7,319.2,220.7,319.2z"/>
<path class="st4" d="M195.1,386.8c0,0,4.6,11.2,6.8,11.9C204.2,399.6,195.1,386.8,195.1,386.8z"/>
<path class="st4" d="M196.9,403.3c0,0,15.7,0.8,15.5,2.5C212.2,407.5,196.9,403.3,196.9,403.3z"/>
<path class="st4" d="M175.9,398.8c0.6,0.6,11.9,1.7,11,2.8s-10.1,3.2-10.1,3.2L175.9,398.8z"/>
<path class="st4" d="M174,379.5c0,0.5,2.3,14.9,3,15.5s5.7,1.2,5.7,1.2L174,379.5z"/>
<path class="st6" d="M190.9,182.3c-2.2,2.5-3.2,6-5.8,8.1c-1.6,1.3-3.6,1.9-5.4,2.7c-1.8,0.9-3.6,2.2-4.2,4.1
	c-0.6,2.2,0.6,4.4,1.2,6.6c0.6,2.3,0.7,4.6,0.7,7c0,2.9,0.1,5.7,0,8.6c-0.1,4.5-0.4,9.2-2.8,12.9c8.6,2.7,17.7,3.1,26.7,3.4
	c1.7,0.1,3.5,0.1,5.2-0.1c1.5-0.3,3-0.7,4.4-1.1c2.9-0.8,5.8-1.1,8.8-1.1c1.3,0,2.6,0.1,3.9-0.3c1.2-0.3,2.5-1.2,2.8-2.5
	c0.3-1.1-0.1-2.3-0.7-3.3c-1-1.8-2.5-3.4-3.7-5.2c-2.3-3.9-2.7-8.6-0.9-12.8c1-2.3,2.6-4.3,3.6-6.7c2-5.1,0.9-10.9-2.8-14.9
	c-3.4-3.5-8.3-4.8-13-5.5c-2-0.2-3.8-1-5.5-2.1c-1.8-1.2-4.1-1.5-6.2-1.2C194.8,179.4,192.6,180.5,190.9,182.3z"/>
<g class="st7">
	<path class="st8" d="M221.3,207c-0.9,2-1.2,4.2-1.1,6.4c0.1-1.6,0.5-3.1,1.1-4.6c1-2.3,2.6-4.3,3.6-6.7c0.8-1.9,1.1-4,1-6.1
		c-0.1,1.5-0.4,2.9-1,4.3C223.9,202.7,222.3,204.7,221.3,207z"/>
	<path class="st8" d="M177.6,210.3c0,1.7,0.1,3.3,0.1,5c0-2.3,0-4.6-0.1-6.8c0-2.4-0.1-4.7-0.7-7c-0.4-1.4-1-2.9-1.3-4.4
		c-0.4,2.1,0.7,4.2,1.3,6.2C177.5,205.5,177.6,207.9,177.6,210.3z"/>
	<path class="st8" d="M223.8,230.8c-1.3,0.3-2.6,0.3-3.9,0.3c-3,0-5.9,0.4-8.8,1.1c-1.5,0.4-2.9,0.8-4.4,1.1
		c-1.7,0.2-3.5,0.3-5.2,0.1c-8.7-0.3-17.5-0.7-25.8-3.2c-0.2,0.6-0.5,1.1-0.8,1.6c8.6,2.7,17.7,3.1,26.7,3.4
		c1.7,0.1,3.5,0.1,5.2-0.1c1.5-0.3,3-0.7,4.4-1.1c2.9-0.8,5.8-1.1,8.8-1.1c1.3,0,2.6,0.1,3.9-0.3s2.5-1.2,2.8-2.4
		c0.1-0.6,0.1-1.2,0-1.8C226.1,229.7,225,230.5,223.8,230.8z"/>
</g>
<path class="st9" d="M211.3,225.8c-0.3,0.7-1.6,6.7-1.9,7.4c-0.3,0.6-2,10.5-2.2,11.1c-0.2,0.6-11.2-2.3-11.2-2.3l-6.7-5.6l-6.9-6.8
	c0,0-0.2-6.2,4.8-8.1c0.3-0.1,0.7-0.2,1.1-0.3c6.1-1.5,5.5-20.1,5.5-20.1l12.6,5.4c0,0-2.3,10.9-2.2,13c0,0.7,0.6,1.1,1.3,1.4
	c1.1,0.3,2.3,0.4,3.4,0.4C208.9,221.2,211.6,225.2,211.3,225.8z"/>
<path class="st5" d="M233.8,246.3l1.8,0.5c0,0,1.3,2-1.8,3.9c-2,1.2-3.9,2.5-5.7,4l-9.2,2.8l-1.8-5.5l8.5-6.5L233.8,246.3z"/>
<path class="st4" d="M233.8,246.3l1.8,0.5c0,0,1.3,2-1.8,3.9c-2,1.2-3.9,2.5-5.7,4l-9.2,2.8l-1.8-5.5l8.5-6.5L233.8,246.3z"/>
<path class="st5" d="M166.8,251.6l-3.6,3.5c0,0,6.4,7.4,11.4,7.9c5,0.5,8.1-5.7,8.1-5.7l-4.3-6.7L166.8,251.6z"/>
<path class="st4" d="M166.8,251.6l-3.6,3.5c0,0,6.4,7.4,11.4,7.9c5,0.5,8.1-5.7,8.1-5.7l-4.3-6.7L166.8,251.6z"/>
<circle class="st4" cx="200.7" cy="200.8" r="12.4"/>
<circle class="st9" cx="200.7" cy="199.9" r="12.4"/>
<path class="st4" d="M223,304.1c-2.8,0.3-5.6,0.9-8.3,1.9c-4.6,1.5-41,0-41.5,0c0-0.9,0-1.4,0-1.4l1.8-4.4l21.1-2.6h10.1
	c0,0,15.2,3.6,16.8,5.1C223,303.5,223,304.1,223,304.1z"/>
<path class="st4" d="M211.3,225.8c-0.3,0.7-1.6,6.7-1.9,7.4c-0.3,0.6-2,10.5-2.2,11.1c-0.2,0.6-11.2-2.3-11.2-2.3l-6.7-5.6l-6.9-6.8
	c0,0-0.2-6.2,4.8-8.1l12.5,14.4l5.6-15c1.1,0.3,2.3,0.4,3.4,0.4C208.9,221.2,211.6,225.2,211.3,225.8z"/>
<path class="st5" d="M199.8,236.3L187,221.6c-1.5-1-3.4-1.1-5.1-0.4c-2.9,1.2-6.4,2.3-7.4,2.9c-0.9,0.6-4.4,4.5-4.4,4.5l10.4,27.2
	l-4.6,17.9c0,0,0.7,9.2-1.1,12.5c-1.1,2.1-1.6,4.5-1.5,6.9c0,0,0.5,4.4-0.1,6.7c-0.4,1.6-0.4,3.2-0.1,4.7c0,0,36.9,1.6,41.5,0
	c2.7-0.9,5.5-1.5,8.3-1.9c0,0-0.8-15.5-1.7-19.2c-0.8-3.7,0.7-17.9,0.7-17.9l-1-15.2l6-15.6c0,0-3.3-10-6.7-11c0,0-6.2-1.5-7.5-2.2
	c-1.3-0.7-5.2-1.3-5.2-1.3l-2,0.7L199.8,236.3z"/>
<path class="st4" d="M190.7,247.9l27,1.8c0.7,0,1.2,0.6,1.2,1.3l-2.9,42.6c0,0.7-0.6,1.2-1.3,1.2l-27-1.8c-0.7,0-1.2-0.6-1.2-1.3
	l2.9-42.6C189.4,248.4,190,247.9,190.7,247.9z"/>
<path class="st6" d="M191.6,247l27,1.8c0.7,0,1.2,0.6,1.2,1.3l-2.9,42.6c0,0.7-0.6,1.2-1.3,1.2l-27-1.8c-0.7,0-1.2-0.6-1.2-1.3
	l2.9-42.6C190.4,247.5,190.9,247,191.6,247z"/>
<rect x="184.1" y="257.9" transform="matrix(6.784116e-02 -0.9977 0.9977 6.784116e-02 -80.3342 455.4627)" class="st3" width="38.9" height="25.7"/>
<rect x="201.8" y="253.8" transform="matrix(6.982913e-02 -0.9976 0.9976 6.982913e-02 -73.1996 450.0711)" class="st4" width="5.9" height="21"/>
<rect x="211.4" y="285.1" transform="matrix(6.784116e-02 -0.9977 0.9977 6.784116e-02 -87.6164 479.6967)" class="st4" width="3.1" height="3.3"/>
<rect x="201.2" y="270.4" transform="matrix(6.784116e-02 -0.9977 0.9977 6.784116e-02 -89.2657 462.2955)" class="st4" width="3.1" height="17.1"/>
<rect x="203.2" y="243.6" transform="matrix(6.784116e-02 -0.9977 0.9977 6.784116e-02 -60.3181 440.4052)" class="st6" width="4.7" height="17.8"/>
<rect x="203.2" y="243.6" transform="matrix(6.784116e-02 -0.9977 0.9977 6.784116e-02 -60.3181 440.4052)" class="st4" width="4.7" height="17.8"/>
<path class="st4" d="M201.3,303.2c0,0-0.2,23-6.2,36.2c0,0,7.3-17.4,7.3-18.1s4-8,3-10.2S201.3,303.2,201.3,303.2z"/>
<path class="st4" d="M201.7,196.8c-0.2-2,0.3-4.1,1.4-5.8c-0.3,3.5,2.1,6.7,5.5,7.5c-0.3-0.3-0.4-0.7-0.3-1c0.9,1,1.5,2.1,2.5,3
	c1,0.9,2.4,1.4,3.6,0.8c1.6-0.8,1.6-3.1,1.2-4.8c-0.9-3.7-2.7-7.1-5.2-9.9c-1.3-1.7-3.3-2.7-5.4-2.8c-2.4-0.2-4.9,0-7,1.1
	c-1.2,0.7-2.3,1.4-3.4,2.4l-5.9,4.8c-0.6,0.4-1.1,0.9-1.4,1.5c-0.3,0.5-0.4,1-0.4,1.6c-0.3,3.2,1.2,6.3,4,8
	c-0.1-2.5,1.4-4.9,3.8-5.9c0.4,0.3,0.6,0.7,0.6,1.2l1.2-2.2c0.2-0.4,0.5-0.7,0.8-1c0.8-0.4,1.7,0.1,2.4,0.7c0.7,0.6,1.3,1.3,2.2,1.4
	l0-3.3"/>
<path class="st6" d="M201.7,196.3c-0.2-2,0.3-4.1,1.4-5.8c-0.4,3.4,2.2,6.9,5.5,7.5c-0.3-0.3-0.4-0.7-0.3-1c0.9,1,1.5,2.1,2.5,3
	c1,0.9,2.4,1.4,3.6,0.8c1.6-0.8,1.6-3.1,1.2-4.8c-0.9-3.7-2.7-7.1-5.2-9.9c-0.8-1-1.8-1.7-2.9-2.3c-0.8-0.3-1.7-0.5-2.5-0.5
	c-2.4-0.2-4.9,0-7,1.1c-1.2,0.7-2.3,1.5-3.4,2.4l-5.9,4.8c-0.6,0.4-1.1,0.9-1.4,1.5c-0.3,0.5-0.4,1-0.4,1.6c-0.3,3.2,1.2,6.3,4,8
	c-0.1-2.5,1.4-4.9,3.8-5.9c0.4,0.3,0.6,0.7,0.6,1.2l1.2-2.2c0.2-0.4,0.5-0.8,0.8-1c0.8-0.4,1.7,0.1,2.4,0.7s1.3,1.3,2.2,1.4l0-3.3"
	/>
<path class="st9" d="M207.6,274.6c-1.1-0.5-19,2.2-19,2.2s-3-0.8-10.1-2s-7.6-8.1-7.6-8.1l-0.8-14l2.4-2.1l10.3,6.7c0,0,0.2,3.4,0,4
	c-0.1,0.4-0.4,0.9-0.3,1.3c0,0.2,0.2,0.3,0.3,0.4c0.7,0.2,10.2,1.7,10.2,1.7s22.1-1.5,27.6,5.9c0.4,0.5,0.8,1.2,1,1.8
	C223,277.6,208.5,275.1,207.6,274.6z"/>
<path class="st4" d="M221.7,272.5c-0.8,0.4-1.4,0.6-1.4,0.6s-7.9-0.2-12.4-1.8s-9.8-1.3-9.8-1.3s-18.5-3.2-15.7-7.4
	c0,0.2,0.2,0.3,0.3,0.4c0.7,0.2,10.2,1.7,10.2,1.7s22.1-1.5,27.6,5.9C221.1,271.2,221.4,271.9,221.7,272.5z"/>
<path class="st9" d="M229.4,248c0,0,1.1,7.7,1.2,8.3c0.1,0.6,0.5,8.1,0,9s-1.2,2.2-1.2,2.2s0.8,1.6-2.3,2.3
	c-3.1,0.6-6.7,2.5-6.7,2.5s-7.9-0.2-12.3-1.9c-4.4-1.6-9.9-1.3-9.9-1.3s-23.5-4-13.4-9c10.1-4.9,17.2,1.7,17.2,1.7l11.2-0.7
	c0,0,4.2-2.6,5.4-2.3c0.8,0.1,1.7,0,2.4-0.4l0.1-8.1L229.4,248z"/>
<path class="st4" d="M172.3,229.1l-2.3-0.1l-6.8,26.6c0,0,7.4-1.9,10.5,0c3.2,1.9,9,2.2,9,2.2l-2.2-21.2L172.3,229.1z"/>
<path class="st5" d="M172.3,228.6l-2.3-0.1l-6.8,26.6c0,0,7.4-1.9,10.5,0c3.2,1.9,9,2.2,9,2.2l-2.2-21.2L172.3,228.6z"/>
<path class="st4" d="M223.9,234.5l3.1,0.7c0,0,7.9,11.4,8.5,12c0.6,0.6-3,3-4.4,3s-8.7,0.8-10.8,2.8c-2.1,1.9-1.2-7.9-1.2-8.1
	s2.6-6.4,2.6-6.4L223.9,234.5z"/>
<path class="st5" d="M223.9,234l3.1,0.7c0,0,7.9,11.4,8.5,12c0.6,0.6-3,3-4.4,3s-8.7,0.8-10.8,2.8c-2.1,1.9-1.2-7.9-1.2-8.1
	s2.6-6.4,2.6-6.4L223.9,234z"/>
<g class="st7">
	<path class="st8" d="M203.1,190.5c0-0.3,0-0.6,0-1c-0.6,1-1.1,2-1.3,3.2v1c0,0,0,0,0,0v0.2c0,0.7,0,1.4,0,2.1h-0.1v0.3
		c0-0.1,0-0.2,0-0.3c-0.8-0.1-1.4-0.8-2.1-1.4c-0.6-0.6-1.6-1.1-2.4-0.7c-0.4,0.2-0.7,0.6-0.8,1l-1.3,2.2c0-0.5-0.2-0.9-0.6-1.2
		c-2.3,1-3.8,3.4-3.8,5.9c-2.3-1.5-3.8-4-4-6.7c-0.1,3.1,1.4,6,4,7.6c-0.1-2.5,1.4-4.9,3.8-5.9c0.4,0.3,0.6,0.7,0.6,1.2l1.2-2.2
		c0.2-0.4,0.5-0.8,0.8-1c0.8-0.4,1.7,0.1,2.4,0.7s1.3,1.3,2.2,1.4c0-1.1,0-2.2,0-3.2C202,192.6,202.4,191.5,203.1,190.5z"/>
	<path class="st8" d="M201.6,194.8c0-0.3,0.1-0.6,0.1-0.8l0-1.2C201.6,193.4,201.6,194.1,201.6,194.8z"/>
	<path class="st8" d="M214.4,199.8c-1.2,0.6-2.6,0.1-3.6-0.8c-1-0.9-1.6-2-2.5-3c-0.1,0.4,0,0.8,0.3,1c-0.1,0-0.2,0-0.2-0.1
		c0.8,1,1.5,2.1,2.5,3c1,0.8,2.4,1.4,3.6,0.8c1.2-0.6,1.5-2.1,1.4-3.5C215.7,198.4,215.3,199.3,214.4,199.8z"/>
	<path class="st8" d="M208.3,197c-2.9-0.8-5-3.3-5.3-6.3c-0.2,3.3,2.3,6.6,5.5,7.3C208.3,197.8,208.2,197.4,208.3,197z"/>
</g>
<linearGradient id="SVGID_2_" gradientUnits="userSpaceOnUse" x1="382.4261" y1="50.8147" x2="382.4261" y2="310.3048" gradientTransform="matrix(1 0 0 -1 -15.95 483.44)">
	<stop  offset="0" style="stop-color:#808181;stop-opacity:0.25"/>
	<stop  offset="0.54" style="stop-color:#808181;stop-opacity:0.12"/>
	<stop  offset="1" style="stop-color:#808181;stop-opacity:0.1"/>
</linearGradient>
<path class="st10" d="M410.9,265.9c0,0-1.7-0.2-1.7-2.6c0-2.4-1.2-6.9-1.2-6.9l0,0c0,0-1-7.9-2.5-9.1c-1.4-1.2-3.2-8.6-3.2-8.6
	s-0.3-4-0.9-4.8s-1.5-3-2.8-5.9c-1.3-3-6.5-5-6.5-5s-9.6-5.5-12.3-7.4l0,0c-0.2-0.1-0.5-0.3-0.7-0.5c-0.5-0.6-2.5-0.6-2.5-0.6
	c-0.2-1.4-0.4-2.9-0.5-4.3c0-0.2,0-0.3,0-0.5c3-1.8,5.3-4.6,6.4-7.9c0.1-0.2,0.1-0.3,0.1-0.5c0.4-0.1,0.7-0.4,0.8-0.7
	c0.2-0.5,0.2-1.2,0.6-1.7c0.4-0.6,1-0.9,1.6-1.4c1.3-1.1,1.7-3.1,1.6-4.8c0-1.4-0.3-2.8-0.2-4.2c0-0.1,0-0.2,0-0.4
	c0-0.2,0.1-0.4,0.1-0.6c0.2-1,0.7-2,0.9-3.1s0.3-2.2-0.3-3.1c-0.9-1.3-2.7-1.6-4.2-1.7c-1.8-0.2-3.4,0-4.5-1.4
	c-0.5-0.8-1.1-1.5-1.8-2.2c-0.2-0.2-2.5-1.6-2.5-1.7c-2.2-1-4.8-1.2-7.2-0.6c-1.2,0.3-2.3,0.9-3.5,1.2c-2.6,0.6-5.6-0.1-7.8,1.4
	c-1.2,0.8-2,2.2-2.7,3.5c-0.6,1.1-1.1,2.1-1.7,3.2c-0.9,1.8-1.9,3.6-2.3,5.5c-0.1,0.4-0.1,0.9-0.2,1.3l0,0c0,0.2,0,0.3,0,0.5
	c0,0.1,0,0.1,0,0.2c0,0.1,0,0.3,0,0.4c0,0.1,0,0.2,0,0.3s0,0.3,0.1,0.4s0.1,0.4,0.1,0.6c0,0.1,0.1,0.2,0.1,0.2s0.1,0.3,0.1,0.4
	c0.1,0.1,0.1,0.1,0.1,0.2c0.1,0.1,0.1,0.3,0.2,0.4c0,0.1,0.1,0.1,0.1,0.2c0.1,0.2,0.2,0.4,0.4,0.6c0.9,1.1,2.2,1.8,3.2,2.9
	c0,0,0,0.1,0,0.1c0,0.1,0,0.2,0,0.3c0.1,4.8,2.6,9.2,6.6,11.8c0,0.2,0,0.3,0,0.5c0.1,1.3,0.1,2.5,0,3.8c-0.3-0.4-0.9-0.6-1.4-0.6
	c-0.2,0-0.4,0-0.5,0l0,0l0,0v0c-0.9,0.2-2.1,1.2-3.2,3.9c0,0-3.3,3.7-5.9,3.6c-2.5-0.2-8.9,3.9-8.9,3.9s-6.2,4.1-7.6,8.2
	c-0.7,2.3-1.6,4.6-2.7,6.9l-7.7,15.9l0,0l-1.4,12.7c0,0,0.8,5.6,0.6,6.5s3.2,8.6,3.2,8.6s11.2,19.7,15.8,20.7l0.3-0.2
	c0.2,0.1,0.4,0.2,0.6,0.2l0.9-0.7c0.1,0.7,0,1.5-0.1,2.2c-0.6,2,0.2,14.7,1.3,17.2c1.1,2.5,0.7,35.2,0.7,35.2l-0.2,2.9
	c0,0,0,0.1,0,0.3l0,0.7l0.1,0.1c0.1,0.9,0.1,1.8-0.1,2.7c-0.4,1.3-0.6,4.8-0.6,4.8s-3.2,20.2-1.7,24.2c1.5,4.1,2.8,8.5,2.8,8.5
	s1.6,5.1,0.1,5.9c-1.5,0.8-5.8,2.3-4.9,4.4c0.8,1.9,3.8,7.2,4.3,7.9l0,0.4l-0.6,6.7c0.1,0.9,0.3,1.8,0.7,2.6c0.7,1.5,2,3,4.5,2.8
	c0.4,0,0.9-0.1,1.4-0.1c4.6-0.6,10.2-2.7,10.2-2.7c-0.3-0.2-0.6-0.4-0.8-0.7l0,0c-0.5-0.4-0.7-1.1-0.7-1.7c0.1-1.2-2.2-7.1-2.8-8.5
	l-0.1-0.3c0,0,5.2-5.5,4.4-10.3c0,0-5.8-3.4-3.9-5.2s5.3-7.2,5.3-7.2s0.2-19.9,0-22.8c-0.2-2.1-0.1-4.1,0.3-6.2
	c0.1-0.3,0.1-0.6,0.2-0.9c2.6,0.4,5.3,0.6,8,0.6c1,0,2,0,3-0.1c0,0.3,0,0.6,0,0.9c0.2,4.9,0.6,13.6,1,16.8c0.5,4.6,3.1,17,3.1,17
	s-5,3.2,0.9,11.1c0,0,0,2.9-0.4,3.3l0,0c-0.4,1.4-0.7,2.7-1,4.1c-0.2,1.5-0.3,3,0.1,3.8c0.9,1.9,6.6,1.7,6.6,1.7l0,0
	c0,0,0.1,0,0.1,0c2.2-0.2,4.3,0.4,6,1.8c2.2,1.7,10.4,1,14.8,0.4c1.7-0.2,2.9-0.4,2.9-0.4c0.1-0.2,0.1-0.4,0.1-0.6l0,0
	c0-1.1-0.9-3.5-6.7-5.6c0,0-5.5-3.7-5.4-6.9h-0.1h-0.6c0.4,0,0.7,0,0.7,0s-2.1-7.8-1.3-8.4c0.9-0.6-1.7-9.3-1.7-9.3
	s-1.5-14.5-1.6-15.5c0-0.9,0.1-1.7,0.4-2.6l-0.4-8c0,0-0.1-2.6,0-3.5c0-0.7-0.1-1.5-0.2-2.2c0-0.3-0.1-0.6-0.1-0.9
	c2-0.5,3.4-1,3.4-1l-0.2-27.7c1.7-3.4,2.1-10.8,2-16c0-3.4-0.2-5.9-0.2-5.9l2.4-3.9c0,0,0.5-4.6-0.3-5.7c-0.4-0.5-0.2-0.9,0.1-1.3
	c0.2-0.1,0.3-0.3,0.5-0.4c0,0,0-0.1-0.1-0.1c0.2-0.1,0.3-0.3,0.5-0.4c0,0-0.8-1.3-0.1-1.9c0.7,0.5,1.3,0.9,1.8,1.1
	c0,0.3-0.1,0.5-0.1,0.5l0.2-0.4c0.5,0.3,0.7,0.4,0.7,0.4s3.7-7.4,3.6-8.5c-0.1-1.1,2.5-5.7,2.5-5.7s0.3-2.4,1.7-3.4
	c1.4-1,1.1-8.3,1.1-8.3s0.4-3.8,1.3-5.4C412.6,268.1,410.9,265.9,410.9,265.9z M339.7,262.7l0.1,1.8c-0.4-0.7-0.7-1.2-0.7-1.2
	L339.7,262.7z"/>
<path class="st3" d="M401.6,297.8l-0.9,3.9c0,0-7.3-3.7-8.6-8.5c-1.3-4.7,2.2-6.5,2.2-6.5l6.8,2.9L401.6,297.8z"/>
<path class="st4" d="M401.6,297.8l-0.9,3.9c0,0-7.3-3.7-8.6-8.5c-1.3-4.7,2.2-6.5,2.2-6.5l6.8,2.9L401.6,297.8z"/>
<path class="st3" d="M360.6,429.8c0,0-6.7,2.5-11.4,2.8c-2.5,0.2-3.8-1.3-4.4-2.8c-0.4-0.8-0.6-1.7-0.7-2.5l0.6-6.7l0.3-3.6l9.9-2.6
	l1.4,4.3l0.1,0.3c0.6,1.4,2.8,7.2,2.7,8.4c0,0.6,0.2,1.2,0.7,1.7C360.1,429.4,360.3,429.6,360.6,429.8z"/>
<path class="st3" d="M406.7,426.4c0,0.2,0,0.4-0.1,0.6c0,0-14.4,2.4-17.4,0c-1.7-1.4-3.9-2.1-6.1-1.8c0,0-5.6,0.2-6.5-1.7
	c-0.4-0.8-0.3-2.3,0-3.7c0.2-1.4,0.6-2.8,1-4.1l0.2-0.2l1.3-1.1l15.6-0.5h0.1c-0.1,3.2,5.3,6.8,5.3,6.8
	C405.8,422.9,406.6,425.3,406.7,426.4z"/>
<path class="st4" d="M406.7,426.4c0,0.2,0,0.4-0.1,0.6c0,0-14.4,2.4-17.4,0c-1.7-1.4-3.9-2.1-6.1-1.8c0,0-5.6,0.2-6.5-1.7
	c-0.4-0.8-0.3-2.3,0-3.7c2.2,0.2,5.5,0.8,6.9,2c2,1.9,5.4,3.9,7.5,4C392.7,426,402.5,426.3,406.7,426.4z"/>
<path class="st4" d="M360.6,429.8c0,0-6.7,2.5-11.4,2.8c-2.5,0.2-3.8-1.3-4.4-2.8c1.7,0.6,4.1,1.2,5.4,0.6c1.5-0.7,6.7-1.1,9.7-1.3
	C360.1,429.4,360.3,429.6,360.6,429.8z"/>
<path class="st11" d="M370.6,229.9c-5.6-2.2-12.7-9.3-10.9-12.7c0.4-0.8,0.6-1.8,0.7-2.7c0.1-1.3,0.1-2.5,0.1-3.8
	c-0.1-2.1-0.4-4.1-0.7-6.2c0,0,17.4,0.4,16.4,3c-0.3,0.8-0.3,2.1-0.3,3.5c0.1,1.5,0.3,3.1,0.5,4.5c0.3,1.9,0.6,3.4,0.6,3.4
	s-1.1,1.5-1.7,1.6C374.6,220.6,378.6,233,370.6,229.9z"/>
<path class="st4" d="M356.4,419l-0.1,0.1c-5.2-6.3-11.5,1.6-11.5,1.6l-0.1-0.2l0.3-3.6l9.9-2.6l1.4,4.3L356.4,419z"/>
<path class="st4" d="M394.8,414.4c0,0-3.8-0.1-5.8,1.7s-11.8,0.4-11.4,0c0.1-0.2,0.2-0.4,0.2-0.6l1.3-1.1l15.6-0.5
	C394.8,414.3,394.8,414.4,394.8,414.4z"/>
<path class="st5" d="M362.9,365.1c-0.3,0.7-0.5,1.4-0.6,2.2c-0.4,2-0.4,4.1-0.3,6.1c0.2,3,0,22.7,0,22.7s-3.3,5.3-5.2,7.1
	c-1.9,1.9,3.8,5.2,3.8,5.2c0.8,4.8-4.3,10.2-4.3,10.2c-5.2-6.3-11.5,1.5-11.5,1.5s-3.4-5.9-4.3-8c-0.9-2.1,3.3-3.6,4.8-4.4
	c1.5-0.9-0.1-5.9-0.1-5.9s-1.2-4.4-2.7-8.5s1.6-24.1,1.6-24.1s0.2-3.6,0.5-4.8c0.2-0.9,0.2-1.8,0.1-2.7c0-0.3-0.1-0.6-0.1-0.7
	c0-0.2,0-0.3,0-0.3l0.1-0.1l2.1-3.9C346.9,356.8,363.9,362.6,362.9,365.1z"/>
<path class="st5" d="M394.8,414c0,0-3.8-0.1-5.8,1.7c-2,1.8-11.8,0.4-11.4,0c0.4-0.4,0.4-3.3,0.4-3.3c-5.7-7.8-0.8-11-0.8-11
	s-2.6-12.3-3-16.9c-0.3-3.2-0.7-11.8-0.9-16.7c-0.1-2.1-0.1-3.6-0.1-3.6l4.6-0.9l0.6-0.1l11.3-2.3c0,0,0.3,2.1,0.5,3.8
	c0.1,0.7,0.2,1.5,0.2,2.2c-0.1,0.8,0,3.5,0,3.5l0.4,7.9c-0.3,0.8-0.4,1.7-0.4,2.6c0.1,1,1.6,15.4,1.6,15.4s2.6,8.6,1.7,9.2
	C392.7,406.2,394.8,414,394.8,414z"/>
<path class="st4" d="M376.1,207.6c-0.3,0.8-0.3,2.1-0.3,3.5c-4.8,2.9-10.7,2.7-15.4-0.3c-0.1-2.1-0.4-4.1-0.7-6.2
	C359.7,204.7,377.1,205,376.1,207.6z"/>
<path class="st11" d="M382.8,198.3c0.1,8-6.3,14.5-14.3,14.6c-8,0.1-14.5-6.3-14.6-14.3c0-0.1,0-0.2,0-0.3c0-8,6.5-14.4,14.4-14.4
	C376.3,183.9,382.8,190.3,382.8,198.3L382.8,198.3z"/>
<path class="st4" d="M370.6,229.9c-5.6-2.2-12.7-9.3-10.9-12.7c0.4-0.8,0.6-1.8,0.7-2.7l7.6,6.3l4.7,3.9l3.6-9.1
	c0.3,1.9,0.6,3.4,0.6,3.4s-1.1,1.5-1.7,1.6C374.6,220.6,378.6,233,370.6,229.9z"/>
<polygon class="st5" points="390.3,257.6 384,364.6 375.7,365.1 354.2,303.1 357.7,229.5 358.4,214 368,221.8 372.7,225.7 
	376.4,216.3 383.3,222.3 "/>
<path class="st4" d="M362.9,365.1c-0.3,0.7-0.5,1.4-0.6,2.2c-6-0.9-11.9-2.8-17.4-5.4l-0.1-0.1l0-0.7v-0.4l2.1-3.9
	C346.8,356.8,363.9,362.6,362.9,365.1z"/>
<path class="st4" d="M377.8,367.3c-1.5,0.3-3.1,0.4-4.7,0.5c-0.1-2.1-0.1-3.6-0.1-3.6l4.7-0.9L377.8,367.3z"/>
<path class="st4" d="M390.2,364.7c-3,0.8-7.6,1.7-11.8,1.1l-0.1-2.7l11.3-2.3C389.6,360.9,389.9,363,390.2,364.7z"/>
<path class="st4" d="M378.3,366.3c-17.3,3-33.1-5.5-33.1-5.5l0.2-2.9c0,0,0.4-32.5-0.7-35c-1.1-2.5-1.9-15.1-1.3-17
	c0.6-1.9-2.2-31-2.2-31l-0.5-11.8l-17-6.9l7.6-15.8c1-2.2,1.9-4.5,2.6-6.8c1.3-4.1,7.4-8.1,7.4-8.1s6.3-4,8.8-3.9
	c2.5,0.2,5.7-3.6,5.7-3.6c2.4-6.1,4.6-3.4,4.6-3.4c0,0.3,0,0-0.1,0.9c-0.8,6.7,13.6,28,13.8,28.4l0,0l1.4,33.6l1.4,42.5L378.3,366.3
	z"/>
<path class="st3" d="M377.8,366.3c-17.3,3-33.1-5.5-33.1-5.5l0.2-2.9c0,0,0.4-32.5-0.7-35c-1.1-2.5-1.9-15.1-1.3-17.1
	c0.6-1.9-2.3-31-2.3-31l-0.5-11.8l-17-6.9l7.6-15.8c1-2.2,1.9-4.5,2.6-6.8c1.3-4.1,7.5-8.1,7.5-8.1s6.3-4,8.8-3.9
	c2.5,0.2,5.8-3.6,5.8-3.6c2.4-6.1,5.1-3.4,5.1-3.4c0,0.3-0.3,0.4-0.1,0.9c1.9,6.5,13.2,28,13.4,28.4l0,0l1.4,33.6l1.4,42.5
	L377.8,366.3z"/>
<path class="st4" d="M373.2,244.8c-1.9-0.8-11.7-12-11.7-12v-2.6c-0.4-0.8-2.5-0.3-4.2,0.3l0.7-15.5l0.8,0.7
	C360.7,222.1,373,244.4,373.2,244.8z"/>
<path class="st3" d="M373.6,243.8c-1.9-0.8-11.7-12-11.7-12v-2.6c-0.4-0.8-2.5-0.3-4.2,0.3l0.7-15.5l0.8,0.7
	C361.1,221.2,373.4,243.5,373.6,243.8z"/>
<path class="st4" d="M345.2,299.9c0.2,0,12-1.2,12-1.2s7.1,14,6.7,17.5s-1.3,6.4-4.2,5.9c-2.9-0.5-15.5,0.4-15.5,0.4L345.2,299.9z"
	/>
<path class="st3" d="M344.7,299c0.2,0,12-1.2,12-1.2s7.1,14.1,6.7,17.4c-0.5,3.4-1.3,6.4-4.2,5.9c-2.9-0.5-15.5,0.4-15.5,0.4
	L344.7,299z"/>
<path class="st11" d="M353.6,292.4c0,0,10.8,5.8,11.1,7.6c0.2,1.8-5.5-0.8-6.7-1.1c-0.8-0.2-1.6-0.3-2.5-0.4l-8.3,0.2L353.6,292.4z"
	/>
<circle class="st4" cx="370.2" cy="244.4" r="1.1"/>
<circle class="st6" cx="370.2" cy="243.9" r="1.1"/>
<circle class="st4" cx="372.3" cy="293.6" r="1.1"/>
<circle class="st6" cx="372.3" cy="293.2" r="1.1"/>
<circle class="st4" cx="371.3" cy="269" r="1.1"/>
<circle class="st6" cx="371.3" cy="268.5" r="1.1"/>
<path class="st3" d="M397.5,298.3c0,0,0.8,1.2,0,1.7c-0.8,0.5,0.1,1.9,0.1,1.9s-1.9,1.1-1.1,2.2c0.9,1,0.3,5.6,0.3,5.6l-2.3,3.9
	c0,0,0.1,2.5,0.1,5.8c0,5.2-0.3,12.6-2,16l0.2,27.5c0,0-8.2,3-15,2.1l-1-44.2c0,0,1.5-25.1,2-29.9c0.3-2.5,0.4-5,0.4-7.5
	c0,0-0.2-7.5-1-11c0,0-0.8-15.1-0.9-19.3c0-2,0.1-7.8,0.2-13.4c0.1-6.1,0.3-11.8,0.3-11.8l-1.5-12.2c0,0,1.5-0.2,2,0.5
	c0.2,0.2,0.4,0.4,0.7,0.5l0,0c2.7,1.8,12,7.3,12,7.3s5.2,2.1,6.4,5c1.2,3,2.1,5.1,2.7,5.9c0.6,0.8,0.9,4.8,0.9,4.8s1.8,7.3,3.2,8.5
	c1.4,1.2,2.4,9.1,2.4,9.1l-12.3,9.7c0,0-1.1,16.1-1.3,16.8C392.8,284.3,397.5,298.3,397.5,298.3z"/>
<path class="st3" d="M398,298.3c0,0,0.8,1.2,0,1.7c-0.8,0.5,0.1,1.9,0.1,1.9s-1.9,1.1-1.1,2.2c0.9,1,0.3,5.6,0.3,5.6l-2.3,3.9
	c0,0,0.1,2.5,0.2,5.8c0,5.2-0.3,12.6-2,16l0.2,27.5c0,0-8.2,3-15,2.1l-1-44.2c0,0,1.5-25.1,2-29.9c0.3-2.5,0.4-5,0.4-7.5
	c0,0-0.2-7.5-1-11c0,0-0.8-15.1-0.9-19.3c0-2,0.1-7.8,0.2-13.4c0.1-6.1,0.3-11.8,0.3-11.8l-2-12.3c0,0,2,0,2.5,0.6
	c0.2,0.2,0.4,0.4,0.7,0.5l0,0c2.7,1.8,12,7.3,12,7.3s5.2,2.1,6.4,5c1.3,3,2.1,5.1,2.7,5.9c0.6,0.8,0.9,4.8,0.9,4.8s1.8,7.3,3.2,8.5
	s2.4,9.1,2.4,9.1l-12.3,9.7c0,0-1.1,16.1-1.3,16.8C393.3,284.3,398,298.3,398,298.3z"/>
<path class="st4" d="M383.2,231.4l1.1,3.2l-5.9,5.9c0.1-6.1,0.3-11.8,0.3-11.8l-2-12.3c0,0,2,0,2.5,0.6c0.2,0.2,0.4,0.4,0.7,0.5l0,0
	l5,14.4L383.2,231.4z"/>
<path class="st3" d="M382.8,230.4l1.1,3.2l-5.9,5.9c0.1-6.1,0.3-11.8,0.3-11.8l-2-12.3c0,0,2,0,2.5,0.6c0.2,0.2,0.4,0.4,0.7,0.5l0,0
	l5,14.4L382.8,230.4z"/>
<path class="st4" d="M382.8,198.3c0,1.5-0.2,3-0.7,4.5c-0.2,0-0.3,0-0.5-0.1c-0.1-3.8-2-7.4-4.3-10.4c-0.6-0.9-1.4-1.7-2.3-2.4
	c-0.9-0.7-2-1-3.1-0.9c-1.3,0.2-2.4,1-3.7,1.1c-1.7,0.1-3.2-1-4.9-1.1c-1.4,0-2.7,0.6-3.6,1.7c-0.9,1-1.5,2.2-1.9,3.6
	c-0.7,2-1,4.1-1.1,6.1c0,1.2-0.1,2.7-1.2,3.1c0.2-1.8-0.4-3.5-1.6-4.8l0,0c0-0.1,0-0.2,0-0.3c0-8,6.5-14.4,14.4-14.4
	C376.3,183.9,382.8,190.3,382.8,198.3L382.8,198.3z"/>
<path class="st12" d="M374.3,175.4c-2.2-1-4.7-1.2-7-0.5c-1.2,0.3-2.3,0.9-3.5,1.2c-2.5,0.6-5.5-0.1-7.7,1.4
	c-1.2,0.8-1.9,2.2-2.6,3.5l-1.7,3.2c-0.9,1.8-1.8,3.5-2.2,5.5s-0.2,4.1,1.1,5.7c0.9,1.1,2.2,1.8,3.2,2.9c1.2,1.3,1.8,3.1,1.6,4.8
	c1.1-0.4,1.2-1.9,1.2-3.1c0-2.1,0.4-4.2,1.1-6.1c0.4-1.3,1-2.5,1.9-3.6c0.9-1,2.2-1.7,3.6-1.7c1.7,0.1,3.2,1.2,4.9,1.1
	c1.3-0.1,2.4-1,3.7-1.1c1.1-0.1,2.2,0.2,3.1,0.9c0.9,0.7,1.7,1.5,2.3,2.4c2.3,3,4.2,6.6,4.3,10.4c0.5,0.3,1.2-0.1,1.4-0.6
	s0.2-1.2,0.5-1.7c0.3-0.6,1-0.9,1.5-1.4c1.3-1.1,1.6-3,1.6-4.8s-0.4-3.5-0.1-5.2c0.2-1,0.6-2,0.9-3.1c0.2-1,0.3-2.2-0.3-3.1
	c-0.8-1.3-2.6-1.6-4.2-1.7c-1.8-0.2-3.3,0-4.5-1.4c-0.5-0.8-1.1-1.5-1.8-2.2C376.6,176.9,374.3,175.5,374.3,175.4z"/>
<path class="st4" d="M328.5,264.3l-4.4-8.1l-1.4,12.6c0,0,0.8,5.6,0.6,6.4c-0.2,0.9,3.2,8.5,3.2,8.5s11,19.6,15.5,20.6l15.2-10.9
	l-4-5.1c0,0-1.4-0.5-1.7,0c0,0-7.5-12.9-8.3-13.8s-0.6-2.8-0.6-2.8s-1.2-1.2-0.8-2.4c0.4-1.2-2.2-5.2-2.2-5.2l2.4-2.2L328.5,264.3z"
	/>
<path class="st3" d="M324.3,255.2l-1.2,0.9l-1.4,12.6c0,0,0.8,5.6,0.6,6.4s3.2,8.5,3.2,8.5s11,19.6,15.5,20.6l15.2-10.9l-4-5.1
	c0,0-1.4-0.5-1.7,0c0,0-7.5-12.9-8.3-13.8c-0.8-0.9-0.6-2.8-0.6-2.8s-1.2-1.2-0.8-2.4c0.4-1.2-2.3-5.2-2.3-5.2l2.4-2.2L324.3,255.2z
	"/>
<path class="st4" d="M396.5,304.5c0.8,1,0.3,5.6,0.3,5.6l-2.3,3.9c0,0,0.1,2.5,0.1,5.8l-3.9,1.2c-1.2,0.4-2.5-0.3-2.9-1.5
	c-0.1-0.2-0.1-0.5-0.1-0.8l0.7-21.8l9.1,3.5c-0.8,0.5,0.1,1.9,0.1,1.9S395.7,303.5,396.5,304.5z"/>
<path class="st3" d="M397,304c0.8,1,0.3,5.6,0.3,5.6l-2.3,3.9c0,0,0.1,2.5,0.2,5.8l-4,1.2c-1.2,0.4-2.5-0.3-2.8-1.5
	c-0.1-0.2-0.1-0.5-0.1-0.8l0.7-21.8l9.1,3.5c-0.8,0.5,0.1,1.9,0.1,1.9S396.1,303,397,304z"/>
<path class="st11" d="M400,293.6c0,0-0.6,4-2.2,4.2c-1.6,0.2-2.2,6.4-3.8,6.2s-0.5-5.7-0.5-6.8c0.1-1.1-1.7-5.5-0.4-6.5s5.4,0,5.4,0
	L400,293.6z"/>
<path class="st4" d="M403.3,263.2l2.9-5.9c0,0,1.2,4.5,1.2,6.9s1.6,2.6,1.6,2.6s1.8,2.1,0.8,3.6s-1.3,5.4-1.3,5.4s0.3,7.3-1.1,8.3
	c-1.4,1-1.7,3.4-1.7,3.4s-2.6,4.6-2.5,5.7c0.1,1.1-3.6,8.5-3.6,8.5s1.8-9.2-8.6-13.1c0,0-0.1-3.1,0.7-4c0.8-0.9,2-1.3,1.2-5.5
	c-0.8-4.3-0.2-9.5-0.2-10.5c0-1,2.3-7.5,2.3-7.5L403.3,263.2z"/>
<path class="st3" d="M404.6,256.4l2.6,0.8c0,0,1.2,4.5,1.2,6.9s1.6,2.6,1.6,2.6s1.8,2.1,0.8,3.6c-0.9,1.5-1.3,5.4-1.3,5.4
	s0.3,7.3-1.1,8.3c-1.4,1-1.7,3.4-1.7,3.4s-2.6,4.6-2.5,5.7c0.1,1.1-3.6,8.5-3.6,8.5s1.8-9.2-8.6-13.1c0,0-0.1-3.1,0.7-4
	s2-1.3,1.2-5.5c-0.8-4.3-0.2-9.5-0.2-10.5c0-1,2.3-7.5,2.3-7.5L404.6,256.4z"/>
<path class="st4" d="M348.1,409.4c0,0,4.1-2.6,6.7-0.7C357.6,410.6,348.1,409.4,348.1,409.4z"/>
<path class="st4" d="M379.8,401.5c0,0,3.6-0.5,6.6,2.8C389.5,407.6,379.8,401.5,379.8,401.5z"/>
<g class="st7">
	<path class="st8" d="M385.1,197.6c-0.5,0.5-1.2,0.8-1.5,1.4c-0.3,0.5-0.3,1.1-0.5,1.7c-0.2,0.5-0.9,1-1.4,0.6
		c-0.1-3.8-2-7.4-4.3-10.4c-0.6-0.9-1.4-1.7-2.3-2.4c-0.9-0.7-2-1-3.2-0.9c-1.3,0.2-2.4,1-3.7,1.1c-1.7,0.1-3.2-1-4.9-1.1
		c-1.4,0-2.7,0.6-3.6,1.7c-0.9,1-1.5,2.2-1.9,3.6c-0.7,2-1,4.1-1.1,6.1c0,1.2-0.1,2.6-1.2,3.1c0,0.3,0,0.6,0,0.9
		c1.1-0.4,1.2-1.9,1.2-3.1c0-2.1,0.4-4.2,1.1-6.1c0.4-1.3,1-2.5,1.9-3.6c0.9-1,2.2-1.7,3.6-1.7c1.7,0.1,3.2,1.2,4.9,1.1
		c1.3-0.1,2.4-1,3.7-1.1c1.1-0.1,2.2,0.2,3.2,0.9c0.9,0.7,1.7,1.5,2.3,2.4c2.3,3,4.2,6.6,4.3,10.4c0.5,0.3,1.2-0.1,1.4-0.6
		c0.2-0.5,0.2-1.2,0.5-1.7c0.3-0.6,1-0.9,1.5-1.4c1.3-1.1,1.6-3,1.6-4.8c0-0.1,0-0.1,0-0.2C386.6,195.1,386.2,196.6,385.1,197.6z"/>
	<path class="st8" d="M353.9,197.3c-1-1.1-2.3-1.8-3.2-2.9c-0.8-1-1.2-2.2-1.2-3.4c-0.1,1.6,0.3,3.1,1.2,4.4
		c0.9,1.1,2.2,1.8,3.2,2.9c0.9,1,1.5,2.4,1.6,3.8C355.7,200.2,355.1,198.6,353.9,197.3z"/>
	<path class="st8" d="M387.5,184.5c-0.2,1-0.7,2-0.9,3.1c-0.1,0.7-0.2,1.4-0.1,2.1c0-0.4,0.1-0.8,0.1-1.2c0.2-1,0.6-2,0.9-3.1
		c0.1-0.6,0.2-1.2,0.1-1.7C387.6,184,387.6,184.3,387.5,184.5z"/>
</g>
<ellipse class="st1" cx="58.7" cy="416.7" rx="41.1" ry="6.6"/>
<rect x="57.4" y="290.3" class="st13" width="2.6" height="59.5"/>
<path class="st6" d="M76.7,349.7l-0.2,2.7l-0.2,3.8l-0.1,1.6l-0.2,3.8l-0.1,1.6l-0.2,3.8l-2.7,43c-0.2,3.8-3.4,6.8-7.3,6.8H51.8
	c-3.9,0-7.1-3-7.3-6.9l-2.7-43l-0.2-3.8l-0.1-1.6l-0.2-3.8l-0.1-1.6l-0.2-3.8l-0.2-2.7c-0.1-2.1,1.5-3.9,3.6-4c0.1,0,0.1,0,0.2,0
	h28.3c2.1,0,3.8,1.7,3.8,3.8C76.7,349.5,76.7,349.6,76.7,349.7z"/>
<polygon class="st14" points="76.5,352.3 76.3,356.1 41.2,356.1 41,352.3 "/>
<polygon class="st14" points="76.2,357.7 76,361.5 41.5,361.5 41.3,357.7 "/>
<polygon class="st14" points="75.8,363.1 75.6,366.9 41.9,366.9 41.6,363.1 "/>
<path class="st5" d="M36.9,312.6c15.4,11.1,21.8,28.6,21.8,28.6s-18.6-0.6-34-11.8S3,300.9,3,300.9S21.5,301.5,36.9,312.6z"/>
<path class="st15" d="M3,300.9c0,0,19.3,10.7,25.4,19.5c6.2,8.9,30.3,20.8,30.3,20.8"/>
<path class="st5" d="M46.9,290.2c8.4,6.1,11.9,15.5,11.9,15.5s-10.1-0.3-18.5-6.4c-8.4-6.1-11.9-15.5-11.9-15.5
	S38.5,284.1,46.9,290.2z"/>
<path class="st15" d="M28.4,283.8c0,0,10.5,5.8,13.8,10.6c3.4,4.8,16.5,11.3,16.5,11.3"/>
<path class="st5" d="M70.9,305.2c-9.6,10.6-11.7,24.4-11.7,24.4s13.6-3.3,23.2-13.9c9.6-10.6,11.7-24.4,11.7-24.4
	S80.6,294.7,70.9,305.2z"/>
<path class="st15" d="M94.1,291.3c0,0-12.5,10.8-15.7,18.3c-3.2,7.5-19.1,20-19.1,20"/>
</svg>
